<svg id="Layer_1" data-name="Layer 1" xmlns="http://www.w3.org/2000/svg" viewBox="0 0 368.5 226.77"><defs><style>.cls-1{fill:#6696ac;}.cls-2{fill:#d8a55b;}.cls-3{fill:#515f6d;}.cls-4{fill:#a6bb75;}.cls-5{fill:#c0bcbb;}.cls-6{fill:#d36d75;}.cls-7{fill:#aa81ac;}.cls-8{fill:#d7734b;}</style></defs><title>HoC-logo</title><rect class="cls-1" x="194.98" y="109.5" width="29.25" height="5.45"/><rect class="cls-2" x="165.77" y="99.59" width="40.12" height="5.45"/><rect class="cls-3" x="172.21" y="89.68" width="13.86" height="5.45"/><rect class="cls-4" x="191.03" y="89.68" width="6.43" height="5.45"/><rect class="cls-5" x="210.85" y="99.59" width="6.43" height="5.45"/><rect class="cls-6" x="222.23" y="99.59" width="21.29" height="5.45"/><rect class="cls-7" x="202.42" y="89.68" width="26.25" height="5.45"/><rect class="cls-8" x="205.9" y="79.77" width="16.34" height="5.45"/><rect class="cls-5" x="195.99" y="69.86" width="12.87" height="5.45"/><rect class="cls-4" x="213.81" y="69.86" width="19.81" height="5.45"/><rect class="cls-1" x="165.77" y="79.77" width="35.17" height="5.45"/><rect class="cls-8" x="186.08" y="59.95" width="36.16" height="5.45"/><rect class="cls-3" x="175.68" y="69.86" width="15.35" height="5.45"/><polygon class="cls-3" points="190.02 114.95 143.48 114.95 143.48 82.04 170.12 59.95 181.12 59.95 181.12 65.4 172.09 65.4 148.93 84.6 148.93 109.5 190.02 109.5 190.02 114.95"/><path class="cls-3" d="M66,170.46V160.18H55.62v10.29H50V144.84h5.64V155H66V144.84h5.64v25.63Z"/><path class="cls-3" d="M88.79,170.9c-7.91,0-13.58-5.89-13.58-13.18v-.07A13.25,13.25,0,0,1,88.86,144.4c7.91,0,13.58,5.89,13.58,13.18v.07A13.25,13.25,0,0,1,88.79,170.9Zm7.76-13.25a7.79,7.79,0,0,0-7.76-8.05,7.66,7.66,0,0,0-7.69,8v.07a7.79,7.79,0,0,0,7.76,8.05,7.66,7.66,0,0,0,7.69-8Z"/><path class="cls-3" d="M116.68,170.87c-6.88,0-11.09-3.84-11.09-11.39V144.84h5.64v14.5c0,4.17,2.09,6.33,5.53,6.33s5.53-2.09,5.53-6.15V144.84h5.64V159.3C127.92,167.06,123.56,170.87,116.68,170.87Z"/><path class="cls-3" d="M141.32,170.83a16.31,16.31,0,0,1-10.87-4.1l3.33-4a11.75,11.75,0,0,0,7.65,3.11c2.31,0,3.7-.92,3.7-2.42v-.07c0-1.43-.88-2.16-5.16-3.26-5.16-1.32-8.49-2.75-8.49-7.83v-.07c0-4.65,3.73-7.72,9-7.72a14.83,14.83,0,0,1,9.52,3.26L147,152a12,12,0,0,0-6.66-2.53c-2.16,0-3.29,1-3.29,2.23v.07c0,1.68,1.1,2.23,5.53,3.37,5.2,1.35,8.13,3.22,8.13,7.69v.07C150.73,168,146.85,170.83,141.32,170.83Z"/><path class="cls-3" d="M154.17,170.46V144.84h19.33v5H159.77v5.2h12.08v5H159.77v5.38h13.91v5Z"/><path class="cls-3" d="M178.44,161.41a9.52,9.52,0,0,1,9.28-9.34c4.55,0,7.47,3.07,7.47,7.29a9.54,9.54,0,0,1-9.28,9.31C181.36,168.67,178.44,165.6,178.44,161.41Zm13.14-2a3.86,3.86,0,0,0-4.07-4.22c-3.13,0-5.46,3.23-5.46,6.06a3.86,3.86,0,0,0,4.07,4.22C189.2,165.51,191.58,162.34,191.58,159.45Z"/><path class="cls-3" d="M199.75,155.53h-2l.84-3.13h2l.3-1.3c.9-3.38,3-4.94,6.06-4.94a8.26,8.26,0,0,1,3.14.54l-.81,3a5.83,5.83,0,0,0-2.23-.48,2.57,2.57,0,0,0-2.62,2.23l-.24.9h4.4l-.84,3.13H203.4L200,168.31h-3.65Z"/><path class="cls-3" d="M226,170.9a12.93,12.93,0,0,1-13.14-13.18v-.07a13,13,0,0,1,13.36-13.25,13.22,13.22,0,0,1,10.1,4l-3.59,4.14a9.46,9.46,0,0,0-6.55-2.89c-4.32,0-7.43,3.59-7.43,8v.07c0,4.39,3,8.05,7.43,8.05,2.93,0,4.72-1.17,6.74-3l3.59,3.62A13.1,13.1,0,0,1,226,170.9Z"/><path class="cls-3" d="M251.22,170.9c-7.91,0-13.58-5.89-13.58-13.18v-.07a13.25,13.25,0,0,1,13.66-13.25c7.91,0,13.58,5.89,13.58,13.18v.07A13.25,13.25,0,0,1,251.22,170.9ZM259,157.65a7.79,7.79,0,0,0-7.76-8.05,7.66,7.66,0,0,0-7.69,8v.07a7.79,7.79,0,0,0,7.76,8.05,7.66,7.66,0,0,0,7.69-8Z"/><path class="cls-3" d="M278.41,170.46h-10V144.84h10c8.05,0,13.62,5.53,13.62,12.74v.07C292,164.86,286.47,170.46,278.41,170.46Zm7.72-12.81a7.36,7.36,0,0,0-7.72-7.72h-4.36v15.45h4.36a7.3,7.3,0,0,0,7.72-7.65Z"/><path class="cls-3" d="M295.58,170.46V144.84h19.33v5H301.18v5.2h12.08v5H301.18v5.38h13.91v5Z"/></svg>