<?xml version="1.0" encoding="utf-8"?>
<!-- Generator: Adobe Illustrator 24.1.0, SVG Export Plug-In . SVG Version: 6.00 Build 0)  -->
<svg version="1.1" xmlns="http://www.w3.org/2000/svg" xmlns:xlink="http://www.w3.org/1999/xlink" x="0px" y="0px"
	 viewBox="0 0 1000 1000" style="enable-background:new 0 0 1000 1000;" xml:space="preserve">
<style type="text/css">
	.st0{display:none;}
	.st1{stroke:#B3C589;stroke-width:17;stroke-linejoin:round;}
	.st2{stroke:#525F6D;stroke-width:17;stroke-linejoin:round;}
	.st3{stroke:#D26D75;stroke-width:17;stroke-linejoin:round;}
	.st4{stroke:#AD86AF;stroke-width:17;stroke-linejoin:round;}
	.st5{stroke:#D8A55A;stroke-width:17;stroke-linejoin:round;}
	.st6{stroke:#DE8C6B;stroke-width:17;stroke-linejoin:round;}
	.st7{stroke:#6696AC;stroke-width:17;stroke-linejoin:round;}
	.st8{stroke:#D8DCDC;stroke-width:17;stroke-linejoin:round;}
	.st9{fill:none;stroke:#D8A55A;stroke-width:17;stroke-linejoin:round;}
	.st10{display:inline;fill:#DE8C6B;}
	.st11{display:inline;fill:#AD86AF;}
	.st12{display:inline;fill:#6696AC;}
	.st13{display:inline;fill:#D8DCDC;}
	.st14{display:inline;fill:#D26D75;}
	.st15{display:inline;fill:#B3C589;}
	.st16{display:inline;fill:#525F6D;}
	.st17{display:inline;fill:#D8A55A;}
</style>
<g id="Layer_1" class="st0">
</g>
<g id="Layer_2">
	<line class="st1" x1="558.5" y1="74.4" x2="488.5" y2="74.4"/>
	<line class="st2" x1="455.5" y1="74.4" x2="440.6" y2="74.4"/>
	<line class="st3" x1="503.5" y1="106.1" x2="371.2" y2="106.1"/>
	<line class="st4" x1="628.7" y1="106.1" x2="536.5" y2="106.1"/>
	<line class="st5" x1="674.7" y1="137.8" x2="612.5" y2="137.8"/>
	<line class="st6" x1="447.5" y1="137.8" x2="325" y2="137.8"/>
	<line class="st5" x1="579.5" y1="137.8" x2="480.5" y2="137.8"/>
	<line class="st2" x1="536.5" y1="169.5" x2="435.5" y2="169.5"/>
	<line class="st3" x1="333.5" y1="169.5" x2="294.2" y2="169.5"/>
	<line class="st6" x1="402.5" y1="169.5" x2="366.5" y2="169.5"/>
	<line class="st2" x1="705.9" y1="169.5" x2="569.5" y2="169.5"/>
	<line class="st6" x1="632.5" y1="201.2" x2="480.5" y2="201.2"/>
	<line class="st6" x1="728.2" y1="201.2" x2="665.5" y2="201.2"/>
	<line class="st7" x1="447.5" y1="201.2" x2="271.9" y2="201.2"/>
	<line class="st8" x1="743.6" y1="232.9" x2="562.5" y2="232.9"/>
	<line class="st4" x1="324.5" y1="232.9" x2="256.2" y2="232.9"/>
	<line class="st1" x1="529.5" y1="232.9" x2="357.5" y2="232.9"/>
	<line class="st5" x1="545.5" y1="264.6" x2="404.5" y2="264.6"/>
	<line class="st4" x1="753.4" y1="264.6" x2="713.5" y2="264.6"/>
	<line class="st7" x1="680.5" y1="264.6" x2="578.5" y2="264.6"/>
	<line class="st5" x1="371.5" y1="264.6" x2="246.3" y2="264.6"/>
	<line class="st7" x1="280.5" y1="296.3" x2="241.3" y2="296.3"/>
	<line class="st2" x1="758.5" y1="296.3" x2="497.5" y2="296.3"/>
	<line class="st2" x1="464.5" y1="296.3" x2="313.5" y2="296.3"/>
	<line class="st4" x1="642.5" y1="328" x2="579.5" y2="328"/>
	<line class="st4" x1="759.4" y1="328" x2="675.5" y2="328"/>
	<line class="st3" x1="333.5" y1="328" x2="240.6" y2="328"/>
	<line class="st1" x1="546.5" y1="328" x2="366.5" y2="328"/>
	<line class="st3" x1="689.5" y1="359.7" x2="523.5" y2="359.7"/>
	<line class="st1" x1="755.9" y1="359.7" x2="722.5" y2="359.7"/>
	<line class="st5" x1="490.5" y1="359.7" x2="244" y2="359.7"/>
	<line class="st5" x1="747.6" y1="391.4" x2="612.5" y2="391.4"/>
	<line class="st1" x1="350.5" y1="391.4" x2="252.1" y2="391.4"/>
	<line class="st6" x1="579.5" y1="391.4" x2="383.5" y2="391.4"/>
	<line class="st1" x1="734.3" y1="423.1" x2="687.5" y2="423.1"/>
	<line class="st4" x1="301.5" y1="423.1" x2="265.6" y2="423.1"/>
	<line class="st7" x1="654.5" y1="423.1" x2="556.5" y2="423.1"/>
	<line class="st1" x1="523.5" y1="423.1" x2="334.5" y2="423.1"/>
	<line class="st6" x1="715.5" y1="454.8" x2="604.5" y2="454.8"/>
	<line class="st3" x1="387.5" y1="454.8" x2="285.3" y2="454.8"/>
	<line class="st4" x1="571.5" y1="454.8" x2="420.5" y2="454.8"/>
	<line class="st4" x1="697.3" y1="486.5" x2="654.5" y2="486.5"/>
	<line class="st3" x1="474.5" y1="486.5" x2="302.7" y2="486.5"/>
	<line class="st2" x1="621.5" y1="486.5" x2="507.5" y2="486.5"/>
	<line class="st8" x1="681.9" y1="518.2" x2="572.5" y2="518.2"/>
	<line class="st1" x1="539.5" y1="518.2" x2="318.3" y2="518.2"/>
	<line class="st3" x1="579.5" y1="549.9" x2="460.5" y2="549.9"/>
	<line class="st2" x1="667.7" y1="549.9" x2="612.5" y2="549.9"/>
	<line class="st6" x1="427.5" y1="549.9" x2="332.4" y2="549.9"/>
	<line class="st5" x1="654.6" y1="581.6" x2="533.5" y2="581.6"/>
	<line class="st8" x1="500.5" y1="581.6" x2="345.2" y2="581.6"/>
	<line class="st4" x1="642.9" y1="613.3" x2="468.5" y2="613.3"/>
	<line class="st4" x1="435.5" y1="613.3" x2="356.9" y2="613.3"/>
	<line class="st7" x1="632.5" y1="645" x2="550.5" y2="645"/>
	<line class="st2" x1="517.5" y1="645" x2="367.4" y2="645"/>
	<line class="st4" x1="624.8" y1="676.7" x2="527.5" y2="676.7"/>
	<line class="st3" x1="494.5" y1="676.7" x2="375.2" y2="676.7"/>
	<line class="st3" x1="605" y1="708.4" x2="453.5" y2="708.4"/>
	<line class="st1" x1="420.5" y1="708.4" x2="394.8" y2="708.4"/>
	<line class="st6" x1="437" y1="816.3" x2="377.5" y2="816.3"/>
	<line class="st2" x1="622.5" y1="816.3" x2="470" y2="816.3"/>
	<line class="st1" x1="510" y1="779.3" x2="377.5" y2="779.3"/>
	<line class="st1" x1="622.5" y1="779.3" x2="543" y2="779.3"/>
	<line class="st8" x1="385.8" y1="846.9" x2="614.2" y2="846.9"/>
	<line class="st9" x1="378.8" y1="749.9" x2="621" y2="749.9"/>
	<line class="st6" x1="518" y1="876.2" x2="381.3" y2="876.2"/>
	<line class="st7" x1="618.7" y1="876.2" x2="551" y2="876.2"/>
	<line class="st4" x1="566.1" y1="914.8" x2="510" y2="914.8"/>
	<line class="st5" x1="477" y1="914.8" x2="433.9" y2="914.8"/>
	<line class="st3" x1="449.7" y1="944.1" x2="550.3" y2="944.1"/>
</g>
<g id="Layer_3" class="st0">
	<rect x="-120" class="st10" width="73" height="73"/>
	<rect x="-120" y="86" class="st11" width="73" height="73"/>
	<rect x="-120" y="179" class="st12" width="73" height="73"/>
	<rect x="-120" y="272" class="st13" width="73" height="73"/>
	<rect x="-211" y="272" class="st14" width="73" height="73"/>
	<rect x="-211" y="179" class="st15" width="73" height="73"/>
	<rect x="-211" y="86" class="st16" width="73" height="73"/>
	<rect x="-211" class="st17" width="73" height="73"/>
</g>
</svg>
