<?xml version="1.0" standalone="no"?>
<!DOCTYPE svg PUBLIC "-//W3C//DTD SVG 20010904//EN"
 "http://www.w3.org/TR/2001/REC-SVG-20010904/DTD/svg10.dtd">
<svg version="1.0" xmlns="http://www.w3.org/2000/svg"
 width="1760.000000pt" height="782.000000pt" viewBox="0 0 1760.000000 782.000000"
 preserveAspectRatio="xMidYMid meet">
<metadata>
Created by potrace 1.15, written by Peter Selinger 2001-2017
</metadata>
<g transform="translate(0.000000,782.000000) scale(0.100000,-0.100000)"
fill="#000000" stroke="none">
<path d="M0 3910 l0 -3910 430 0 431 0 -12 23 c-6 12 -17 29 -24 37 -7 8 -15
26 -19 40 -3 14 -13 50 -22 80 -9 30 -20 84 -25 120 -5 36 -12 82 -15 103 -4
21 -1 57 5 80 7 23 13 60 15 83 5 50 27 102 56 132 12 13 26 39 32 58 7 27 18
39 43 50 19 7 37 19 40 25 4 5 13 8 20 5 7 -2 30 8 52 24 45 35 106 39 193 15
30 -9 85 -22 123 -31 77 -17 237 -96 253 -124 14 -25 54 -60 68 -60 6 0 4 -5
-4 -10 -13 -8 -12 -10 3 -10 10 0 20 -8 24 -17 3 -10 12 -25 19 -33 24 -29 53
-155 55 -238 1 -63 5 -82 16 -82 8 0 13 -8 12 -17 -1 -10 1 -26 6 -36 13 -30
-2 -160 -20 -173 -19 -14 -19 -30 1 -38 9 -3 78 -6 154 -6 l138 0 -14 47 c-11
36 -11 48 -2 54 9 6 8 12 -3 26 -23 26 -28 57 -13 71 7 7 11 19 8 27 -4 8 -3
23 1 33 3 9 8 46 9 82 2 36 10 80 19 97 10 18 17 39 17 47 0 8 8 20 19 25 10
6 21 21 25 34 5 23 42 47 71 47 8 0 18 7 23 17 6 10 16 14 27 10 9 -4 23 -1
30 7 8 8 43 17 77 21 35 4 68 11 73 15 6 4 24 10 42 13 18 4 41 14 51 24 11
10 30 27 43 38 13 11 37 31 53 44 35 31 46 33 396 70 58 7 119 16 135 21 17 5
59 12 95 15 36 4 68 9 72 11 4 3 40 5 80 5 40 1 77 4 83 7 28 18 422 18 583 1
92 -10 115 -10 122 0 6 10 12 10 29 2 27 -15 20 -27 -18 -36 -44 -9 -65 -38
-57 -78 6 -32 8 -33 59 -35 67 -2 127 -11 152 -22 11 -5 45 -14 75 -20 32 -6
68 -21 84 -35 16 -14 35 -25 43 -25 7 0 13 -4 13 -10 0 -5 9 -10 20 -10 11 0
23 -7 26 -15 4 -8 11 -15 16 -15 5 0 30 -17 55 -37 31 -25 43 -42 40 -55 -4
-13 0 -18 15 -18 14 0 19 -6 17 -22 -2 -13 3 -33 10 -46 10 -19 10 -26 0 -38
-7 -9 -14 -47 -16 -85 -1 -38 -8 -80 -15 -92 -7 -12 -11 -26 -9 -32 2 -5 3
-28 3 -50 0 -32 2 -36 9 -20 6 14 8 -2 5 -47 l-4 -68 354 0 354 0 0 35 c0 24
5 35 15 35 9 0 12 -6 9 -15 -4 -10 0 -15 11 -15 13 0 15 6 10 30 -6 29 -5 30
29 30 32 0 36 3 36 25 0 14 5 25 10 25 6 0 10 7 10 15 0 8 7 15 15 15 8 0 15
-4 15 -10 0 -19 19 -10 26 12 6 21 41 57 56 58 3 0 9 -8 11 -17 4 -14 5 -12 6
5 1 19 7 22 41 22 29 0 40 4 40 15 0 11 12 15 51 15 49 0 51 1 47 24 -5 23 -4
24 89 28 87 4 128 17 109 35 -4 4 -11 2 -15 -6 -5 -7 -22 -11 -42 -9 l-34 3
34 18 c20 10 56 17 88 17 29 0 53 5 53 10 0 6 21 10 46 10 37 0 45 3 40 15 -4
10 2 16 17 17 12 1 38 2 57 4 19 1 47 7 62 13 15 5 42 9 60 7 18 -2 23 -1 11
1 -13 2 -23 8 -23 12 0 9 58 17 220 31 138 12 143 13 162 32 10 10 25 18 33
18 8 0 15 8 15 19 0 11 10 22 23 26 12 4 25 8 30 10 4 1 12 3 17 4 6 0 10 12
10 26 0 14 5 25 10 25 6 0 10 5 10 11 0 6 17 44 37 85 47 93 77 109 123 64 18
-17 31 -24 34 -17 3 8 5 7 5 -2 1 -7 13 -36 27 -64 14 -29 23 -62 21 -75 -2
-12 0 -25 4 -28 5 -3 9 -14 9 -25 0 -10 7 -19 15 -19 19 0 19 -9 -2 -32 -15
-16 -15 -18 0 -18 20 0 37 -30 37 -64 0 -16 6 -26 14 -26 8 0 16 -7 20 -15 3
-10 19 -15 43 -15 28 0 34 -3 23 -10 -11 -7 -5 -10 23 -10 20 0 37 5 37 10 0
6 17 10 39 10 43 0 101 -18 101 -31 0 -5 7 -9 15 -9 8 0 19 -8 24 -19 10 -17
50 -29 122 -35 14 -2 31 -6 38 -10 7 -5 15 -5 18 -2 4 3 1 6 -6 6 -8 0 -10 8
-5 23 9 31 14 34 24 17 16 -26 50 19 51 66 1 58 37 156 65 177 13 10 24 26 24
35 0 8 3 13 6 10 3 -4 21 0 39 8 19 8 48 14 65 14 18 0 29 4 25 10 -3 5 4 11
17 12 92 7 114 5 131 -10 16 -14 19 -14 27 -2 6 8 10 10 10 4 0 -19 70 -31
309 -55 67 -6 124 -17 137 -26 13 -8 32 -12 43 -8 10 3 22 2 25 -4 3 -5 15 -7
26 -4 11 3 20 0 20 -6 0 -6 15 -11 33 -11 21 0 39 -8 50 -21 10 -11 25 -18 33
-15 8 3 14 -1 14 -9 0 -8 4 -15 8 -15 17 0 42 -61 42 -103 0 -29 5 -47 14 -50
14 -5 22 -40 32 -129 4 -30 11 -48 19 -48 7 0 15 -18 19 -45 5 -30 12 -45 22
-45 8 0 13 -4 9 -9 -3 -6 -3 -28 1 -50 l7 -41 374 0 c347 0 374 1 380 17 4 10
12 22 20 26 7 4 13 21 13 37 0 17 4 30 8 30 4 0 8 16 8 36 0 20 6 39 15 45 7
5 9 9 3 9 -8 0 -9 12 -1 43 5 23 9 63 8 89 0 32 3 48 12 48 8 0 8 3 -2 9 -12
8 -12 12 3 26 9 10 15 24 12 32 -11 28 22 71 69 88 25 10 45 22 45 27 0 5 5 6
10 3 6 -3 10 -1 10 6 0 8 14 10 45 7 49 -6 60 -1 44 19 -9 10 -8 13 4 13 9 0
18 -4 21 -9 7 -11 67 -3 81 10 5 5 21 9 36 9 15 0 30 4 33 9 4 5 25 12 49 16
23 4 96 20 162 37 66 17 138 34 160 38 22 4 90 20 150 35 273 66 448 104 486
105 31 0 79 -23 104 -50 15 -17 17 -31 12 -85 -4 -36 -2 -63 2 -61 9 6 33 -43
30 -60 -1 -5 0 -12 1 -16 5 -17 8 -29 9 -49 0 -11 6 -19 13 -17 7 3 23 -8 36
-24 13 -15 31 -28 40 -28 10 0 24 -5 32 -10 13 -9 13 -11 0 -20 -11 -7 -2 -10
33 -10 30 0 46 -4 42 -10 -4 -6 5 -10 20 -10 28 0 55 -20 55 -41 0 -8 10 -23
23 -34 28 -26 43 -52 57 -104 10 -40 33 -54 43 -28 3 6 3 -2 0 -20 -4 -23 0
-39 16 -59 11 -15 22 -41 22 -58 l1 -31 8 30 c6 23 8 25 9 8 0 -12 8 -29 18
-38 14 -14 14 -18 2 -26 -8 -5 1140 -9 2794 -9 l2807 0 0 3910 0 3910 -3657 0
-3656 0 54 -38 c30 -21 68 -46 85 -57 92 -58 153 -101 154 -107 0 -3 -32 -28
-71 -55 -92 -62 -101 -69 -182 -125 -37 -27 -72 -48 -79 -48 -8 0 -9 55 -4
215 l6 215 -672 0 -673 0 30 -25 c17 -14 46 -34 65 -45 19 -11 71 -45 115 -76
l80 -55 5 -235 c3 -130 2 -241 -2 -247 -5 -9 -10 -9 -20 1 -18 18 -33 15 -17
-4 11 -13 11 -17 -1 -24 -8 -5 -58 -39 -110 -75 -52 -36 -116 -80 -142 -98
-26 -18 -48 -36 -48 -42 0 -5 22 -24 48 -42 26 -18 100 -68 164 -112 64 -45
119 -81 122 -81 3 0 5 102 6 227 0 125 3 229 6 232 3 3 8 1 12 -4 4 -6 14 -14
23 -20 69 -42 189 -129 189 -136 0 -5 6 -9 13 -9 17 0 73 -47 65 -55 -3 -4
-18 1 -32 10 -24 16 -26 16 -20 1 3 -9 10 -16 15 -16 4 0 5 -8 2 -17 -7 -17
-5 -17 21 0 50 33 56 21 57 -120 0 -70 4 -146 8 -168 l9 -40 1 55 c1 35 4 50
10 42 5 -8 6 -35 4 -60 -3 -35 -2 -43 6 -32 6 8 11 47 12 85 l2 70 9 -62 c9
-60 19 -75 33 -53 4 6 14 5 27 -3 16 -9 22 -9 25 1 3 7 13 17 24 22 15 9 17 8
12 -6 -4 -12 -3 -15 5 -10 7 4 12 1 12 -8 0 -9 -6 -13 -13 -10 -8 3 -14 -2
-14 -11 0 -19 8 -19 33 0 37 28 43 19 47 -67 2 -63 3 -52 5 47 2 131 16 203
43 230 12 13 110 15 704 16 478 1 710 -2 755 -10 203 -36 430 -180 576 -367
95 -120 184 -339 204 -499 18 -144 -9 -335 -70 -490 -6 -16 -35 -70 -63 -120
-65 -114 -212 -266 -304 -314 -36 -20 -63 -41 -66 -53 -6 -20 12 -53 112 -208
23 -36 49 -78 59 -93 30 -50 93 -150 137 -217 23 -36 59 -92 80 -125 21 -33
57 -89 80 -125 45 -70 87 -137 154 -242 26 -41 41 -74 37 -84 -5 -14 -43 -15
-340 -12 l-335 3 -31 30 c-17 16 -46 57 -66 90 -19 33 -52 87 -73 120 -59 92
-109 173 -190 302 -78 125 -92 147 -163 258 -61 95 -79 131 -72 149 12 31 -31
36 -290 36 -244 0 -255 -1 -261 -20 -3 -10 -8 -224 -10 -475 -3 -418 -5 -458
-21 -476 -16 -18 -33 -19 -278 -19 -201 1 -265 4 -278 14 -16 12 -18 36 -18
254 l0 240 -57 34 c-31 18 -80 47 -108 63 -65 39 -100 64 -94 68 17 15 207
140 228 152 l27 14 -3 232 c-2 128 -6 235 -9 238 -3 3 -8 1 -12 -5 -4 -5 -47
-36 -97 -68 -49 -32 -99 -67 -111 -78 l-21 -19 -7 47 c-3 26 -6 134 -6 241 0
127 -3 192 -10 188 -6 -4 -10 -95 -10 -239 l0 -233 55 -39 c57 -41 68 -56 35
-47 -11 3 -20 8 -20 12 0 3 -9 12 -20 19 -18 11 -20 10 -20 -8 0 -11 7 -20 15
-20 11 0 15 -10 14 -32 -2 -31 -2 -31 -6 -5 -2 15 -9 27 -14 27 -5 0 -9 -77
-9 -185 0 -158 -2 -185 -15 -185 -8 0 -15 -5 -15 -10 0 -6 7 -13 15 -16 8 -4
15 -13 15 -21 0 -8 -5 -11 -10 -8 -6 3 -10 -1 -10 -10 0 -10 5 -13 13 -9 7 5
6 0 -3 -11 -9 -11 -10 -16 -2 -11 9 5 12 -4 12 -34 0 -25 -4 -39 -10 -35 -10
6 -15 -155 -10 -370 1 -90 -1 -102 -20 -123 -11 -12 -33 -22 -48 -22 -15 -1
-133 0 -262 0 -195 1 -238 3 -250 16 -12 11 -15 42 -15 139 0 69 -3 125 -6
125 -3 0 -22 -11 -42 -24 -19 -13 -38 -22 -41 -18 -9 8 -7 432 2 432 4 0 24
-11 45 -25 l37 -26 0 227 c0 125 -2 225 -4 223 -2 -2 -6 -78 -9 -169 -3 -91
-8 -173 -12 -182 -4 -11 -15 -15 -31 -12 -17 3 -24 0 -24 -10 0 -9 -10 -21
-22 -27 -13 -6 -32 -19 -43 -29 -11 -9 -40 -28 -65 -41 -81 -42 -80 -40 -80
-154 l0 -101 75 -45 c41 -24 88 -51 103 -59 l29 -15 -5 -190 c-2 -104 -6 -192
-8 -194 -1 -2 -15 6 -31 16 -15 11 -44 26 -63 33 -19 8 -37 16 -40 20 -3 3
-36 20 -75 38 -38 17 -64 32 -57 33 6 1 17 3 22 4 6 1 16 3 23 4 8 0 19 13 26
28 l13 28 -25 -23 c-24 -22 -28 -23 -256 -23 -127 0 -238 -2 -245 -5 -9 -3
-13 -15 -10 -27 5 -27 -7 -127 -15 -127 -4 0 -47 22 -96 49 -50 27 -125 68
-168 91 -43 22 -80 47 -84 55 -3 8 -13 15 -23 15 -10 0 -21 8 -23 18 -4 13 -5
12 -6 -5 0 -12 3 -23 9 -25 6 -2 5 -9 -1 -18 -8 -11 -12 -12 -16 -2 -7 17 -54
15 -78 -4 -15 -11 -17 -17 -7 -23 10 -6 9 -11 -4 -22 -12 -9 -15 -10 -10 -1 5
9 -5 12 -38 12 -45 0 -63 14 -28 23 9 2 -11 2 -45 -1 -54 -4 -62 -2 -66 14 -2
11 -4 -9 -3 -43 1 -35 -2 -63 -6 -63 -4 0 -8 8 -9 18 0 9 -3 12 -5 5 -3 -7 -1
-21 5 -31 8 -15 6 -23 -11 -38 -20 -19 -21 -19 -15 1 9 31 30 355 23 362 -3 3
-29 -7 -58 -22 -29 -16 -89 -48 -133 -72 -164 -88 -203 -104 -228 -92 -18 9
-20 9 -9 -2 18 -20 15 -29 -12 -29 -14 0 -28 -4 -31 -10 -3 -5 -10 -10 -16
-10 -5 0 -4 9 3 20 14 22 6 35 -15 23 -9 -4 -41 -6 -71 -5 -47 3 -56 7 -56 23
0 14 -12 22 -45 31 -50 13 -60 37 -17 39 27 2 27 2 2 6 -14 3 -28 9 -31 14 -3
6 -6 -6 -7 -27 -1 -20 -6 -61 -11 -92 -5 -32 -12 -83 -16 -114 -5 -46 -12 -62
-32 -78 -14 -11 -31 -20 -37 -20 -6 0 -42 -16 -81 -35 -38 -19 -76 -35 -83
-35 -7 0 -31 -8 -55 -19 -102 -44 -112 -47 -101 -29 4 7 3 8 -4 4 -7 -4 -12
-13 -12 -21 0 -31 -26 -23 -152 46 -73 39 -148 79 -165 87 -18 9 -33 20 -33
24 0 9 266 139 310 153 14 4 32 14 41 21 8 8 51 32 95 54 43 23 106 57 139 76
33 19 77 43 98 53 l39 18 -37 7 c-20 4 -40 5 -43 2 -3 -3 6 -7 19 -7 20 -1 21
-2 4 -6 -11 -3 -29 -13 -40 -23 -25 -23 -75 -37 -75 -21 0 6 10 11 23 11 12 0
31 10 41 21 18 22 18 22 -10 15 -16 -4 -37 -9 -46 -12 -20 -6 -25 11 -5 20 6
3 -9 3 -35 0 -43 -6 -48 -4 -48 14 0 11 -6 22 -12 25 -9 2 -13 29 -11 91 0 48
4 90 7 93 3 3 30 -13 60 -36 30 -22 58 -41 61 -41 3 0 31 -18 63 -39 31 -22
70 -45 85 -52 20 -9 27 -18 24 -31 -4 -14 -2 -16 13 -8 9 5 20 6 24 3 3 -3 6
2 6 13 0 10 7 106 15 213 9 107 13 196 11 199 -3 2 -24 -8 -48 -23 -101 -63
-156 -95 -198 -115 -24 -11 -47 -25 -50 -29 -9 -14 -127 -70 -134 -64 -3 4 -6
-64 -6 -149 0 -85 -3 -176 -6 -202 -6 -41 -10 -47 -28 -44 -12 2 -30 -5 -40
-14 -18 -16 -46 -18 -283 -18 -258 0 -262 0 -274 21 -8 16 -11 141 -10 437 1
229 -1 413 -4 410 -3 -3 -8 -45 -10 -94 -4 -92 -21 -216 -24 -177 0 13 -10 28
-21 35 -11 7 -20 18 -20 25 0 8 -15 13 -41 13 -24 0 -38 4 -34 10 8 12 3 13
-29 0 -24 -9 -37 -40 -17 -40 5 0 12 -7 15 -16 5 -12 2 -15 -11 -9 -10 4 -24
8 -31 8 -8 0 -10 8 -6 21 4 17 3 18 -6 6 -9 -13 -12 -13 -24 3 -7 9 -19 17
-27 17 -9 0 -10 3 -3 10 7 7 19 7 36 1 18 -7 25 -6 25 4 0 7 -8 10 -21 7 -21
-4 -21 -4 -1 11 25 21 12 22 -23 2 -57 -31 -57 -31 -26 -59 16 -14 43 -31 59
-37 17 -7 32 -16 35 -19 3 -4 37 -29 75 -55 86 -58 119 -84 114 -88 -10 -8
-143 -80 -242 -131 -60 -30 -115 -60 -123 -67 -17 -14 -17 -20 0 82 14 83 30
253 29 317 0 32 -24 61 -49 62 -6 0 -17 7 -25 16 -18 22 -88 56 -99 49 -5 -3
-7 0 -4 8 5 14 -12 28 -81 67 -39 22 -55 19 -55 -10 0 -10 -4 -21 -9 -24 -4
-3 -11 -34 -15 -68 -10 -91 -48 -295 -53 -280 -3 6 -8 12 -13 12 -12 0 -129
79 -160 107 -14 13 -30 23 -37 23 -6 0 -25 11 -41 25 -17 14 -35 25 -41 25 -6
0 -11 5 -11 10 0 6 3 10 8 10 6 0 50 27 202 123 30 19 69 42 85 51 17 8 41 24
54 34 l23 19 -33 21 c-19 12 -62 41 -96 64 -33 24 -87 61 -120 83 -86 58 -87
60 -84 119 4 60 17 430 16 433 -2 4 -148 -94 -181 -121 -18 -14 -34 -26 -38
-26 -3 0 -32 -18 -63 -40 -32 -22 -62 -40 -68 -40 -6 0 -9 83 -7 235 2 129 0
235 -4 235 -4 0 -22 -11 -40 -25 -18 -14 -37 -25 -43 -25 -6 0 -11 -4 -11 -8
0 -5 -19 -19 -42 -32 -24 -13 -45 -26 -48 -30 -6 -6 -158 -110 -162 -110 -2 0
-2 105 0 232 3 203 5 235 20 250 9 9 69 50 132 91 63 42 127 84 141 96 47 36
73 36 122 -1 25 -18 64 -45 88 -60 52 -32 219 -146 269 -183 19 -14 51 -36 70
-49 71 -46 175 -118 193 -134 9 -8 19 -13 22 -11 7 8 7 469 0 470 -7 2 -118
-70 -253 -163 -45 -32 -85 -58 -87 -58 -3 0 -5 106 -5 235 0 129 -3 235 -7
235 -9 0 -30 -14 -223 -142 -127 -86 -150 -98 -150 -79 0 5 -22 23 -48 39 -26
16 -55 36 -63 44 -8 9 -28 22 -45 31 -16 8 -38 24 -48 36 -11 12 -23 21 -28
21 -4 0 -26 13 -48 29 -46 33 -53 23 80 113 52 35 115 79 140 97 25 18 55 37
68 42 21 8 22 13 23 161 1 84 5 164 9 178 4 14 8 20 9 14 1 -14 56 -74 66 -74
4 0 5 15 2 34 -7 41 13 65 33 41 7 -8 19 -15 26 -15 8 0 14 -4 14 -10 0 -5 6
-10 13 -10 6 1 -4 14 -23 30 -21 18 -28 30 -19 30 8 0 25 -9 37 -20 12 -12 22
-16 22 -11 0 10 -50 48 -137 103 -29 18 -52 40 -52 48 0 8 28 33 62 56 34 22
110 73 169 112 59 40 110 72 113 72 3 0 5 -112 5 -249 l0 -249 23 -6 c12 -3
43 -20 69 -38 97 -67 248 -168 252 -168 2 0 4 107 5 238 l1 237 -43 29 c-23
16 -73 51 -112 78 -175 120 -191 133 -175 143 6 3 20 3 33 -1 18 -6 20 -5 10
8 -10 12 -6 16 22 27 19 7 35 16 35 20 0 10 79 46 86 39 3 -3 -11 -16 -30 -28
-20 -12 -36 -26 -36 -31 0 -15 47 -10 61 7 10 13 27 15 79 12 65 -4 65 -4 102
36 29 31 35 43 26 53 -6 7 -8 16 -5 19 6 6 70 -26 75 -38 2 -5 9 -8 15 -8 7 0
37 -18 67 -40 30 -22 69 -47 85 -56 17 -9 33 -22 37 -28 17 -26 21 12 28 289
2 56 4 71 9 50 7 -30 7 -30 15 12 4 24 12 45 17 49 5 3 9 9 9 15 0 5 -1021 9
-2705 9 l-2705 0 0 -3910z m10527 3159 c-9 -6 -17 -17 -17 -25 0 -8 -13 -17
-29 -20 -29 -6 -85 -54 -64 -54 6 0 13 6 16 13 3 9 7 9 20 -2 10 -7 17 -9 17
-3 0 6 8 9 18 8 9 -2 20 2 25 8 5 8 10 6 18 -4 8 -12 9 -9 5 13 -4 15 -2 27 4
27 5 0 10 -10 10 -22 0 -13 6 -41 14 -62 11 -31 15 -36 19 -20 2 10 5 -10 6
-46 l1 -65 -170 -2 c-123 -1 -170 2 -171 10 -1 7 -3 22 -4 35 -2 16 10 33 38
57 22 19 45 35 50 35 5 0 36 20 69 45 33 25 66 45 72 45 7 0 23 11 36 25 13
14 26 22 29 19 3 -3 -2 -10 -12 -15z m-6597 -629 c1 -256 1 -472 1 -481 -1 -9
-18 -24 -38 -35 -21 -10 -40 -22 -43 -25 -3 -3 -68 -48 -144 -99 l-139 -93 34
-28 c19 -16 57 -42 85 -58 28 -16 57 -36 65 -43 12 -12 56 -42 141 -96 16 -9
28 -20 28 -23 0 -3 -24 -21 -52 -39 -29 -19 -110 -71 -181 -118 l-127 -84 -33
27 c-17 14 -95 71 -172 125 l-140 99 -6 -155 c-10 -216 -25 -320 -52 -339 -33
-23 -39 -18 -35 30 2 25 0 45 -4 45 -5 0 -8 -18 -8 -41 0 -38 -17 -69 -38 -69
-6 0 -12 -7 -16 -15 -8 -21 -23 -19 -31 4 -3 11 -15 23 -26 26 -13 4 -19 15
-19 35 0 41 -36 48 -44 8 -8 -39 -26 -26 -26 18 0 24 5 34 15 34 21 0 19 17
-5 42 -25 27 -26 48 -1 48 12 0 21 -8 24 -22 4 -23 4 -23 6 0 1 16 -6 26 -18
29 -22 6 -36 51 -26 83 5 14 1 27 -12 38 -26 22 -36 62 -17 62 10 0 14 12 14
40 0 37 -2 40 -27 41 -17 1 -21 3 -10 6 12 3 17 15 17 44 0 26 4 39 14 39 7 0
16 9 19 20 3 11 12 20 21 20 12 0 16 -10 16 -35 0 -34 1 -35 40 -35 29 0 40 4
40 15 0 8 -4 15 -10 15 -5 0 -10 23 -10 50 0 28 5 50 10 50 6 0 10 5 10 10 0
6 -7 10 -15 10 -8 0 -15 9 -15 20 0 11 7 20 15 20 8 0 15 7 15 15 0 8 -7 15
-15 15 -8 0 -15 6 -15 14 0 8 -6 17 -12 19 -8 3 -6 6 5 6 11 1 17 9 17 26 0
14 5 25 10 25 6 0 10 -7 10 -15 0 -13 2 -14 14 -3 12 11 11 14 -4 20 -21 8
-60 -1 -60 -13 0 -5 -6 -9 -14 -9 -8 0 -28 -11 -44 -25 -17 -14 -33 -25 -37
-25 -4 0 -39 -22 -78 -48 -40 -27 -108 -72 -152 -100 -44 -29 -91 -60 -104
-69 -13 -10 -29 -18 -35 -18 -7 0 -9 73 -7 230 1 127 4 231 6 233 3 3 86 -48
258 -160 39 -26 75 -47 78 -47 4 -1 11 95 15 212 4 116 8 215 8 219 2 17 18
20 33 6 10 -9 41 -28 68 -44 28 -15 59 -32 70 -38 10 -6 26 -17 34 -24 26 -25
62 -45 68 -39 3 4 -6 11 -20 18 -14 6 -23 17 -21 24 3 7 1 16 -5 20 -20 12
-13 83 10 106 13 13 19 28 15 42 -3 12 -1 28 3 36 7 11 11 9 21 -9 l12 -22 15
21 c22 33 33 79 20 84 -7 2 -9 8 -4 12 4 5 9 6 12 3 11 -10 21 -361 11 -376
-8 -14 22 -49 31 -36 5 6 33 27 63 47 30 20 64 43 75 50 122 85 187 127 195
127 22 0 8 29 -22 49 -109 70 -163 113 -160 129 2 14 1 14 -7 3 -7 -11 -19 -6
-61 27 -29 23 -57 42 -61 42 -5 0 -9 7 -9 15 0 12 4 13 19 6 10 -6 22 -7 26
-3 4 4 5 -2 3 -13 -2 -11 2 -20 10 -19 6 1 21 2 32 3 11 0 20 7 20 15 0 7 7
19 16 26 13 11 16 10 21 -8 3 -15 13 -22 28 -22 19 0 25 8 36 49 9 36 16 47
28 44 11 -3 21 9 34 39 9 24 17 51 17 60 0 30 40 27 48 -4 1 -5 2 -89 2 -188
0 -113 4 -180 10 -180 6 0 10 31 11 73 1 84 17 142 18 65 l1 -48 36 0 c28 0
37 5 41 20 5 19 41 41 98 61 15 5 16 7 3 8 -11 1 -15 7 -11 21 6 21 36 35 53
25 5 -3 10 -4 10 -2 0 8 -118 97 -129 97 -5 0 -14 6 -18 14 -4 7 -35 32 -68
55 -64 45 -93 78 -58 67 14 -4 49 15 124 67 57 40 125 85 152 100 26 16 47 35
47 44 0 11 3 13 9 8 6 -6 10 -197 11 -475z m-913 138 c76 -51 140 -94 143 -98
3 -3 17 -11 33 -19 33 -17 35 -36 5 -52 -13 -6 -87 -55 -166 -108 -150 -101
-152 -102 -192 -120 -22 -10 -176 -112 -239 -158 -37 -28 -90 -57 -95 -52 -2
2 -2 105 1 228 5 178 9 221 18 207 7 -9 17 -16 24 -16 6 0 11 -5 11 -11 0 -5
4 -8 9 -4 5 3 22 -6 37 -20 15 -14 33 -25 40 -25 8 0 14 -4 14 -10 0 -5 5 -10
11 -10 7 0 34 -16 60 -35 27 -19 52 -35 56 -35 4 0 17 -10 30 -22 13 -12 25
-20 27 -17 2 2 8 109 12 237 4 127 10 232 15 232 4 0 70 -41 146 -92z m-474
-1147 c35 -20 133 -88 153 -106 6 -5 39 -26 72 -45 75 -42 85 -64 46 -96 -16
-13 -35 -23 -41 -24 -7 0 -13 -4 -13 -10 0 -5 -7 -10 -16 -10 -9 0 -37 -15
-63 -33 -25 -18 -59 -39 -76 -47 -16 -8 -32 -17 -35 -20 -14 -14 -91 -60 -101
-60 -10 0 -9 23 7 155 2 17 6 94 10 173 4 78 11 142 15 142 5 0 24 -9 42 -19z
m1437 -11 c3 -4 30 -23 60 -43 30 -19 91 -62 135 -94 44 -32 94 -67 112 -78
36 -23 166 -115 266 -188 37 -27 67 -57 67 -66 1 -42 -35 -281 -42 -281 -5 0
-13 12 -18 26 -8 20 -16 25 -38 23 -15 -2 -32 -1 -37 3 -6 3 -35 11 -65 18
-30 7 -60 20 -66 28 -9 12 -18 10 -61 -11 -48 -25 -50 -28 -59 -79 -8 -46 -12
-53 -34 -57 -24 -3 -25 -3 -7 17 18 20 18 20 -2 15 -12 -3 -21 -9 -21 -13 0
-23 14 -40 34 -41 17 -1 18 -2 3 -6 -10 -3 -24 1 -32 7 -10 9 -19 8 -37 -1
-21 -11 -22 -11 -9 5 20 24 5 33 -19 11 -11 -10 -23 -16 -26 -13 -6 7 49 48
63 48 6 0 18 10 29 22 21 24 8 17 -176 -91 -135 -79 -139 -81 -145 -70 -4 5
-4 12 -2 17 3 4 10 72 16 152 6 80 14 164 17 187 5 38 3 41 -16 36 -11 -3 -20
-11 -20 -19 0 -8 6 -11 16 -7 14 5 14 3 3 -16 -8 -11 -21 -21 -29 -21 -17 0
-70 45 -70 60 0 11 -64 -7 -68 -20 -6 -18 -42 -11 -42 8 0 11 -13 23 -35 31
-19 7 -35 17 -35 22 0 6 -4 7 -10 4 -5 -3 -10 -1 -10 4 0 6 -4 11 -10 11 -5 0
-10 -17 -10 -37 0 -36 -28 -144 -29 -115 -1 10 -9 12 -29 7 -23 -5 -33 0 -55
25 -29 33 -42 37 -51 18 -5 -10 -7 -10 -12 0 -3 6 -21 12 -40 12 -24 0 -34 5
-34 15 0 8 -9 15 -21 15 -32 0 -59 19 -60 43 -1 12 -6 1 -11 -25 -8 -36 -15
-48 -28 -48 -22 0 -25 5 -34 45 -6 27 -3 32 31 48 21 10 57 30 80 45 95 60
269 174 288 187 19 13 26 11 75 -25 30 -22 65 -49 77 -59 13 -11 40 -29 60
-42 21 -13 40 -26 43 -29 10 -13 99 -70 108 -70 5 0 10 36 11 79 1 43 4 88 6
100 2 11 5 84 6 160 2 139 2 140 23 129 12 -6 23 -14 26 -18z m190 -1157 c-1
-28 -34 -183 -55 -258 -13 -49 -25 -100 -25 -112 0 -13 -3 -23 -7 -23 -10 0
-70 37 -220 136 -36 24 -71 45 -77 47 -19 8 16 33 87 62 37 16 70 32 73 37 3
4 33 22 67 38 34 17 80 42 102 55 43 25 55 29 55 18z m5040 -505 c0 -52 -19
-108 -21 -63 l0 20 -9 -20 c-5 -11 -9 -14 -9 -7 -1 20 -22 14 -28 -8 -3 -11
-16 -23 -29 -26 -13 -3 -24 -10 -24 -14 0 -5 -9 -12 -20 -15 -11 -3 -20 -15
-20 -26 0 -19 12 -23 60 -21 l25 2 -24 -10 c-19 -8 -37 -4 -95 24 -134 64
-144 67 -149 48 -4 -13 -5 -12 -6 4 -1 17 14 29 72 57 39 20 99 52 132 71 42
25 73 35 103 36 l42 0 0 -52z m-4950 -478 c0 -5 -8 -10 -17 -10 -15 0 -16 -2
-3 -10 14 -9 13 -11 -9 -14 -5 0 -13 -5 -18 -10 -5 -5 -3 -6 5 -2 20 12 14
-17 -13 -56 -14 -21 -30 -49 -35 -63 l-10 -25 -21 21 c-17 17 -19 23 -8 30 9
6 15 3 17 -6 4 -17 22 -10 22 8 0 7 -7 20 -15 31 -13 17 -15 17 -30 2 -18 -17
-50 -21 -59 -7 -7 11 -136 11 -136 -1 0 -5 -6 -8 -12 -7 -7 1 -25 -4 -41 -11
-21 -10 -30 -11 -39 -2 -9 9 -8 12 5 12 9 0 103 29 209 65 210 70 208 70 208
55z m-540 -825 c327 -20 531 -35 555 -40 14 -3 24 -17 32 -47 6 -24 10 -44 9
-45 -1 -1 -54 -6 -117 -9 -127 -8 -197 -22 -117 -23 26 -1 96 -7 155 -15 59
-8 164 -20 233 -27 69 -7 193 -19 275 -28 l150 -16 -2 -30 c-1 -16 -8 -41 -15
-54 -12 -22 -16 -23 -78 -17 -36 3 -186 17 -335 31 -148 13 -322 29 -385 36
-98 10 -122 9 -159 -4 -54 -18 -42 -23 74 -32 44 -3 143 -15 220 -25 77 -11
210 -29 295 -40 171 -23 230 -36 230 -50 0 -15 -29 -12 -163 14 -68 14 -222
36 -343 50 -120 14 -246 30 -279 36 -93 15 -105 14 -105 -14 0 -42 -20 -85
-37 -79 -9 4 -19 -1 -25 -11 -8 -14 -12 -15 -24 -5 -12 10 -22 10 -50 0 -18
-7 -39 -9 -45 -5 -8 4 -9 3 -5 -4 5 -8 -4 -13 -26 -14 -66 -3 -94 -4 -125 -6
-17 -1 -38 -9 -47 -17 -8 -8 -28 -15 -45 -15 -33 0 -39 -8 -19 -28 10 -10 8
-12 -7 -11 -11 1 -31 1 -45 0 -20 -1 -22 -3 -10 -11 12 -8 10 -10 -10 -10 -14
0 -34 -6 -45 -14 -26 -17 -74 -26 -81 -14 -3 5 -13 3 -21 -4 -9 -7 -59 -18
-112 -24 -53 -7 -80 -12 -61 -13 40 -1 364 30 550 53 203 25 295 33 303 29 4
-2 7 -26 7 -53 0 -43 3 -48 25 -54 40 -10 29 -26 -17 -26 -24 -1 -90 -7 -148
-15 -188 -25 -342 -44 -525 -64 -229 -26 -317 -41 -290 -51 11 -4 28 -4 37 1
23 12 78 11 78 -1 0 -5 7 -10 15 -10 8 0 15 -7 15 -15 0 -14 -11 -19 -37 -16
-20 3 -26 -20 -8 -33 14 -10 17 -23 13 -64 -4 -40 -2 -52 8 -52 8 0 14 5 14
10 0 6 15 10 33 10 24 0 41 8 62 30 16 16 53 49 82 72 29 24 53 50 53 59 0 9
11 21 25 27 14 6 25 16 25 21 0 6 9 8 20 6 11 -2 18 0 15 6 -7 10 16 10 60 -1
27 -7 27 -8 6 -9 -29 -1 -18 -16 12 -16 13 0 27 -10 34 -25 11 -22 10 -27 -8
-42 -12 -10 -17 -18 -13 -18 5 -1 -2 -7 -16 -15 -14 -8 -19 -14 -11 -15 10 0
11 -3 2 -14 -9 -11 -9 -15 2 -18 23 -5 1 -68 -23 -68 -11 0 -20 -4 -20 -10 0
-5 5 -10 10 -10 6 0 10 -7 10 -15 0 -8 -5 -15 -10 -15 -6 0 -10 -6 -9 -12 3
-28 -2 -36 -28 -41 -16 -3 -68 -15 -117 -26 -50 -11 -133 -23 -185 -26 -205
-13 -368 -41 -398 -68 l-23 -20 0 74 c0 51 -6 87 -19 116 -11 23 -17 43 -15
46 9 9 -39 41 -84 57 -46 17 -90 16 -227 -4 -128 -18 -181 -26 -192 -26 -9 0
-13 18 -13 59 0 52 3 61 25 75 21 14 25 25 25 61 0 52 12 50 -147 31 -65 -8
-167 -18 -227 -22 -105 -6 -108 -7 -84 -22 l26 -15 -21 -44 c-22 -45 -39 -58
-30 -23 7 26 -13 26 -27 1 -13 -25 -13 -108 0 -116 21 -13 8 -20 -33 -17 -38
3 -48 0 -74 -26 -37 -38 -63 -125 -63 -214 l0 -66 -64 3 c-35 1 -72 7 -82 13
-10 5 -46 12 -79 16 -79 9 -136 25 -156 45 -11 11 -20 47 -27 111 -11 101 -38
177 -70 197 -10 6 -40 14 -65 18 -26 4 -52 13 -58 21 -6 8 -18 14 -25 14 -16
0 -20 76 -5 99 6 9 38 15 105 19 91 4 123 15 74 25 -19 4 -18 4 5 6 23 1 28 5
25 23 -3 21 -11 24 -107 35 -57 6 -108 16 -114 22 -12 12 10 330 24 347 5 6
27 14 48 18 43 7 111 71 111 105 0 35 23 40 186 45 87 2 265 13 394 25 129 11
402 32 605 46 204 14 487 34 630 46 143 11 313 22 378 24 66 2 121 6 125 9 9
10 155 7 402 -9z m2675 -15 c72 -6 141 -12 155 -15 14 -2 138 -12 275 -20 138
-9 254 -17 260 -19 5 -1 -30 -6 -78 -9 -51 -4 -95 -3 -106 2 -12 7 -21 7 -28
0 -14 -14 -216 -34 -693 -69 -228 -16 -436 -33 -463 -36 -39 -5 -46 -3 -41 9
4 11 -4 16 -33 20 -50 7 -150 3 -159 -6 -12 -12 -22 -8 -26 10 -2 13 -6 10
-15 -10 -12 -26 -11 -27 17 -27 16 0 32 -4 35 -10 4 -6 -14 -10 -47 -10 -29 0
-75 -2 -103 -4 -27 -2 -38 -2 -22 1 15 2 27 8 27 14 0 5 13 9 30 9 37 0 56 30
40 61 -6 11 -9 25 -6 32 2 7 5 3 6 -8 1 -20 1 -20 16 0 12 17 16 18 24 5 5 -8
11 -12 14 -9 3 3 -3 14 -13 25 -18 20 -17 20 188 38 113 10 275 22 360 27 85
5 157 12 160 15 3 3 26 3 51 0 25 -3 104 -10 175 -16z m3145 -99 l75 -7 -80
-8 c-44 -4 -108 -11 -142 -15 -34 -4 -142 -3 -240 3 -195 12 -199 9 52 35 88
9 184 7 335 -8z m950 -69 l105 -7 -135 -18 c-74 -10 -142 -18 -150 -19 -23 0
-365 24 -368 27 -1 1 55 7 125 14 71 7 144 15 163 19 19 4 62 4 95 -1 33 -4
107 -11 165 -15z m2420 -91 c69 -6 186 -15 260 -21 187 -14 595 -48 714 -60
94 -9 115 -14 105 -25 -5 -4 -558 39 -629 50 -19 3 -215 19 -434 36 -220 16
-404 32 -408 35 -26 16 16 19 134 8 73 -7 189 -17 258 -23z m-4964 -6 c110 -8
287 -22 394 -30 305 -23 523 -46 545 -56 11 -5 130 -17 264 -27 188 -13 245
-20 249 -31 4 -12 -15 -13 -109 -8 -166 9 -393 36 -397 47 -2 6 -7 8 -11 6 -7
-5 -223 13 -486 40 -88 9 -279 26 -424 37 -203 17 -265 25 -269 36 -3 10 2 12
20 8 14 -4 115 -14 224 -22z m4402 -213 l3 -102 -34 0 c-50 0 -57 13 -57 116
0 100 3 105 55 94 l30 -6 3 -102z m-4815 85 c15 -10 17 -27 15 -107 l-3 -95
-35 0 -35 0 -3 85 c-2 47 0 95 3 108 6 25 32 29 58 9z m-313 -167 c0 -23 5
-31 23 -35 26 -6 265 -35 350 -42 31 -3 57 -9 57 -13 0 -8 -111 -24 -279 -40
-128 -12 -134 -12 -126 1 12 18 -4 58 -28 71 -12 7 -56 15 -97 18 -67 4 -75 7
-78 27 -3 19 3 22 55 28 32 3 67 7 78 9 11 2 26 4 33 5 7 0 12 -11 12 -29z
m1798 -92 l3 -118 -34 0 c-18 0 -38 5 -45 12 -13 13 -17 209 -5 222 4 4 23 6
43 4 l35 -3 3 -117z m810 -4 l-3 -109 -30 0 -30 0 0 110 c0 108 0 109 25 116
14 3 29 3 33 -1 4 -4 6 -56 5 -116z m4357 106 c11 -10 15 -37 15 -116 l0 -104
-48 0 c-26 0 -53 5 -60 12 -13 13 -17 209 -4 222 10 11 80 0 97 -14z m-7266
-27 c-8 -2 -116 -15 -240 -28 -123 -14 -280 -31 -349 -40 -127 -15 -456 -53
-533 -61 -23 -2 -91 -10 -152 -18 -189 -24 -351 -39 -365 -34 -8 2 69 14 171
26 101 12 261 30 354 41 712 84 1177 131 1114 114z m174 -63 c-14 -12 -111
-29 -263 -45 -80 -9 -188 -22 -240 -30 -52 -8 -203 -26 -335 -40 -132 -14
-283 -32 -335 -40 -52 -8 -203 -26 -335 -40 -132 -14 -286 -32 -341 -40 -121
-18 -114 -17 -114 -5 0 6 7 10 16 10 9 0 18 9 21 19 4 16 17 21 71 26 37 4
112 13 167 21 55 8 240 30 410 49 171 19 364 42 430 50 200 25 575 66 663 72
62 4 82 3 82 -7 0 -9 4 -9 13 -2 22 19 112 21 90 2z m-3083 -103 c25 -7 55
-18 67 -25 25 -14 77 -17 54 -3 -8 5 -9 11 -3 15 10 6 279 -18 377 -35 33 -5
78 -12 100 -15 22 -3 54 -9 72 -14 26 -6 33 -5 35 8 3 11 6 8 9 -10 4 -19 -1
-33 -22 -56 l-27 -29 -134 23 c-462 79 -480 83 -492 100 -17 23 -163 34 -178
13 -8 -12 -9 -11 -6 1 4 15 58 39 88 39 8 0 35 -5 60 -12z m3210 -238 c-1
-121 0 -222 2 -224 2 -2 23 -8 48 -13 l45 -11 -48 4 c-26 2 -54 8 -61 14 -14
12 -49 4 -41 -9 9 -15 -34 -18 -54 -4 -12 9 -22 11 -26 4 -3 -5 -11 -10 -18
-10 -6 0 4 15 21 33 41 42 72 123 72 185 -1 80 -49 159 -110 177 -28 8 -50 24
-50 35 0 10 53 20 138 26 36 3 68 7 71 9 2 3 6 5 8 5 2 0 3 -99 3 -221z m-404
-172 c9 -18 26 -43 37 -57 12 -14 5 -9 -15 11 -29 29 -47 38 -87 43 -28 4 -53
11 -56 16 -3 5 -15 7 -26 5 -15 -3 -19 0 -15 11 3 9 6 28 6 44 0 27 4 29 63
43 l62 14 7 -49 c5 -27 15 -63 24 -81z m9449 -542 c14 -13 25 -32 25 -42 0
-10 7 -26 15 -37 14 -19 15 -15 -26 -111 -7 -16 -13 -32 -14 -35 -4 -20 -28
-49 -36 -44 -5 3 -19 -6 -30 -20 -12 -15 -31 -26 -44 -26 -13 0 -25 -4 -27 -8
-9 -22 -156 -84 -231 -98 -21 -3 -41 -12 -44 -20 -2 -7 -30 -18 -61 -25 -32
-6 -65 -15 -75 -21 -10 -5 -30 -11 -45 -13 -55 -9 -63 -12 -83 -28 -11 -10
-25 -15 -30 -11 -6 3 -21 2 -32 -4 -37 -18 -191 -52 -250 -55 -47 -3 -56 0
-60 15 -3 10 -12 18 -21 18 -9 0 -16 4 -16 9 0 5 -9 13 -21 16 -15 5 -19 13
-16 27 3 12 -2 26 -13 36 -13 11 -16 20 -9 28 6 8 5 13 -6 18 -20 7 -19 35 2
43 18 7 52 37 165 146 47 45 78 67 94 67 13 0 24 4 24 9 0 5 15 11 33 14 75
13 103 20 112 27 6 3 37 12 70 19 33 7 76 19 95 26 20 7 58 16 85 20 28 4 65
14 84 21 18 8 44 14 57 14 12 0 25 4 28 9 3 5 20 11 38 14 18 3 51 10 73 15
22 5 68 10 103 11 54 1 66 -2 87 -24z"/>
<path d="M5432 7808 c4 -12 40 -36 88 -60 14 -7 46 -27 72 -45 26 -18 50 -33
54 -33 3 0 12 -7 20 -15 27 -26 42 -19 35 18 -4 17 -4 50 1 72 15 80 24 75
-133 75 -105 0 -140 -3 -137 -12z"/>
<path d="M8478 7602 c-1 -4 -70 -55 -153 -112 -82 -56 -154 -106 -158 -110 -5
-4 16 -22 45 -41 29 -18 55 -36 58 -40 15 -19 61 -32 107 -30 53 2 53 2 53
-29 0 -30 0 -30 -25 -14 -14 9 -28 14 -31 11 -7 -7 67 -57 85 -57 11 0 11 3
-3 13 -17 12 -17 14 -1 27 16 13 16 15 -2 21 -16 7 -16 8 0 8 13 1 17 11 19
49 l1 47 6 -50 c5 -42 7 -46 13 -25 11 36 10 340 -1 340 -5 0 -11 -4 -13 -8z"/>
<path d="M5300 6865 c-19 -13 -40 -28 -45 -33 -6 -5 -24 -17 -40 -28 -17 -10
-32 -21 -35 -24 -3 -4 -35 -26 -72 -50 -38 -24 -68 -47 -68 -50 0 -10 71 -51
79 -45 5 2 11 -4 14 -15 6 -22 6 -22 -59 22 -43 29 -79 39 -56 16 6 -6 27 -20
46 -32 19 -12 74 -48 122 -81 115 -80 157 -105 163 -99 3 3 -1 10 -9 15 -11 8
-12 12 -2 16 9 3 12 55 12 209 0 112 -3 204 -7 204 -5 -1 -24 -12 -43 -25z"/>
<path d="M5624 6595 c-4 -8 -10 -15 -15 -15 -6 0 -64 -36 -129 -81 l-120 -81
2 -192 3 -191 2 193 c3 153 6 192 17 192 7 0 19 7 26 15 20 24 99 55 141 55
l39 0 2 -67 1 -68 6 55 6 55 8 -65 c4 -36 7 -109 6 -163 0 -83 -3 -98 -15 -93
-8 3 -12 2 -9 -3 3 -6 -12 -22 -32 -37 -21 -15 -42 -32 -48 -37 -18 -17 69 34
96 56 l27 22 4 233 c4 208 0 264 -18 217z"/>
<path d="M10425 6260 c-24 -26 -14 -35 39 -31 34 2 53 -4 85 -26 22 -15 40
-30 41 -33 0 -3 -12 -11 -27 -18 -16 -6 -50 -29 -77 -51 -28 -22 -53 -38 -57
-35 -15 9 -16 -30 -11 -361 4 -291 7 -343 20 -358 15 -17 40 -18 392 -15 332
3 380 6 422 22 115 44 208 227 208 411 0 89 -12 140 -54 229 -43 91 -120 170
-209 214 -66 33 -84 52 -49 52 14 0 15 2 2 10 -9 6 -155 10 -361 10 -334 0
-347 -1 -364 -20z"/>
<path d="M9788 6168 l-3 -72 -60 -43 c-33 -23 -73 -52 -90 -62 -70 -47 -90
-71 -60 -71 8 0 15 -4 15 -10 0 -5 7 -10 15 -10 8 0 15 -4 15 -8 0 -5 25 -26
55 -48 31 -21 65 -47 77 -56 12 -10 25 -18 30 -18 4 0 8 -29 8 -65 0 -50 -4
-66 -17 -74 -20 -11 -4 -15 21 -5 14 5 16 42 16 310 0 187 -4 304 -10 304 -5
0 -10 -32 -12 -72z"/>
<path d="M4950 5659 c-19 -15 -49 -36 -67 -46 -64 -36 -173 -114 -173 -124 0
-5 -6 -9 -14 -9 -19 0 -40 -26 -26 -35 5 -3 10 1 10 9 0 12 11 16 45 16 25 0
45 -4 45 -10 0 -5 20 -10 45 -10 43 0 45 -1 45 -30 0 -29 2 -30 44 -30 45 0
45 0 54 43 8 35 10 21 12 -88 l3 -130 9 140 c4 77 7 183 6 236 l-3 96 -35 -28z"/>
<path d="M6614 4879 c-4 -13 -8 -27 -9 -31 0 -3 -3 -9 -7 -13 -4 -4 -3 -18 3
-32 12 -31 11 -42 -1 -23 -6 10 -10 11 -10 3 0 -7 -8 -13 -19 -13 -22 0 -48
27 -36 38 4 4 10 1 12 -5 3 -7 12 -13 20 -13 13 0 13 3 2 16 -10 13 -10 17 2
25 8 5 10 9 6 9 -9 0 -70 -33 -140 -76 l-47 -30 36 -29 c21 -17 45 -34 55 -40
10 -5 66 -43 124 -82 98 -67 135 -87 121 -64 -3 5 -2 45 2 89 l8 81 -49 98
c-57 116 -63 122 -73 92z"/>
<path d="M7770 4715 c-6 -8 -41 -30 -76 -50 -34 -19 -66 -39 -69 -44 -3 -5
-26 -19 -51 -31 -26 -13 -54 -36 -64 -54 -10 -17 -25 -38 -33 -46 -18 -18
-102 -167 -111 -196 -3 -11 -21 -37 -40 -57 l-34 -37 -113 0 c-63 0 -121 -5
-129 -10 -10 -7 30 -10 121 -10 123 0 139 2 163 21 14 11 26 25 26 30 0 16
118 250 122 241 1 -4 26 -22 53 -39 28 -18 64 -42 80 -53 63 -43 157 -101 161
-98 5 6 17 448 12 448 -3 0 -11 -7 -18 -15z"/>
<path d="M8650 4152 c0 -7 5 -12 10 -12 7 0 7 -6 0 -19 -12 -23 -14 -161 -2
-161 4 0 43 21 86 46 l78 46 -33 24 c-19 13 -41 22 -50 19 -10 -3 -20 -1 -24
4 -4 7 1 9 12 5 16 -5 15 -3 -2 11 -19 15 -20 15 -23 -19 -4 -44 -22 -48 -23
-6 -2 45 -3 48 -16 62 -10 9 -13 9 -13 0z"/>
</g>
</svg>
