<?xml version="1.0" standalone="no"?>
<!DOCTYPE svg PUBLIC "-//W3C//DTD SVG 20010904//EN"
 "http://www.w3.org/TR/2001/REC-SVG-20010904/DTD/svg10.dtd">
<svg version="1.0" xmlns="http://www.w3.org/2000/svg"
 width="2560.000000pt" height="1707.000000pt" viewBox="0 0 2560.000000 1707.000000"
 preserveAspectRatio="xMidYMid meet">
<metadata>
Created by potrace 1.15, written by Peter Selinger 2001-2017
</metadata>
<g transform="translate(0.000000,1707.000000) scale(0.100000,-0.100000)"
fill="#000000" stroke="none">
<path d="M931 17044 c-12 -15 -21 -33 -21 -40 0 -8 -4 -14 -10 -14 -5 0 -12
-11 -16 -25 -3 -14 -10 -25 -14 -25 -5 0 -19 -17 -31 -37 -13 -21 -34 -48 -46
-61 -13 -13 -23 -27 -23 -31 0 -5 -9 -11 -20 -14 -13 -3 -18 -10 -14 -21 4
-10 1 -16 -9 -16 -8 0 -17 -7 -21 -15 -3 -8 -11 -15 -18 -15 -14 0 -44 -40
-40 -52 1 -5 -1 -7 -5 -6 -9 3 -43 -23 -94 -74 -21 -21 -43 -38 -49 -38 -5 0
-10 -7 -10 -16 0 -8 -5 -12 -10 -9 -6 3 -13 -1 -16 -9 -3 -9 -12 -16 -20 -16
-8 0 -14 -7 -14 -15 0 -8 -4 -15 -8 -15 -13 0 -112 -99 -112 -111 0 -6 -7 -9
-15 -5 -9 3 -15 0 -15 -9 0 -7 -9 -17 -20 -20 -11 -3 -20 -11 -20 -16 0 -5
-16 -19 -35 -30 -19 -12 -35 -27 -35 -33 0 -18 -33 -54 -45 -50 -5 2 -25 -17
-43 -41 -18 -25 -41 -45 -51 -45 -27 0 -31 -25 -31 -229 0 -162 2 -182 15
-171 10 9 15 9 15 1 0 -19 17 -12 23 9 5 21 41 28 52 10 5 -8 11 -7 21 1 8 6
25 9 39 7 14 -3 28 -2 30 2 3 4 21 11 41 15 27 5 41 2 55 -11 11 -9 22 -14 25
-11 4 3 15 2 25 -4 13 -6 25 -6 39 1 17 9 20 8 20 -9 0 -11 -6 -21 -12 -24 -7
-2 16 -9 51 -15 44 -8 68 -8 77 -1 8 6 14 7 18 0 4 -5 -4 -17 -16 -26 -21 -15
-21 -16 -3 -13 15 2 20 -3 20 -20 0 -12 7 -27 15 -32 12 -8 11 -10 -7 -10 -18
0 -23 -6 -23 -25 0 -14 5 -25 10 -25 6 0 10 -7 10 -15 0 -18 -17 -20 -22 -3
-7 20 -40 -19 -35 -40 4 -16 5 -16 6 1 1 21 31 23 31 2 0 -8 -4 -15 -10 -15
-15 0 -12 -48 3 -53 8 -3 6 -10 -9 -23 -11 -11 -26 -34 -33 -51 -8 -18 -16
-33 -20 -33 -11 0 -39 -54 -34 -67 3 -7 -3 -13 -14 -14 -10 0 -13 -3 -5 -6 16
-6 16 -23 -1 -23 -7 0 -25 -11 -40 -25 -27 -26 -36 -42 -17 -30 16 10 12 -11
-5 -25 -8 -7 -15 -19 -15 -26 0 -8 -6 -13 -13 -12 -6 2 -11 -5 -11 -14 2 -20
-11 -24 -21 -8 -10 16 -25 12 -19 -5 4 -9 0 -15 -10 -15 -9 0 -16 8 -16 19 0
11 -4 23 -10 26 -6 4 -10 -7 -10 -24 0 -17 -4 -31 -10 -31 -5 0 -10 5 -10 10
0 13 -43 13 -57 -1 -12 -12 -53 4 -53 21 0 6 -7 10 -16 10 -8 0 -12 5 -9 10 3
6 -1 10 -9 10 -9 0 -16 -4 -16 -10 0 -5 -7 -10 -15 -10 -13 0 -15 -844 -15
-7535 l0 -7535 2228 0 2228 0 13 37 c12 34 81 116 81 96 0 -4 7 3 16 15 23 34
78 52 155 52 81 0 150 -21 294 -90 56 -27 137 -61 180 -77 l80 -28 10163 -3
10162 -2 -2 3487 -3 3487 -40 3 c-22 2 -103 12 -180 23 -77 11 -160 22 -185
25 -57 7 -229 32 -345 50 -49 8 -110 17 -135 20 -25 3 -56 7 -70 10 -40 8
-254 35 -390 50 -124 13 -354 45 -480 65 -36 6 -126 17 -200 26 -74 8 -169 19
-210 24 -41 5 -111 14 -155 19 -44 5 -87 12 -95 15 -8 3 -62 10 -120 16 -58 5
-136 15 -175 20 -38 6 -216 28 -395 51 -179 22 -368 46 -420 54 -52 8 -117 17
-143 20 -43 4 -113 14 -332 45 -38 5 -110 15 -160 21 -111 13 -146 18 -165 24
-14 5 -57 10 -425 54 -93 12 -189 25 -213 31 -23 5 -58 10 -78 10 -19 0 -99
11 -177 24 -78 14 -198 30 -267 36 -152 14 -453 46 -552 60 -40 6 -91 12 -113
15 -22 3 -85 12 -140 20 -55 9 -157 20 -226 25 -69 6 -172 17 -230 25 -57 9
-135 20 -174 26 -38 5 -78 14 -87 19 -10 6 -30 10 -46 10 -15 0 -86 11 -158
25 -71 14 -182 29 -245 35 -294 25 -309 27 -309 41 0 6 -13 9 -29 7 -16 -1
-36 4 -45 11 -12 10 -16 10 -16 1 0 -14 -97 -4 -117 12 -7 5 -21 7 -33 3 -12
-4 -27 -2 -34 4 -7 6 -22 9 -34 6 -12 -2 -22 0 -22 4 0 12 -64 24 -135 26 -90
2 -202 25 -221 46 -16 17 -15 20 14 46 30 28 36 31 71 36 11 2 25 8 33 14 7 6
47 15 88 18 41 4 81 13 89 19 7 6 32 16 55 23 22 6 32 11 21 12 -12 1 -26 6
-33 13 -7 7 -12 9 -12 5 0 -4 -18 4 -40 18 -23 14 -46 23 -52 19 -6 -4 -8 -3
-5 3 3 5 2 27 -4 48 -8 28 -8 40 2 45 9 6 6 14 -10 31 -20 22 -20 24 -4 31 10
3 12 7 6 7 -7 1 -13 8 -13 17 0 10 6 14 14 11 8 -3 16 2 18 11 6 22 -16 95
-25 86 -14 -14 -7 42 8 63 14 20 14 23 -5 33 -14 8 -20 21 -20 46 0 19 -4 33
-9 30 -5 -3 -12 1 -15 10 -4 11 -2 15 8 11 11 -4 13 -1 9 10 -4 11 -3 14 6 9
8 -6 10 -1 6 17 -5 19 -2 26 12 30 15 4 15 5 1 6 -12 1 -18 12 -20 39 -2 28
-7 36 -20 34 -9 -1 -19 2 -23 8 -3 6 0 7 9 4 10 -4 16 -1 16 7 0 7 3 9 7 6 3
-4 12 1 19 11 7 9 14 12 14 5 0 -8 9 -9 29 -3 16 4 46 5 65 0 20 -4 36 -6 36
-3 0 3 6 0 14 -6 10 -9 15 -8 20 4 3 8 10 15 15 15 6 0 7 -8 4 -17 -5 -13 -2
-15 11 -10 10 4 23 4 29 0 6 -4 23 -8 37 -9 14 -1 45 -7 70 -14 25 -6 56 -13
70 -15 14 -2 42 -6 62 -9 21 -3 56 -10 78 -15 24 -5 56 -5 82 0 23 6 48 7 57
4 9 -4 59 -8 111 -10 52 -2 127 -6 165 -9 39 -3 106 -9 150 -12 44 -3 96 -8
115 -10 19 -2 76 -5 125 -7 50 -2 107 -10 128 -16 21 -7 44 -10 52 -7 8 3 52
1 97 -5 46 -5 110 -12 143 -15 33 -3 63 -10 66 -16 4 -7 8 -6 11 3 3 9 10 10
24 4 22 -10 148 -13 130 -3 -6 4 -39 9 -71 12 -33 3 -141 16 -240 30 -99 14
-236 32 -305 40 -69 9 -208 27 -310 41 -153 20 -469 58 -670 81 -25 2 -79 9
-120 14 -41 5 -106 12 -145 15 -74 6 -173 16 -370 40 -66 8 -160 17 -210 21
-49 3 -103 8 -120 10 -33 4 -245 19 -327 23 -22 1 -78 61 -78 84 0 24 -21 25
385 -28 300 -39 368 -48 735 -90 354 -41 432 -49 828 -90 81 -9 188 -20 237
-26 50 -5 137 -14 195 -19 58 -5 173 -16 255 -25 83 -9 215 -22 295 -30 80 -8
483 -48 895 -90 413 -42 845 -85 960 -95 251 -23 389 -38 418 -45 12 -3 132
-16 267 -30 135 -13 279 -29 320 -35 41 -5 152 -17 245 -25 94 -9 226 -22 295
-30 69 -9 211 -24 315 -35 105 -11 219 -25 255 -30 36 -6 88 -12 115 -15 28
-2 142 -13 255 -24 113 -11 257 -25 320 -31 63 -6 151 -15 195 -20 218 -26
254 -30 310 -34 33 -3 80 -7 105 -11 47 -6 63 -7 250 -25 63 -5 185 -17 270
-25 85 -8 234 -22 330 -30 96 -8 187 -18 203 -21 l27 -6 0 222 c0 193 -2 221
-15 210 -8 -6 -23 -9 -35 -5 -12 4 -42 7 -68 7 -26 0 -50 5 -54 11 -6 9 -11 8
-18 -3 -9 -13 -11 -13 -21 0 -7 10 -12 11 -15 4 -3 -8 -18 -8 -47 -2 -23 4
-79 10 -125 13 -45 3 -99 12 -120 20 -24 11 -38 12 -40 5 -2 -5 -7 -8 -11 -5
-4 2 -46 5 -92 6 -46 1 -99 8 -118 15 -25 10 -37 11 -47 3 -7 -6 -18 -8 -24
-4 -13 8 -78 14 -188 17 -59 2 -81 6 -78 15 4 9 -1 10 -19 1 -18 -8 -28 -8
-39 1 -9 8 -61 14 -137 17 -75 2 -125 8 -130 15 -4 7 -9 7 -12 2 -5 -8 -38
-10 -57 -3 -3 1 -31 2 -62 2 -35 0 -55 4 -52 10 4 6 -7 9 -28 7 -18 -2 -39 0
-46 5 -7 4 -19 3 -26 -3 -11 -9 -18 -8 -29 3 -10 10 -28 14 -57 11 -24 -3 -49
0 -57 6 -7 7 -27 9 -44 5 -17 -3 -51 -1 -76 4 -31 7 -49 7 -58 0 -9 -7 -16 -6
-26 6 -10 12 -25 15 -61 12 -26 -3 -45 -1 -42 4 8 12 -10 10 -23 -3 -8 -8 -17
-8 -30 0 -21 10 -24 11 -110 11 -28 0 -54 4 -58 10 -8 13 -55 13 -55 0 0 -5
-7 -10 -15 -10 -8 0 -15 5 -15 11 0 7 -10 9 -24 5 -18 -4 -28 -1 -35 11 -8 15
-11 15 -26 3 -14 -12 -18 -12 -26 1 -8 12 -10 12 -18 0 -8 -12 -12 -12 -25 -2
-11 9 -35 11 -91 6 -49 -5 -75 -4 -75 3 0 6 6 13 13 15 7 3 5 6 -5 6 -10 1
-18 -3 -18 -8 0 -12 -40 -8 -60 5 -19 11 -32 13 -149 17 -51 2 -96 8 -100 13
-3 5 -22 10 -41 10 -142 0 -169 4 -175 24 -5 16 -15 20 -51 20 -28 0 -43 -4
-39 -10 3 -5 1 -10 -4 -10 -6 0 -11 5 -11 11 0 8 -13 9 -38 5 -27 -4 -45 -1
-61 10 -12 9 -31 14 -41 11 -11 -3 -20 -1 -22 4 -2 5 -49 10 -104 12 -81 3
-106 7 -120 21 -14 15 -15 19 -3 27 10 6 11 9 1 9 -19 0 -27 -30 -14 -51 10
-16 7 -17 -46 -12 -31 3 -63 10 -70 16 -9 7 -20 6 -38 -3 -21 -12 -29 -11 -54
3 -21 13 -29 14 -33 5 -3 -10 -11 -10 -38 1 -47 19 -132 31 -144 20 -14 -13
-55 -11 -55 4 0 8 -4 7 -10 -3 -8 -12 -13 -13 -30 -2 -11 7 -20 8 -20 3 0 -5
-30 -8 -67 -6 -38 2 -68 4 -68 5 0 1 -19 3 -43 5 -23 2 -50 9 -58 16 -13 10
-17 10 -25 -2 -7 -11 -9 -11 -9 4 0 9 -4 17 -10 17 -5 0 -14 -8 -19 -17 -7
-11 -14 -14 -18 -8 -5 6 -84 11 -192 12 -102 1 -208 7 -235 12 -28 6 -76 11
-106 12 -30 1 -59 6 -65 10 -5 4 -46 7 -90 7 -95 -1 -326 9 -445 18 -47 4 -98
6 -115 5 -36 -2 -206 14 -360 35 -60 8 -150 16 -200 18 -129 6 -377 26 -400
32 -11 3 -76 12 -145 19 -69 8 -159 18 -200 24 -41 6 -105 11 -142 11 -38 0
-68 3 -68 8 0 4 -24 8 -52 8 -66 2 -163 10 -293 26 -55 6 -123 12 -152 12 -28
1 -49 4 -46 9 2 4 -8 6 -24 5 -40 -4 -236 23 -250 34 -8 6 -18 6 -29 0 -10 -6
-27 -6 -39 -2 -12 5 -96 16 -186 25 -90 9 -195 21 -234 26 -38 5 -90 11 -115
14 -25 2 -76 9 -115 16 -38 6 -120 14 -182 18 -61 3 -114 8 -116 11 -7 7 -62
191 -81 271 -25 103 -25 102 38 95 86 -11 188 -19 226 -17 19 1 44 -3 55 -8
11 -5 101 -16 200 -25 195 -18 721 -68 955 -92 80 -8 197 -19 260 -24 63 -5
219 -21 345 -34 127 -14 255 -27 285 -30 30 -3 152 -15 270 -27 118 -11 240
-21 271 -21 54 0 119 23 119 42 0 5 9 12 21 15 26 9 62 -22 56 -47 -3 -10 -2
-20 2 -23 8 -5 250 -35 476 -60 83 -9 200 -22 260 -30 61 -7 187 -21 280 -30
94 -9 262 -27 375 -41 113 -13 279 -31 370 -39 91 -9 179 -18 195 -21 17 -2
125 -14 240 -25 116 -10 282 -26 370 -35 313 -29 361 -33 437 -38 43 -3 83 -8
90 -13 7 -4 47 -11 88 -16 41 -4 91 -9 110 -12 19 -2 64 -6 100 -9 36 -4 101
-11 145 -16 44 -5 110 -9 147 -9 37 -1 78 -5 91 -10 13 -5 93 -12 177 -16 84
-3 156 -8 160 -10 6 -4 216 -21 357 -30 29 -2 56 -6 62 -9 5 -3 16 -3 25 0 8
3 21 2 28 -2 7 -5 45 -10 83 -12 76 -3 80 -3 126 0 17 1 34 -3 37 -8 4 -5 61
-9 127 -8 66 0 126 -4 132 -9 7 -5 24 -7 38 -5 13 3 22 1 19 -3 -3 -5 1 -9 10
-9 8 0 16 5 18 11 3 8 10 9 23 1 32 -16 123 -30 134 -19 5 5 11 4 15 -2 5 -7
13 -8 25 -2 10 6 23 6 32 0 7 -5 34 -9 59 -9 25 0 65 -5 90 -11 25 -6 98 -11
163 -11 64 -1 117 -4 117 -9 0 -4 19 -8 43 -7 60 2 227 -11 239 -18 5 -3 43
-8 84 -10 l74 -4 0 810 c0 639 -3 812 -12 815 -15 6 -157 15 -208 14 -42 -2
-44 -1 -145 6 -44 4 -87 9 -95 12 -8 3 -46 7 -85 9 -87 5 -148 11 -200 19 -22
4 -83 8 -135 10 -99 4 -123 6 -255 23 -44 5 -91 10 -105 10 -33 0 -114 12
-119 18 -2 2 -10 -1 -16 -6 -9 -7 -21 -7 -40 0 -15 6 -39 10 -53 9 -15 0 -65
2 -112 6 -47 4 -131 7 -188 8 -63 1 -106 6 -110 13 -8 13 -122 24 -122 12 0
-5 -25 -7 -55 -6 -30 2 -55 7 -55 11 0 4 -15 5 -34 1 -19 -3 -41 -2 -48 2 -14
9 -66 14 -138 13 -64 -1 -72 -1 -105 5 -44 8 -177 8 -197 1 -12 -5 -18 -2 -18
8 0 12 -19 17 -83 22 -46 4 -103 5 -128 4 -31 -3 -43 0 -42 9 2 6 -2 12 -7 12
-6 0 -10 -4 -10 -10 0 -14 -28 -12 -32 2 -3 9 -13 8 -39 -4 -37 -18 -87 -14
-96 8 -3 8 -17 14 -32 14 -21 0 -23 -2 -11 -11 12 -9 12 -10 -3 -5 -10 3 -30
6 -43 6 -14 0 -23 4 -20 8 2 4 -16 8 -42 9 -26 0 -63 3 -84 7 -30 7 -37 5 -41
-11 -4 -14 -5 -14 -6 -2 -1 13 -12 16 -58 14 -36 -1 -64 4 -74 11 -26 23 -146
35 -190 20 -20 -7 -43 -10 -50 -5 -8 4 -16 3 -20 -3 -9 -15 -32 1 -25 18 9 23
-20 16 -37 -8 l-16 -23 -1 30 c-1 26 -3 27 -10 10 -5 -11 -9 -15 -9 -9 -1 7
-21 12 -47 12 -25 1 -52 6 -60 13 -8 6 -53 11 -109 12 -83 0 -97 3 -106 19
-12 23 -59 25 -59 2 0 -15 -2 -15 -25 0 -13 9 -33 16 -45 16 -12 0 -20 7 -20
16 0 29 -25 8 -28 -24 -2 -18 -7 -32 -12 -32 -13 0 -21 35 -14 56 7 19 7 19
-14 0 -12 -10 -28 -16 -37 -13 -17 7 -20 23 -5 32 5 3 6 13 3 21 -4 10 2 17
16 21 11 3 21 10 21 17 0 6 7 3 15 -8 18 -24 120 -32 129 -10 4 11 11 8 32
-11 16 -15 39 -25 56 -25 17 0 27 -4 23 -10 -3 -5 0 -10 8 -10 23 0 31 33 11
47 -10 7 -14 16 -10 20 4 4 11 1 15 -6 5 -8 17 -11 29 -7 11 4 23 2 27 -4 4
-6 21 -11 39 -10 17 1 33 1 36 0 17 -6 52 -5 56 2 3 4 21 8 40 8 27 0 34 -4
34 -19 0 -25 12 -32 30 -20 13 8 13 10 0 18 -24 16 -1 26 32 13 17 -6 35 -9
39 -6 20 12 236 2 298 -15 36 -10 47 -9 67 4 13 8 30 12 39 9 8 -3 48 -8 88
-10 39 -2 92 -6 117 -10 25 -3 113 -8 195 -10 155 -4 211 -8 400 -26 61 -6
155 -12 210 -13 55 -2 152 -8 215 -14 63 -6 155 -13 205 -16 49 -3 92 -10 95
-15 4 -7 24 -7 58 0 29 5 62 6 75 1 12 -4 60 -8 107 -9 47 0 128 -5 180 -11
52 -6 129 -13 170 -16 41 -3 100 -8 130 -11 30 -3 134 -7 230 -9 217 -5 250
-7 250 -14 0 -3 46 -7 103 -9 56 -1 120 -5 142 -7 22 -2 63 -7 90 -10 28 -2
105 -6 173 -8 l122 -3 0 746 0 745 -138 2 c-243 5 -349 10 -360 17 -7 4 -42 7
-79 7 -81 0 -276 5 -283 8 -7 3 -197 12 -335 16 -376 11 -534 20 -548 34 -5 5
-23 5 -40 1 -18 -3 -81 -5 -142 -4 -116 4 -167 8 -310 29 -51 8 -85 8 -161 0
-48 -4 -65 -2 -77 10 -10 9 -18 11 -22 5 -4 -6 -14 -5 -27 3 -16 9 -22 9 -25
0 -3 -7 -21 -13 -41 -13 -44 0 -83 10 -78 19 2 3 -9 6 -25 6 -16 0 -29 -2 -29
-5 0 -3 -54 -5 -120 -6 -99 0 -120 3 -122 15 -4 19 -66 24 -70 6 -2 -10 -13
-10 -51 0 -42 11 -49 10 -60 -4 -13 -17 -97 -27 -97 -12 0 12 -62 33 -69 23
-8 -11 -51 -13 -51 -1 0 5 -16 9 -35 9 -19 0 -35 4 -35 10 0 6 -9 6 -25 0 -14
-5 -25 -7 -25 -4 0 2 -9 0 -20 -6 -11 -6 -20 -7 -20 -2 0 5 -20 8 -44 7 -38
-2 -43 0 -39 16 7 24 -12 24 -43 0 -17 -13 -35 -18 -62 -15 -20 2 -44 5 -52 5
-8 1 -32 -1 -53 -3 -27 -4 -43 -1 -55 11 -15 15 -15 15 -9 -1 3 -10 2 -20 -2
-23 -5 -3 -11 2 -15 10 -3 8 -15 15 -27 15 -15 0 -19 5 -15 15 3 8 1 15 -4 15
-10 0 -14 -15 -11 -34 1 -5 -6 -6 -15 -2 -40 15 -66 17 -99 6 -29 -10 -40 -9
-58 2 -26 17 -164 44 -174 35 -3 -4 8 -7 25 -7 18 0 32 -5 32 -11 0 -5 -5 -7
-11 -4 -6 4 -17 -1 -24 -11 -8 -11 -15 -14 -15 -7 0 6 -9 13 -21 15 l-21 3 22
28 c17 22 19 27 6 27 -9 0 -16 -7 -16 -15 0 -8 -5 -15 -10 -15 -6 0 -16 -11
-22 -25 -7 -17 -19 -25 -35 -25 -14 0 -21 4 -18 10 4 6 10 8 15 5 5 -3 16 2
25 11 12 13 13 19 5 24 -9 6 -9 9 1 12 8 3 11 9 7 13 -5 5 -19 3 -33 -3 -32
-15 -35 7 -5 26 12 7 19 16 16 21 -7 10 30 41 39 33 4 -4 5 4 1 18 -3 14 -3
19 0 13 3 -7 10 -13 15 -13 6 0 7 5 4 10 -3 6 3 10 14 10 11 0 23 -4 26 -10 3
-5 1 -10 -5 -10 -17 0 -42 -28 -31 -34 5 -3 14 1 21 9 7 8 30 20 51 26 21 7
36 16 33 20 -9 15 14 10 30 -6 19 -20 19 -20 56 15 18 17 35 28 38 25 3 -3 -3
-11 -13 -19 -14 -10 -15 -15 -5 -21 7 -4 16 -2 20 5 9 15 50 4 50 -13 0 -15
77 -10 86 5 4 6 -2 7 -16 3 -15 -5 -20 -4 -16 4 4 6 26 11 50 11 23 0 47 5 53
11 15 15 53 2 47 -15 -3 -8 5 -16 20 -20 28 -7 58 2 50 15 -9 15 8 10 28 -8
17 -15 19 -15 34 3 11 13 14 14 11 3 -4 -12 3 -15 33 -15 21 1 42 4 46 9 11
11 49 8 61 -4 9 -9 18 -8 37 5 27 17 66 22 66 7 0 -9 39 -24 55 -21 41 8 308
16 385 11 19 -1 44 -2 55 -1 22 0 56 -5 123 -19 23 -4 93 -6 156 -2 63 3 133
3 155 -1 22 -4 153 -9 291 -11 138 -3 256 -9 263 -15 14 -11 155 -14 162 -3 6
10 68 6 86 -5 18 -12 181 -15 236 -5 23 5 45 6 47 3 3 -2 40 -6 83 -8 153 -7
360 -14 491 -16 72 -1 132 -5 132 -8 0 -3 60 -6 133 -7 324 -5 568 -13 577
-18 7 -4 10 238 10 680 l0 686 -92 -2 c-51 -1 -214 1 -363 5 -148 3 -359 7
-467 7 -109 0 -200 4 -203 8 -2 5 -35 7 -72 4 -38 -2 -104 -4 -148 -3 -44 1
-194 -4 -332 -11 -169 -8 -257 -8 -265 -2 -7 6 -74 11 -148 12 -243 3 -305 6
-312 16 -5 6 -8 3 -8 -7 0 -14 -7 -16 -37 -13 -21 2 -40 5 -43 5 -3 1 -19 1
-36 0 -17 -1 -38 5 -46 13 -11 11 -24 12 -64 5 -27 -5 -85 -11 -128 -13 -66
-4 -81 -2 -92 13 -13 15 -15 15 -26 1 -7 -8 -29 -16 -50 -16 -33 -1 -36 1 -28
16 8 16 4 17 -53 8 -34 -5 -75 -10 -92 -11 -16 -1 -36 -5 -44 -10 -7 -5 -16
-4 -20 1 -3 5 -14 12 -23 16 -10 3 -18 13 -18 22 0 18 -40 21 -58 3 -16 -16
-155 -19 -142 -2 8 9 4 12 -15 10 -24 -1 -35 -21 -15 -28 6 -2 6 -8 -1 -18 -8
-13 -11 -13 -22 0 -13 17 -94 19 -137 5 -35 -12 -104 -13 -112 -1 -4 5 1 15
10 22 9 7 13 16 9 20 -4 5 -11 4 -15 -2 -4 -6 -24 -14 -44 -18 -24 -4 -38 -13
-38 -22 0 -12 -3 -12 -20 -2 -11 7 -20 18 -20 25 0 6 -4 15 -10 18 -7 4 -7 -3
0 -20 10 -26 9 -26 -20 -20 -19 4 -36 2 -46 -6 -12 -10 -17 -8 -29 7 -13 17
-14 18 -15 2 0 -24 -22 -23 -43 2 -19 23 -40 19 -30 -5 6 -17 0 -19 -25 -6
-88 43 -91 44 -107 31 -12 -10 -15 -10 -15 4 0 9 -4 16 -10 16 -5 0 -10 -5
-10 -10 0 -7 -6 -7 -20 0 -23 13 -27 35 -4 26 8 -3 12 -2 9 4 -3 5 -27 8 -53
6 -38 -2 -49 -7 -59 -27 -7 -13 -13 -20 -13 -15 0 5 -9 1 -19 -8 -19 -18 -24
-5 -8 20 3 6 3 14 0 18 -4 4 -13 -4 -20 -16 -11 -21 -12 -22 -13 -3 0 14 -3
16 -8 8 -7 -10 -12 -10 -27 1 -17 12 -18 17 -6 39 16 29 9 57 -14 57 -8 0 -15
7 -15 16 0 8 -4 12 -10 9 -5 -3 -10 -1 -10 6 0 14 86 5 106 -12 7 -5 26 -12
43 -14 26 -3 31 -1 31 16 0 11 -4 17 -10 14 -5 -3 -10 -1 -10 4 0 11 28 16 65
11 11 -2 38 -3 60 -4 22 -1 44 -5 48 -11 4 -6 7 -1 5 10 -2 12 4 21 14 23 13
2 16 -1 12 -12 -3 -9 -2 -16 4 -16 5 0 12 9 15 20 5 20 27 28 27 10 0 -5 -4
-10 -10 -10 -5 0 -10 -5 -10 -10 0 -14 52 -1 66 16 13 17 40 9 48 -13 6 -16
54 -10 88 10 14 9 21 6 38 -13 18 -20 24 -22 38 -12 34 24 65 33 72 21 6 -8 9
-7 13 2 4 12 7 11 16 -1 7 -9 14 -11 19 -5 8 12 72 13 90 2 8 -5 12 -2 12 9 0
16 1 16 18 1 10 -10 22 -14 25 -11 4 4 13 1 22 -6 13 -11 14 -10 9 4 -4 10 -1
16 9 16 9 0 19 -10 22 -21 5 -16 9 -18 15 -9 4 7 13 9 21 5 9 -6 11 -4 6 8 -5
13 0 16 28 15 23 -1 32 -5 28 -15 -7 -18 8 -16 36 3 16 12 25 13 30 6 5 -8 12
-5 21 8 15 21 50 28 50 10 0 -5 11 -10 25 -10 14 0 25 6 25 13 0 8 3 7 10 -3
6 -9 24 -14 51 -14 25 1 36 -2 28 -7 -7 -4 -10 -11 -6 -15 3 -4 30 3 58 15 57
23 69 25 69 12 0 -5 -10 -11 -22 -14 -12 -4 -19 -9 -15 -13 6 -7 27 0 79 27
28 14 44 11 61 -13 14 -21 16 -21 16 -4 1 17 7 18 50 13 39 -5 49 -3 45 7 -4
10 6 13 38 13 24 -1 52 3 63 7 16 7 18 7 8 -5 -15 -16 -17 -39 -3 -39 6 0 10
6 10 13 0 9 18 12 73 9 39 -2 78 -8 86 -12 17 -9 53 -1 45 11 -3 5 24 7 63 5
204 -12 629 -6 687 9 19 5 31 4 36 -5 8 -13 115 -22 135 -11 11 6 109 14 145
12 31 -1 140 -1 288 2 61 1 113 -1 115 -6 1 -4 25 -2 52 3 61 13 53 14 200 -3
66 -7 138 -12 160 -10 65 5 269 4 428 -2 l147 -6 0 650 0 650 -27 -4 c-16 -2
-273 -7 -573 -9 -300 -3 -552 -7 -560 -10 -8 -3 -179 -8 -380 -11 -201 -4
-444 -9 -540 -12 -96 -2 -184 -4 -195 -4 -11 0 -63 0 -115 -1 -52 -1 -117 -1
-145 0 -46 2 -97 1 -150 -1 -11 0 -38 2 -60 6 -29 5 -33 4 -15 -2 25 -9 25 -9
-5 -11 -41 -2 -119 0 -183 6 -36 3 -51 1 -47 -6 8 -13 1 -13 -66 0 -39 8 -62
7 -82 -1 -18 -8 -32 -8 -38 -2 -5 5 -31 6 -62 2 -28 -3 -60 -2 -70 3 -9 5 -32
6 -50 3 -18 -4 -44 -2 -59 4 -14 5 -29 7 -32 4 -3 -4 -77 -8 -164 -10 -86 -2
-218 -5 -292 -8 -74 -3 -157 -5 -185 -5 -53 1 -115 18 -127 35 -5 6 -12 4 -18
-5 -8 -12 -10 -10 -10 9 0 24 0 24 -15 5 -14 -18 -14 -17 -15 13 0 30 2 32 32
30 23 -1 33 2 33 13 0 9 20 18 60 27 108 23 236 32 653 43 56 2 109 -3 126
-12 15 -8 18 -7 14 3 -4 10 5 14 34 15 22 0 43 6 47 13 7 11 9 11 13 0 5 -15
97 -21 113 -8 6 4 27 4 47 0 20 -5 51 -7 70 -5 18 3 51 6 73 7 22 1 46 9 53
17 10 13 14 13 26 -4 12 -15 20 -17 44 -8 16 5 35 6 42 2 17 -11 79 -1 107 16
27 17 37 18 27 3 -4 -7 0 -9 14 -5 12 4 26 1 35 -9 21 -20 57 -19 72 2 12 16
15 16 48 -2 32 -17 37 -17 59 -3 18 12 38 14 74 10 45 -5 48 -4 35 11 -7 10
-9 17 -5 17 5 0 15 -9 22 -20 7 -11 22 -19 35 -19 17 1 18 2 5 6 -43 11 -4 42
43 35 22 -3 29 -9 24 -20 -4 -12 1 -14 32 -8 21 3 50 6 65 6 15 0 33 7 42 15
18 19 26 19 26 0 0 -12 11 -13 58 -9 31 3 78 6 105 7 26 0 47 4 47 9 0 4 7 8
16 8 11 0 14 -6 9 -22 -6 -16 -4 -20 8 -15 8 3 44 13 81 22 65 16 93 14 80 -7
-5 -8 -1 -9 10 -5 10 4 31 7 47 7 22 0 29 5 29 20 0 25 12 26 27 1 11 -18 20
-19 85 -13 74 6 114 7 203 4 85 -2 500 12 500 18 0 3 50 8 80 8 320 -3 420 -1
479 9 58 11 99 12 141 3 35 -8 35 -12 35 566 l0 565 -22 -7 c-12 -4 -65 -8
-118 -9 -165 -5 -562 -18 -630 -20 -36 -1 -162 -5 -280 -9 -118 -3 -269 -9
-335 -12 -66 -4 -230 -7 -365 -8 -136 0 -248 -5 -252 -10 -7 -11 -274 -16
-302 -6 -11 4 -35 1 -54 -6 -21 -7 -60 -10 -95 -6 -42 3 -58 2 -53 -6 4 -7 -2
-8 -21 -3 -16 4 -66 7 -113 6 -47 -1 -91 2 -97 8 -9 7 -13 4 -13 -8 0 -12 -5
-15 -17 -11 -32 13 -106 19 -100 10 3 -6 -63 -10 -171 -10 -97 0 -193 -2 -212
-3 -82 -6 -264 0 -281 9 -11 6 -20 7 -24 1 -3 -6 -28 -7 -56 -4 -38 4 -53 2
-60 -8 -6 -10 -9 -11 -9 -1 0 8 -8 10 -25 6 -15 -4 -25 -2 -25 5 0 6 -9 11
-21 11 -11 0 -17 -4 -14 -10 9 -14 -48 -13 -63 2 -19 19 -15 41 8 35 11 -3 30
3 42 13 17 13 38 17 81 15 44 -2 57 0 57 11 0 11 7 13 27 8 15 -4 32 -6 38 -5
5 1 26 3 45 5 19 2 43 8 54 12 16 6 17 4 11 -17 -3 -13 -3 -19 2 -13 4 5 36
11 71 12 34 0 68 4 75 9 21 13 107 16 107 3 0 -7 10 -5 29 4 20 11 37 13 58 7
17 -5 36 -5 44 0 8 5 40 6 72 3 45 -5 61 -3 75 9 20 18 121 15 133 -4 5 -8 8
-8 14 0 3 7 15 9 26 6 10 -4 19 -2 19 3 0 13 177 30 225 21 22 -4 45 -4 50 0
19 15 54 19 58 7 3 -8 8 -7 19 2 11 9 18 10 23 2 3 -5 17 -10 30 -10 13 0 27
-5 30 -11 5 -7 12 -5 23 4 17 15 125 18 139 4 3 -4 13 -1 22 6 24 20 49 28 57
16 3 -6 20 -7 37 -4 23 5 28 3 17 -4 -8 -5 -11 -14 -6 -18 4 -4 13 0 20 10 7
9 20 17 29 17 9 0 19 5 23 11 6 10 20 9 89 -5 11 -2 28 -7 38 -11 12 -5 17 -2
17 10 0 15 1 15 16 1 8 -9 21 -13 27 -9 6 4 24 6 39 5 15 -1 28 2 28 6 0 5 20
6 45 2 49 -7 56 -5 49 15 -3 7 0 16 6 20 7 4 14 -2 17 -15 4 -15 10 -19 22
-14 18 8 35 9 99 6 26 -1 41 -6 37 -12 -9 -15 7 -12 32 5 16 11 40 14 95 11
42 -3 78 0 85 6 9 8 13 7 13 -3 0 -12 2 -12 9 0 6 8 18 12 31 8 13 -3 29 0 37
9 8 8 20 14 26 14 7 0 6 -4 -3 -10 -29 -18 18 -24 60 -7 26 10 102 17 113 10
14 -8 67 -7 90 2 10 4 35 5 55 3 21 -3 75 -2 121 2 46 4 101 3 123 -2 22 -4
45 -5 51 -1 7 4 31 8 54 9 24 1 54 9 67 18 24 15 56 13 56 -4 0 -7 132 -5 270
3 21 2 25 8 28 40 l3 37 -2199 0 -2198 0 -83 -252 c-45 -139 -91 -275 -101
-303 -10 -27 -37 -111 -60 -185 -23 -74 -55 -175 -70 -225 -64 -203 -114 -365
-135 -440 -34 -119 -152 -511 -175 -580 -11 -33 -45 -150 -75 -260 -31 -110
-70 -249 -87 -310 -17 -60 -41 -148 -53 -195 -13 -47 -33 -121 -45 -165 -30
-110 -97 -366 -116 -445 -9 -36 -20 -74 -24 -85 -5 -11 -16 -51 -24 -90 -13
-62 -65 -266 -125 -495 -11 -41 -36 -142 -56 -225 -19 -82 -51 -213 -69 -290
-115 -471 -174 -724 -241 -1025 -8 -36 -26 -112 -40 -170 -13 -58 -36 -159
-50 -225 -14 -66 -32 -149 -41 -185 -21 -93 -43 -196 -55 -260 -5 -30 -16 -74
-24 -96 -8 -23 -19 -71 -25 -106 -12 -66 -24 -97 -35 -86 -3 3 1 34 10 69 10
35 23 105 31 154 16 107 66 355 108 538 9 37 18 81 21 98 3 16 12 58 21 92 8
34 17 80 20 101 3 22 9 47 14 55 4 9 11 36 15 61 4 25 11 61 15 80 37 149 62
263 80 370 29 172 42 230 52 236 4 3 8 24 8 47 1 23 7 60 15 82 8 22 18 63 21
90 4 28 11 59 17 70 5 10 9 33 9 50 -1 16 10 62 23 102 14 39 25 94 25 122 0
37 4 53 15 57 10 4 12 11 6 21 -8 16 8 63 22 63 5 0 5 4 2 10 -3 5 -1 27 5 47
7 21 14 54 16 73 3 19 9 36 14 38 6 2 10 28 10 58 0 39 4 56 15 60 8 4 12 10
9 15 -3 6 -1 16 5 23 6 7 12 32 14 57 1 24 6 50 11 58 9 15 32 110 41 170 3
18 10 42 16 53 6 11 13 43 16 72 3 28 8 56 13 61 7 9 18 46 26 85 13 62 17 77
24 95 9 21 40 157 43 188 1 9 4 17 8 17 4 0 9 15 12 33 10 57 32 142 40 154 4
6 10 33 13 60 4 26 13 60 20 75 8 15 14 38 14 53 0 14 4 25 9 25 8 0 23 58 23
87 0 5 4 13 10 20 5 7 7 17 4 22 -4 5 -2 12 4 16 6 4 7 11 4 17 -4 6 -2 13 3
17 5 3 25 71 45 151 20 80 43 165 51 190 21 63 48 175 58 240 4 30 17 75 28
100 10 25 25 79 31 120 7 41 23 107 36 145 39 117 65 224 58 237 -4 6 1 17 10
23 9 7 19 26 21 41 2 16 9 47 14 68 5 22 7 44 4 49 -7 12 -43 -28 -43 -50 -1
-10 -7 -29 -15 -43 -8 -14 -14 -37 -15 -51 0 -15 -7 -30 -15 -33 -20 -7 -48
-73 -42 -98 3 -11 0 -18 -9 -18 -8 0 -14 -4 -14 -10 0 -5 12 -10 28 -10 23 -1
24 -2 10 -11 -10 -5 -18 -17 -18 -24 0 -8 -7 -15 -16 -15 -24 0 -64 -47 -57
-66 4 -11 8 -12 13 -4 4 7 9 0 12 -19 4 -30 -4 -37 -35 -32 -4 1 -15 -5 -23
-13 -8 -9 -21 -13 -29 -10 -25 10 -17 -7 18 -37 22 -20 27 -29 16 -29 -9 0
-20 -7 -23 -16 -5 -13 -9 -14 -20 -5 -10 8 -16 9 -21 1 -3 -5 -15 -10 -27 -10
-14 0 -18 -5 -14 -15 4 -13 2 -13 -14 -5 -29 16 -38 12 -56 -21 -9 -18 -19
-27 -23 -22 -3 6 -19 17 -36 26 -27 14 -28 16 -10 22 40 13 50 23 50 50 0 15
-8 33 -17 38 -13 9 -21 6 -37 -14 -19 -22 -20 -22 -21 -5 0 16 -2 18 -12 7
-11 -10 -8 -16 11 -32 l25 -20 -27 6 c-24 6 -27 4 -27 -18 0 -29 -17 -38 -45
-24 -27 13 -26 12 -19 31 3 9 17 16 31 16 21 0 23 3 14 14 -10 11 -6 20 16 40
l28 26 -42 0 c-34 0 -41 -3 -37 -15 4 -9 0 -15 -9 -15 -17 0 -30 -27 -17 -35
11 -7 2 -36 -15 -50 -33 -27 -46 -84 -19 -81 27 2 27 -19 0 -33 -16 -9 -22
-19 -19 -32 3 -12 0 -19 -8 -19 -8 0 -22 -22 -32 -50 -10 -27 -23 -55 -30 -62
-15 -15 -43 -100 -55 -168 -5 -25 -21 -85 -35 -135 -30 -104 -64 -232 -79
-290 -11 -44 -19 -69 -54 -165 -13 -36 -26 -74 -28 -85 -2 -11 -11 -40 -19
-65 -8 -25 -18 -61 -22 -80 -4 -19 -11 -40 -16 -46 -6 -7 -12 -25 -14 -40 -6
-41 -10 -55 -25 -89 -7 -16 -20 -64 -30 -105 -10 -41 -25 -100 -35 -130 -9
-30 -24 -80 -32 -110 -9 -30 -18 -62 -21 -70 -3 -8 -7 -19 -7 -25 -1 -5 -7
-23 -13 -38 -7 -16 -12 -33 -12 -39 0 -6 -2 -9 -5 -7 -8 9 12 102 65 294 68
248 146 538 185 690 7 28 25 91 39 140 14 50 33 115 42 145 8 30 41 136 73
235 33 99 69 223 81 275 23 101 48 179 130 410 53 149 120 393 120 439 0 14 7
51 15 81 8 30 19 126 25 213 10 172 7 191 -38 202 -28 7 -152 7 -262 0 -41 -3
-243 -7 -448 -9 -263 -4 -378 -9 -388 -17 -8 -6 -14 -8 -14 -3 -1 24 -42 -45
-59 -99 -11 -34 -51 -125 -90 -202 -39 -77 -83 -171 -97 -210 -15 -38 -30 -74
-34 -80 -4 -5 -13 -36 -20 -67 -6 -32 -16 -60 -21 -63 -5 -4 -9 -15 -9 -26 0
-10 -4 -19 -10 -19 -5 0 -10 -11 -10 -25 0 -13 -11 -58 -25 -98 -13 -41 -27
-89 -29 -108 -9 -60 -53 -184 -86 -240 -46 -77 -77 -125 -98 -148 l-22 -26 6
30 c3 17 17 66 31 110 14 44 26 87 28 95 2 8 10 38 18 65 36 123 57 206 57
230 0 30 -25 34 -33 5 -4 -15 -14 -20 -36 -20 -23 0 -29 4 -25 15 4 10 2 13
-8 10 -8 -3 -24 3 -36 13 -26 23 -28 32 -7 32 8 0 15 5 15 10 0 6 7 10 15 10
8 0 15 5 15 10 0 6 10 11 23 12 12 0 2 4 -23 8 l-45 7 43 1 c39 2 43 4 37 22
-3 11 -2 20 4 20 5 0 10 8 11 18 6 112 5 139 -6 124 -14 -19 -44 -9 -44 16 0
10 6 24 13 31 10 11 8 12 -10 6 -17 -5 -23 -2 -23 9 0 8 5 18 10 21 6 3 10 15
10 26 0 16 4 19 23 14 22 -7 22 -7 2 8 -11 8 -29 16 -40 18 -29 6 -31 37 -3
48 13 6 18 10 12 10 -6 1 -10 34 -10 91 1 71 4 89 15 87 27 -4 22 21 -6 28
-23 6 -25 9 -13 17 14 9 14 19 2 91 -10 57 -10 83 -3 85 6 2 11 25 11 50 0 34
3 43 10 32 7 -11 10 -6 10 20 1 44 21 127 50 205 12 33 22 68 23 78 1 9 5 17
9 17 4 0 8 9 8 21 0 11 5 29 11 40 10 19 7 20 -82 17 l-91 -3 -50 -120 c-98
-236 -340 -842 -384 -960 -25 -66 -57 -149 -71 -185 -29 -76 -148 -406 -203
-565 -21 -60 -80 -229 -130 -375 -50 -146 -104 -305 -120 -355 -88 -277 -122
-357 -142 -337 -25 25 -10 146 40 322 27 96 82 292 122 435 40 143 79 285 87
315 36 132 60 205 119 360 35 91 65 176 68 190 37 182 100 380 198 618 49 120
78 203 76 220 -3 23 -10 14 -44 -58 -40 -82 -57 -124 -60 -145 0 -5 -6 -22
-12 -37 -6 -15 -19 -53 -28 -85 -19 -65 -76 -194 -105 -234 -10 -15 -19 -39
-19 -53 0 -26 -45 -136 -59 -146 -5 -3 -21 -30 -36 -60 -15 -30 -34 -59 -41
-63 -8 -4 -14 -15 -14 -24 0 -14 -57 -113 -64 -113 -2 0 -4 25 -5 56 -1 37 3
62 12 73 8 9 18 34 22 56 4 22 12 44 18 48 7 4 -4 5 -24 1 -27 -4 -40 -2 -50
11 -59 70 -153 151 -194 165 -33 13 -119 15 -515 12 -574 -3 -1117 -11 -1145
-17 -11 -3 -109 -7 -218 -9 -108 -3 -201 -8 -206 -11 -6 -3 -238 -7 -518 -9
-566 -5 -678 -12 -729 -51 -18 -14 -35 -25 -38 -25 -3 0 -31 -12 -62 -26 -31
-14 -71 -28 -89 -31 -18 -3 -44 -15 -58 -27 -14 -11 -34 -27 -45 -35 -27 -19
-49 -87 -35 -109 13 -22 67 -32 107 -21 17 5 43 9 57 9 16 0 40 12 58 29 36
34 90 57 151 65 25 3 473 8 995 11 523 3 1065 7 1205 9 140 3 428 5 640 6 422
1 427 1 484 -59 27 -28 29 -34 23 -91 -3 -41 -16 -82 -39 -128 -37 -71 -78
-171 -97 -237 -7 -22 -16 -49 -21 -60 -5 -11 -20 -54 -34 -97 -14 -42 -35 -97
-46 -122 -11 -26 -38 -101 -61 -169 -22 -67 -47 -135 -54 -152 -7 -16 -23 -64
-35 -105 -12 -41 -26 -79 -30 -85 -4 -5 -16 -46 -25 -90 -10 -44 -26 -92 -36
-107 -11 -14 -19 -33 -19 -42 0 -9 -5 -16 -11 -16 -6 0 -9 -7 -6 -15 7 -16
-21 -105 -33 -105 -4 0 -10 -32 -12 -72 -3 -40 -11 -74 -17 -76 -6 -2 -9 -8
-5 -13 3 -5 -1 -9 -9 -9 -13 0 -13 7 0 58 19 69 43 174 82 347 16 72 43 188
60 260 16 71 28 131 26 134 -3 2 -1 9 4 15 5 6 12 27 16 46 7 33 6 34 -9 15
-8 -11 -16 -26 -16 -33 0 -7 -7 -15 -16 -19 -8 -3 -20 -17 -25 -30 -10 -28
-35 -26 -31 3 2 11 0 15 -5 8 -14 -19 -101 -36 -123 -24 -11 6 -20 15 -20 20
0 20 -19 9 -23 -12 l-4 -23 -10 24 c-8 20 -11 21 -16 8 -8 -21 -37 -22 -37 -2
0 8 -8 15 -17 15 -13 0 -14 -3 -6 -8 7 -4 14 -21 17 -37 2 -17 1 -22 -1 -12
-5 19 -19 23 -25 6 -2 -6 -15 -9 -28 -6 l-25 4 22 8 c13 4 20 11 17 17 -3 5
-12 4 -21 -3 -9 -8 -17 -9 -21 -3 -10 13 -70 21 -180 23 -24 1 -41 5 -38 10 3
5 -1 11 -8 14 -10 4 -16 -2 -18 -16 -2 -13 -11 -23 -23 -25 -18 -3 -19 -2 -2
8 25 16 12 30 -26 29 -18 0 -26 -3 -19 -6 14 -5 17 -23 3 -23 -5 0 -14 14 -21
31 -8 19 -18 28 -27 25 -8 -4 -22 -6 -30 -6 -11 0 -14 -7 -11 -24 4 -17 1 -23
-9 -19 -7 3 -13 12 -13 21 0 14 -1 14 -12 -1 -9 -11 -21 -15 -36 -10 -19 4
-22 11 -18 29 5 19 2 24 -14 24 -13 0 -22 -9 -26 -25 -3 -14 -10 -25 -16 -25
-5 0 -7 9 -3 20 3 11 3 25 -2 32 -5 8 -10 -1 -14 -27 l-5 -40 -14 28 c-11 22
-19 27 -37 22 -19 -4 -23 -2 -23 20 0 19 -5 25 -22 26 -13 0 -43 1 -68 3 -25
2 -52 0 -60 -4 -20 -10 -81 0 -74 11 6 10 -56 12 -80 3 -9 -3 -13 -11 -9 -17
3 -5 7 -26 9 -46 10 -130 107 -663 135 -741 5 -14 10 -44 11 -68 1 -24 5 -45
10 -48 4 -3 8 -16 8 -30 0 -14 -4 -23 -8 -20 -5 3 -4 -18 1 -47 13 -76 19
-190 10 -202 -5 -5 -23 -21 -42 -34 -32 -22 -39 -23 -145 -18 -61 3 -172 10
-246 16 -74 6 -190 12 -258 15 -67 3 -130 10 -140 15 -15 8 -230 15 -402 13
-54 0 -266 1 -410 2 -58 1 -111 5 -119 10 -10 6 -16 6 -19 -2 -2 -6 -16 4 -32
22 l-29 33 19 64 c11 36 29 75 40 87 12 12 16 22 10 22 -5 0 10 21 35 46 25
25 45 49 45 53 0 4 11 18 25 31 14 13 25 32 25 42 0 10 3 18 8 18 4 0 13 15
21 33 8 17 22 40 33 50 10 10 18 24 18 32 0 8 7 15 15 15 8 0 15 6 15 14 0 8
16 33 35 56 19 23 35 45 35 50 0 4 10 18 23 31 13 13 43 51 67 84 24 33 54 71
67 84 13 13 23 29 23 35 0 6 14 26 30 44 17 18 30 36 30 40 0 4 8 15 18 24 9
8 26 28 37 42 11 15 25 32 30 39 42 50 53 69 48 88 -4 12 -11 18 -20 15 -8 -3
-17 -6 -19 -6 -2 0 -4 -7 -4 -16 0 -12 -11 -15 -58 -12 -43 2 -66 -2 -85 -15
-26 -17 -27 -17 -27 3 0 24 -6 25 -27 4 -10 -10 -26 -14 -42 -11 -29 6 -85
-19 -76 -33 4 -6 1 -10 -4 -10 -6 0 -11 9 -11 20 0 25 -16 26 -29 3 -8 -16
-12 -16 -36 -3 -24 13 -28 12 -36 -2 -7 -13 -22 -15 -79 -12 -57 3 -70 1 -70
-11 0 -8 -4 -15 -10 -15 -5 0 -10 7 -10 16 0 11 -6 14 -22 8 -13 -3 -24 -11
-26 -15 -2 -5 -11 -9 -19 -9 -13 0 -13 3 -3 15 10 12 9 15 -6 15 -38 -1 -70
-42 -41 -53 9 -4 9 -6 -1 -6 -7 -1 -22 4 -32 9 -12 7 -27 7 -42 1 -13 -6 -53
-13 -91 -16 -37 -4 -65 -10 -62 -15 3 -5 0 -12 -6 -16 -6 -3 -15 0 -20 7 -6
10 -9 8 -9 -8 0 -13 -4 -23 -10 -23 -5 0 -10 9 -10 20 0 26 -16 26 -23 -1 -4
-15 -11 -19 -24 -15 -13 4 -27 -2 -43 -19 -36 -38 -55 -33 -57 15 -1 22 2 40
7 40 4 0 10 19 13 43 3 23 24 123 47 222 54 226 55 235 39 282 -8 21 -14 44
-14 52 0 30 -24 21 -36 -13 -15 -42 -29 -47 -29 -11 0 43 -24 27 -65 -42 -22
-37 -43 -74 -48 -82 -4 -9 -16 -29 -27 -46 -11 -16 -23 -37 -26 -45 -14 -35
-41 -88 -62 -122 -12 -21 -22 -42 -22 -48 0 -17 -111 -238 -130 -258 -11 -11
-16 -22 -13 -26 6 -5 -17 -33 -67 -82 -21 -21 -26 -22 -28 -8 -2 9 1 19 6 23
6 4 13 27 16 53 8 61 36 180 45 193 5 5 11 34 15 64 4 29 14 64 23 77 14 22
14 24 -1 30 -18 7 -13 43 11 82 7 12 11 27 8 32 -6 10 -45 -24 -45 -38 0 -5
-18 -15 -40 -22 -23 -8 -39 -18 -36 -25 3 -8 -4 -10 -20 -7 -18 3 -24 0 -24
-12 0 -9 -9 -26 -20 -38 l-19 -21 0 34 c0 19 0 45 -1 57 0 13 3 29 7 35 4 7 6
22 4 35 -1 13 4 25 13 28 8 3 12 11 10 19 -3 7 6 36 20 66 14 29 26 59 26 66
0 7 4 13 10 13 12 0 55 81 52 98 -2 6 2 12 9 12 7 0 9 10 7 25 -3 13 -1 26 4
27 5 2 10 23 11 48 3 75 -20 61 -98 -57 -38 -59 -72 -112 -74 -118 -2 -5 -35
-51 -72 -101 -126 -168 -201 -311 -377 -714 -104 -240 -212 -508 -212 -526 0
-8 -23 -69 -55 -149 -7 -16 -20 -61 -29 -100 -17 -73 -60 -251 -78 -320 -23
-89 -31 -213 -16 -232 7 -9 6 -18 -2 -28 -10 -13 -10 -19 2 -33 19 -22 18
-105 -2 -149 -15 -33 -30 -44 -30 -21 0 6 -3 9 -6 5 -3 -3 -18 5 -32 18 -19
18 -29 21 -39 13 -10 -8 -13 -4 -13 20 0 17 -4 32 -10 34 -5 2 -12 57 -15 123
-20 447 -32 601 -51 642 -10 24 -25 45 -32 48 -7 3 -36 -2 -63 -11 -40 -13
-54 -14 -78 -4 -16 6 -40 9 -52 5 -36 -12 -77 -62 -89 -107 -6 -24 -16 -53
-21 -64 -17 -33 -59 -75 -69 -69 -5 3 -15 -3 -22 -15 -15 -23 -73 -27 -98 -7
-40 32 -45 64 -44 266 1 183 7 236 38 336 20 68 27 107 31 187 4 90 13 145 34
218 5 19 17 62 26 95 8 33 22 72 30 87 8 14 15 31 15 37 0 19 89 240 126 315
65 130 136 250 176 301 5 6 27 34 49 63 63 80 96 111 198 184 103 74 133 82
179 48 25 -18 35 -19 116 -10 99 10 170 5 203 -16 30 -19 31 -19 99 22 110 66
225 101 271 83 38 -16 94 -40 115 -50 10 -5 27 -9 38 -9 11 0 20 -7 20 -15 0
-21 12 -19 46 7 55 43 78 81 89 148 4 25 16 72 27 105 19 61 28 109 29 155 1
14 5 30 10 36 5 6 11 48 14 94 5 76 3 88 -22 141 -16 33 -32 59 -38 59 -5 0
-23 11 -39 25 -17 14 -40 28 -54 32 -13 3 -101 3 -195 -1 -380 -15 -463 -22
-491 -45 -9 -7 -16 -10 -16 -6 0 10 -103 -66 -120 -90 -37 -49 -117 -208 -141
-280 -8 -22 -16 -42 -19 -45 -3 -3 -14 -25 -24 -50 -45 -107 -68 -151 -82
-157 -7 -3 -14 -15 -14 -27 -1 -11 -14 -37 -30 -56 -17 -19 -30 -40 -30 -46 0
-7 -16 -27 -35 -45 -19 -19 -35 -37 -35 -42 0 -5 -10 -23 -22 -40 -13 -18 -22
-37 -20 -44 1 -6 -7 -14 -18 -18 -11 -4 -18 -11 -15 -16 4 -5 2 -9 -4 -9 -14
0 -42 -55 -33 -64 3 -4 -1 -4 -11 0 -11 4 -17 1 -17 -9 0 -8 -12 -25 -26 -38
-14 -13 -29 -34 -34 -46 -5 -13 -17 -23 -26 -23 -11 0 -14 -5 -10 -16 6 -17
-22 -49 -79 -87 -15 -11 -24 -25 -21 -33 3 -7 1 -16 -4 -19 -6 -4 -10 5 -10
18 0 18 -9 28 -40 42 -22 10 -40 22 -40 27 0 5 -10 6 -22 3 -16 -6 -20 -4 -15
8 6 15 -29 37 -60 37 -9 0 -25 7 -34 16 -20 18 -48 19 -259 16 -63 -1 -124 -1
-135 -1 -11 1 -81 1 -155 1 -74 0 -164 1 -200 2 -101 4 -479 6 -750 4 -197 -1
-675 8 -675 13 0 2 -147 8 -294 13 -87 2 -148 0 -140 -5 9 -5 3 -7 -16 -4 -17
2 -32 4 -35 5 -9 3 -75 -1 -95 -6 -16 -4 -17 -3 -5 6 11 8 -5 9 -60 5 -42 -2
-90 -1 -108 4 -19 6 -34 6 -38 0 -5 -9 -34 -7 -68 7 -11 4 -21 2 -27 -7 -7
-12 -9 -12 -9 0 0 9 -8 11 -25 7 -17 -4 -25 -2 -25 6 -1 8 -7 5 -15 -6 -8 -11
-15 -15 -15 -9 0 12 -154 10 -183 -2 -9 -4 -23 -3 -30 3 -12 10 -83 9 -94 -1
-3 -4 -14 -2 -25 4 -10 5 -24 7 -30 3 -6 -4 -17 1 -25 11 -12 17 -13 17 -13 2
0 -13 -9 -17 -40 -17 -23 0 -40 5 -40 11 0 8 -4 8 -13 1 -7 -6 -23 -9 -35 -5
-13 3 -22 1 -22 -6 0 -7 -8 -8 -26 -1 -41 16 -67 13 -60 -7 6 -16 6 -16 -12 0
-22 20 -78 23 -85 5 -4 -9 -8 -10 -14 -2 -13 17 -51 35 -55 25 -2 -5 -49 -11
-105 -14 -84 -4 -103 -2 -103 9 0 8 -4 14 -10 14 -5 0 -10 -7 -10 -16 0 -14
-1 -14 -16 0 -11 12 -34 16 -82 15 -116 -2 -122 -1 -122 21 0 26 -17 26 -25 0
-5 -17 -9 -18 -33 -8 -15 7 -36 19 -46 27 -15 12 -17 13 -11 2 6 -11 4 -13 -9
-8 -10 4 -22 7 -27 7 -4 0 -6 6 -3 14 3 8 1 17 -5 21 -6 3 -11 -2 -11 -13 0
-31 -11 -32 -35 -4 -22 25 -24 26 -42 11 -21 -19 -44 -14 -36 7 6 16 -22 20
-32 4 -3 -5 -16 -15 -28 -20 -20 -10 -20 -10 -4 3 19 15 23 37 7 37 -5 0 -10
5 -10 12 0 9 3 9 11 1 9 -9 19 -9 39 2 17 9 31 10 41 4 26 -16 49 -11 46 12
-1 12 4 24 11 26 7 3 12 -4 12 -16 0 -12 4 -21 9 -21 5 0 9 6 8 13 -1 35 5 47
23 47 21 0 28 -16 9 -22 -13 -4 -2 -35 17 -42 11 -4 12 -2 2 14 -16 25 -6 34
40 34 20 1 43 5 50 10 13 8 126 1 165 -11 16 -4 18 -1 12 16 -6 21 8 30 20 12
6 -10 64 -12 79 -3 17 10 108 11 155 2 29 -5 47 -5 49 1 3 6 10 5 18 -2 10 -8
18 -8 27 0 10 8 17 7 27 -2 10 -10 12 -9 7 6 -5 13 -3 16 6 10 6 -4 77 -8 157
-9 83 -1 136 2 125 6 -18 8 -17 9 8 9 15 1 27 -4 27 -9 0 -6 3 -9 8 -8 4 0 16
-3 26 -7 13 -6 23 -3 31 9 8 10 14 13 17 6 3 -11 225 -16 236 -5 3 3 11 0 17
-5 7 -6 22 -7 34 -2 11 4 51 5 89 2 37 -4 69 -3 73 2 8 12 100 2 109 -12 6 -9
10 -9 16 3 8 14 17 14 76 3 40 -8 73 -9 82 -4 9 5 21 6 27 2 19 -11 550 -5
564 6 9 7 15 8 19 1 7 -11 199 -7 216 4 5 3 18 1 29 -5 12 -6 22 -6 25 -1 3 5
23 7 43 5 42 -5 113 -8 438 -19 121 -4 222 -8 225 -10 3 -2 215 -7 470 -10
256 -4 468 -9 472 -11 4 -3 45 -5 91 -5 46 0 99 -6 120 -13 64 -22 242 4 272
40 6 7 19 14 30 16 12 2 19 10 17 21 -2 9 1 17 6 17 5 0 12 19 16 42 4 22 10
46 14 52 9 14 31 72 42 111 5 17 27 82 51 145 38 106 42 125 48 251 7 123 10
142 36 194 16 31 38 63 50 71 11 8 19 17 17 19 -1 3 16 22 38 43 23 20 51 53
62 72 12 19 31 46 44 60 12 14 30 45 40 70 10 25 25 55 35 68 10 13 28 44 40
70 13 26 30 52 38 59 12 9 13 12 3 13 -10 0 -10 4 2 16 9 8 16 21 16 29 0 7 3
15 8 17 4 2 22 24 39 51 l33 47 -5759 0 -5760 0 -20 -26z m18293 -1295 c13 -6
26 -19 29 -28 5 -22 -30 -64 -72 -85 -21 -11 -31 -24 -31 -40 0 -12 -11 -33
-25 -46 -14 -13 -25 -28 -25 -33 0 -5 -12 -24 -27 -42 -34 -41 -83 -119 -83
-133 0 -13 31 -21 52 -13 13 4 15 10 8 21 -5 8 -10 28 -10 43 0 24 3 27 28 25
25 -3 27 0 30 35 3 31 7 37 26 37 29 0 50 24 43 49 -4 15 2 21 23 26 22 5 30
13 32 32 4 34 24 41 31 11 5 -18 -1 -28 -23 -46 -17 -13 -27 -28 -24 -33 3 -6
-6 -27 -20 -48 -15 -21 -26 -42 -24 -47 2 -5 -9 -25 -25 -45 -15 -20 -27 -40
-27 -46 0 -5 -9 -18 -20 -28 -11 -10 -25 -33 -32 -51 -7 -19 -15 -34 -19 -34
-14 0 -49 53 -49 74 -1 18 -4 17 -30 -14 -28 -32 -39 -61 -22 -59 4 1 26 1 50
0 34 -1 42 -5 42 -20 0 -10 -9 -29 -19 -42 -17 -22 -21 -22 -45 -10 -14 8 -29
26 -34 40 l-9 26 -19 -35 c-10 -19 -40 -82 -67 -140 -27 -58 -53 -109 -58
-115 -23 -24 -8 -35 47 -35 47 0 57 -3 61 -20 5 -19 23 -29 23 -12 0 4 18 27
40 52 61 68 66 74 95 94 15 10 33 34 41 53 8 18 21 36 29 40 21 8 18 37 -5 58
-11 10 -20 29 -20 42 0 20 5 23 36 23 33 0 36 2 30 23 -20 71 -21 67 19 67
l36 0 -6 44 -7 45 33 3 c34 3 36 7 28 53 -3 13 1 19 10 17 32 -7 51 9 51 42 0
26 6 35 26 45 23 10 25 16 20 46 -8 38 5 45 37 21 23 -17 22 -42 -3 -74 -20
-25 -20 -26 -2 -44 10 -10 31 -20 48 -21 27 -2 29 0 28 31 -2 28 1 32 22 32
20 0 24 -5 24 -30 0 -17 -9 -40 -20 -52 -11 -12 -20 -32 -20 -44 0 -13 -8 -29
-18 -36 -9 -7 -42 -62 -72 -121 -76 -152 -95 -163 -136 -86 -20 40 -19 41 31
33 50 -7 55 1 29 41 -24 38 -15 61 23 57 47 -5 56 4 38 38 -21 40 -19 52 8 50
38 -4 47 -1 47 15 0 29 -30 75 -49 75 -22 0 -54 -34 -56 -59 0 -10 -9 -30 -18
-44 -9 -14 -19 -37 -23 -51 -3 -14 -11 -30 -18 -34 -10 -6 -37 -55 -41 -72 0
-3 -13 -24 -29 -47 -16 -23 -26 -49 -22 -58 5 -14 48 -21 104 -16 14 1 22 -4
22 -15 0 -19 -37 -74 -51 -74 -5 0 -21 18 -35 40 -15 22 -31 37 -36 34 -13 -8
0 -173 16 -195 8 -12 31 -16 89 -18 42 -1 77 1 77 5 0 3 -14 31 -32 62 l-31
55 51 -7 c61 -8 62 -5 26 66 l-26 51 46 -6 c25 -4 47 -3 50 1 3 5 -6 27 -20
51 -33 60 -32 64 21 57 49 -8 58 3 30 40 -8 10 -15 27 -15 37 0 15 7 18 34 16
44 -4 52 4 32 33 -9 12 -16 33 -16 45 0 22 3 23 42 17 33 -6 40 -4 36 7 -4 8
-14 31 -23 53 -15 36 -15 38 0 32 9 -3 28 -9 41 -12 14 -4 21 -11 17 -18 -4
-6 -1 -6 9 2 14 11 14 16 -2 48 -10 19 -24 41 -30 49 -17 20 -7 19 41 -4 l40
-20 37 41 c20 22 39 44 40 49 2 5 15 9 29 9 15 0 45 15 69 35 23 19 52 35 64
35 26 0 40 -34 29 -75 -15 -55 -48 -189 -60 -243 -6 -29 -42 -123 -81 -210
-208 -467 -317 -801 -428 -1302 -62 -280 -66 -299 -94 -439 -13 -71 -27 -116
-36 -119 -10 -4 -12 3 -7 26 4 19 1 34 -7 41 -20 17 -34 -7 -47 -75 -12 -72
-40 -167 -50 -174 -18 -12 -57 -510 -68 -862 -4 -119 -10 -191 -17 -198 -20
-20 -48 -7 -59 28 -5 17 -13 32 -17 32 -4 0 -8 8 -9 18 0 10 -3 12 -6 5 -18
-46 -22 21 -19 311 2 179 7 329 10 334 3 5 6 59 7 121 2 107 10 145 22 99 4
-12 8 -20 11 -18 7 8 38 332 32 338 -3 3 -6 -8 -7 -24 0 -16 -3 -24 -5 -17
-10 22 59 439 101 620 18 76 18 74 0 67 -8 -4 -12 -10 -9 -15 3 -5 0 -9 -5 -9
-6 0 -11 3 -11 8 0 18 -53 62 -74 62 -15 0 -26 7 -29 20 -6 23 -3 24 22 8 14
-9 33 -8 80 2 59 12 81 34 44 43 -15 3 -14 6 7 16 l25 11 -27 -3 c-20 -3 -34
4 -54 24 -15 16 -34 29 -41 29 -7 0 -13 5 -13 10 0 6 17 10 38 10 63 0 112 12
112 26 0 8 -4 14 -10 14 -5 0 -10 5 -10 10 0 12 -47 59 -76 76 -15 9 -7 12 45
17 34 4 67 9 72 13 14 8 -49 94 -79 106 -25 10 -20 12 47 20 41 4 76 10 79 12
6 6 -79 106 -90 106 -4 0 -8 5 -8 10 0 6 28 10 65 10 66 0 78 7 49 31 -8 7
-22 25 -30 41 -21 40 -61 38 -96 -4 l-27 -33 -36 38 c-45 49 -73 47 -99 -7
l-19 -38 -49 53 c-26 29 -45 56 -41 60 5 4 44 3 88 -2 44 -5 116 -10 160 -10
44 -1 107 -2 139 -2 34 -1 61 3 63 9 5 14 -56 104 -71 104 -13 0 -31 -20 -59
-63 l-17 -27 -128 0 c-116 0 -130 2 -151 21 -12 12 -25 19 -28 16 -11 -11 -64
17 -77 40 l-13 25 -20 -35 c-12 -19 -24 -44 -28 -56 -6 -20 -3 -21 54 -21 33
0 63 -5 67 -11 9 -16 -29 -63 -54 -67 -13 -2 -27 6 -38 22 -9 14 -22 26 -28
26 -14 0 -58 -85 -49 -94 4 -3 25 -6 48 -6 55 0 76 -21 50 -50 -24 -26 -39
-25 -63 5 -27 34 -38 32 -62 -15 -31 -60 -28 -66 36 -73 31 -3 58 -8 61 -11 7
-6 -24 -56 -35 -56 -4 0 -20 11 -36 25 -16 14 -34 24 -40 22 -14 -4 -34 -46
-42 -85 -6 -30 -5 -31 37 -34 33 -2 45 -7 47 -22 7 -33 -14 -40 -46 -16 -39
29 -56 22 -74 -32 -20 -58 -15 -68 38 -68 50 0 68 -21 41 -47 -13 -14 -18 -13
-47 8 l-32 24 -19 -24 c-25 -31 -35 -70 -22 -90 8 -12 25 -15 68 -14 48 2 56
0 53 -15 -2 -9 -14 -22 -27 -28 -19 -10 -30 -9 -57 3 -43 21 -58 13 -73 -38
-12 -40 -12 -44 9 -61 12 -10 39 -18 59 -18 33 -1 35 -2 17 -15 -12 -9 -30
-12 -50 -8 -17 3 -35 6 -40 7 -5 0 -15 -21 -22 -49 -12 -44 -11 -52 4 -68 11
-13 27 -17 49 -15 22 3 33 0 33 -8 0 -21 -16 -25 -59 -15 -39 8 -40 8 -50 -22
-18 -51 -14 -83 14 -101 14 -9 30 -14 35 -11 6 3 10 1 10 -4 0 -14 -53 -14
-67 0 -8 8 -14 -4 -23 -46 -11 -54 -11 -58 11 -81 12 -13 34 -24 48 -25 l26 0
-23 -11 c-16 -8 -29 -8 -48 1 -15 6 -28 10 -30 9 -2 -2 -6 -33 -10 -69 -6 -63
-5 -66 17 -74 63 -21 65 -23 32 -24 -17 -1 -35 4 -39 10 -15 24 -26 -14 -39
-137 -8 -71 -17 -142 -19 -159 -3 -16 -10 -88 -16 -160 -6 -71 -18 -170 -27
-220 -12 -70 -15 -128 -10 -256 6 -175 3 -209 -19 -209 -15 0 -19 16 -29 95
-3 28 -8 71 -12 98 -4 38 -2 52 13 68 14 15 20 40 23 96 2 51 0 73 -7 69 -6
-3 -13 -20 -17 -36 -10 -46 -21 -44 -35 5 -20 70 5 672 35 875 28 184 115 650
151 810 104 455 278 909 445 1165 67 102 178 212 249 247 34 16 62 38 73 57
19 33 40 38 81 20z m-1633 -421 c-7 -40 -16 -82 -21 -93 -5 -11 -18 -45 -29
-76 -10 -31 -29 -73 -41 -94 -12 -21 -35 -72 -51 -114 -16 -42 -34 -85 -39
-96 -11 -25 -48 -140 -60 -184 -5 -18 -13 -38 -19 -44 -6 -6 -11 -17 -11 -25
0 -8 -6 -28 -14 -45 -7 -18 -19 -47 -25 -64 -26 -78 -34 -93 -47 -93 -14 0
-15 25 -2 46 4 5 10 33 14 62 3 28 10 49 14 47 5 -3 6 4 3 14 -3 10 11 59 30
107 20 49 39 103 43 119 4 17 15 48 25 70 23 52 54 139 88 245 25 76 47 130
113 268 31 66 45 42 29 -50z m-11831 -552 c0 -9 8 -12 25 -8 14 2 25 9 25 14
0 6 6 5 15 -2 8 -6 23 -9 36 -5 14 5 25 2 30 -6 7 -11 9 -11 9 -1 0 9 33 11
148 7 81 -3 169 -1 197 4 27 5 54 6 60 2 5 -5 25 -8 43 -9 45 0 49 -1 35 -10
-7 -4 11 -8 40 -8 39 0 61 -6 84 -22 19 -14 34 -18 38 -12 8 12 27 2 75 -39
19 -17 40 -31 47 -31 15 0 33 -32 33 -59 0 -12 4 -21 9 -21 17 0 20 -55 4 -80
-30 -45 -137 -140 -160 -140 -12 0 -24 -4 -27 -9 -9 -14 -54 -19 -92 -11 -19
4 -34 5 -34 1 0 -8 -29 -6 -165 11 -55 8 -106 17 -113 21 -8 6 -15 -1 -22 -18
-6 -14 -23 -38 -40 -52 -16 -13 -30 -31 -30 -38 0 -8 -6 -18 -14 -22 -7 -4
-19 -19 -26 -33 -23 -44 -75 -100 -92 -100 -10 0 -18 -5 -18 -11 0 -5 -19 -18
-42 -28 -39 -15 -84 -17 -493 -15 -449 3 -499 4 -512 17 -3 4 -19 7 -35 7 -15
0 -38 6 -49 13 -17 10 -23 9 -26 -1 -3 -6 -10 -9 -16 -5 -28 17 -185 22 -307
9 -80 -9 -194 -12 -327 -8 -77 2 -84 4 -113 32 -17 17 -35 30 -39 30 -13 0
-111 100 -111 113 0 7 -12 23 -25 36 -23 22 -30 38 -26 69 1 6 -5 12 -14 12
-13 0 -14 4 -4 22 7 12 12 35 11 50 0 16 3 26 8 23 5 -3 16 10 25 29 29 60 51
73 160 88 55 7 138 13 185 12 210 -4 463 -4 545 0 117 6 517 17 667 19 65 1
113 4 108 5 -6 2 -10 10 -10 18 0 14 -22 22 -80 26 -29 3 -35 7 -35 26 0 29
18 30 27 0 5 -20 6 -18 7 10 1 32 13 39 59 33 8 -1 20 3 28 10 10 8 36 10 87
5 51 -5 68 -4 57 4 -11 7 -7 8 18 4 22 -5 32 -3 32 6 0 9 14 10 50 5 42 -6 50
-4 50 9 0 9 5 16 10 16 6 0 10 -6 10 -14z m1735 -260 c173 -21 218 -24 240
-16 15 6 25 6 25 0 0 -5 26 -9 58 -8 67 1 417 -9 417 -12 0 -4 138 -9 460 -15
176 -4 344 -10 373 -14 28 -5 52 -5 52 -1 0 4 26 3 58 -2 31 -5 105 -8 164 -6
58 2 105 0 103 -3 -2 -3 47 -6 108 -6 62 -1 114 -3 117 -4 3 -1 9 -1 14 0 17
3 132 1 166 -3 46 -6 392 -15 855 -21 344 -5 374 -7 435 -27 36 -12 72 -28 81
-35 8 -7 20 -13 26 -13 19 0 48 -42 50 -73 3 -43 -15 -87 -41 -98 -12 -6 -37
-18 -56 -29 -35 -19 -41 -19 -195 -6 -33 2 -170 8 -305 11 -135 4 -248 9 -251
11 -7 4 -311 13 -674 19 -438 9 -681 16 -708 21 -15 3 -34 0 -42 -6 -10 -8
-19 -9 -27 -3 -13 10 -156 16 -398 16 -76 1 -128 5 -132 11 -5 8 -11 7 -19 -1
-7 -7 -20 -9 -33 -4 -11 4 -110 9 -219 9 -109 1 -203 4 -208 7 -5 3 -133 8
-286 10 -170 3 -280 8 -287 15 -5 5 -21 10 -35 10 -21 0 -23 2 -11 10 12 8 10
10 -8 10 -13 0 -21 4 -18 9 3 5 -9 15 -27 22 -33 14 -56 31 -87 63 -10 10 -23
15 -29 11 -6 -3 -11 0 -11 8 0 8 -14 24 -30 37 -21 16 -29 29 -24 42 3 10 1
18 -5 18 -6 0 -11 7 -11 16 0 13 3 14 13 5 10 -8 17 -7 25 1 23 23 201 30 337
14z m11543 -171 c5 -5 -32 -142 -49 -184 l-10 -24 -135 5 c-75 3 -140 10 -146
16 -13 13 16 148 39 182 16 23 17 23 156 16 78 -3 143 -9 145 -11z m-210 -741
c27 -4 32 -9 32 -33 0 -39 -21 -144 -32 -156 -9 -10 -201 -9 -252 1 l-29 6 7
64 c7 71 21 115 39 126 12 7 174 2 235 -8z m-11169 -286 c10 -10 15 -10 18 -1
3 8 45 10 155 7 83 -3 155 -7 159 -10 5 -3 9 -1 9 5 0 6 6 8 13 5 13 -5 300
-12 587 -14 68 -1 132 -5 140 -10 9 -5 133 -11 276 -14 142 -3 291 -8 329 -11
39 -2 111 -6 160 -9 253 -14 325 -20 325 -28 0 -5 6 -6 13 -1 13 9 137 11 137
3 0 -4 60 -6 133 -7 72 0 170 -3 217 -7 47 -3 154 -9 239 -12 176 -7 212 -19
264 -91 29 -41 29 -43 13 -68 -9 -14 -14 -30 -11 -35 4 -6 -2 -13 -12 -17 -10
-3 -26 -13 -35 -21 -13 -11 -46 -15 -125 -16 -119 -1 -401 12 -412 19 -4 2
-63 5 -132 6 -68 1 -129 6 -136 11 -6 5 -33 7 -60 6 -67 -4 -567 21 -763 38
-36 3 -108 7 -160 9 -52 1 -95 3 -95 4 0 2 -136 9 -290 15 -60 2 -121 7 -135
10 -14 3 -74 8 -135 10 -126 5 -253 15 -275 23 -12 4 -114 9 -305 15 -16 0
-34 6 -38 12 -6 8 -10 8 -13 -1 -4 -8 -12 -8 -32 3 -14 7 -47 16 -72 20 -26 4
-53 15 -65 27 -18 19 -20 20 -23 4 -5 -25 -21 -21 -32 9 -16 41 -12 72 10 79
11 3 20 10 20 15 0 5 24 7 53 4 35 -4 48 -3 38 4 -14 10 -9 13 30 21 3 0 11
-5 18 -11z m11114 -500 c17 -9 19 -18 13 -91 -4 -47 -12 -84 -19 -89 -27 -17
-259 0 -280 21 -16 16 -12 162 5 173 17 12 256 0 281 -14z m2326 -64 c-11 -14
-10 -15 6 -12 15 2 21 -5 26 -27 4 -16 7 -22 8 -12 0 9 6 17 11 17 6 0 10 7
10 16 0 8 -4 12 -10 9 -5 -3 -10 -1 -10 5 0 7 7 10 15 7 8 -4 17 -2 20 4 7 11
25 3 25 -11 0 -5 -8 -6 -17 -3 -15 6 -16 5 -3 -9 14 -15 17 -14 38 5 12 11 22
15 22 9 0 -6 -4 -14 -10 -17 -5 -3 -10 -12 -10 -18 0 -7 4 -6 10 3 5 8 13 11
17 6 9 -9 -82 -93 -110 -102 -11 -3 -16 -12 -13 -20 3 -8 -1 -14 -10 -14 -8 0
-12 -4 -9 -10 10 -16 -11 -11 -26 6 -10 12 -10 17 0 23 10 6 9 10 -4 15 -9 3
-21 4 -26 0 -13 -7 -11 10 2 23 7 7 6 12 -5 16 -11 4 -16 1 -16 -11 0 -15 -2
-15 -10 -2 -9 13 -10 13 -10 0 0 -19 11 -34 33 -46 16 -9 16 -12 2 -29 -11
-14 -14 -15 -13 -5 2 10 -5 15 -20 15 -13 0 -27 6 -31 13 -4 7 -15 10 -26 6
-13 -5 -16 -3 -13 7 3 8 12 13 21 13 14 -1 14 1 0 22 -17 27 -25 31 -17 9 4
-10 0 -15 -15 -15 -12 0 -21 5 -21 10 0 6 5 10 11 10 5 0 7 5 4 10 -10 16 5
49 20 44 7 -3 16 3 19 14 9 28 40 39 33 12 -3 -12 -1 -18 5 -14 6 4 8 -1 3
-15 -4 -12 -2 -21 4 -21 6 0 11 4 11 8 0 4 16 8 35 8 39 0 56 11 35 24 -11 7
-11 11 -1 24 8 9 16 16 18 16 3 0 0 -7 -8 -16z m-9597 -388 c81 -2 159 -7 175
-10 15 -3 59 -8 96 -11 86 -7 124 -26 144 -72 19 -47 8 -69 -55 -107 -46 -28
-51 -29 -202 -31 -91 -1 -191 4 -242 11 -48 8 -93 11 -101 8 -8 -3 -18 0 -22
5 -3 6 -10 9 -15 6 -8 -5 -71 14 -80 24 -3 4 -17 14 -32 24 -16 10 -28 25 -28
35 0 10 -5 23 -10 28 -13 13 4 64 20 64 6 0 9 4 5 9 -13 22 32 32 115 26 47
-3 151 -7 232 -9z m6307 -215 c-1 -138 3 -221 11 -245 11 -36 12 -36 40 -21
33 17 59 19 61 5 1 -5 2 -15 3 -22 2 -22 44 -34 113 -32 167 5 252 4 308 -6
37 -6 61 -6 63 0 2 5 20 0 41 -11 48 -25 131 -33 131 -13 0 23 29 16 41 -9 12
-27 6 -25 119 -30 103 -4 141 -14 133 -33 -5 -14 11 -19 55 -15 31 3 19 -19
-28 -54 -30 -22 -43 -25 -124 -25 -83 0 -261 12 -376 25 -25 2 -109 9 -187 15
-288 21 -385 30 -402 40 -10 5 -27 26 -37 47 -15 32 -18 65 -18 213 -1 111 4
197 12 235 22 99 34 145 38 145 3 0 4 -94 3 -209z m-4004 108 c351 -74 633
-189 950 -387 96 -60 105 -67 260 -193 281 -229 559 -544 748 -848 107 -173
140 -234 139 -261 0 -14 9 -37 20 -50 11 -14 17 -18 13 -10 -4 8 1 6 9 -4 9
-12 13 -29 10 -43 -4 -12 -2 -23 2 -23 5 0 10 -12 11 -27 1 -18 -15 6 -47 69
-26 53 -58 113 -70 133 -19 31 -20 39 -9 46 11 7 11 9 1 9 -7 0 -11 4 -8 9 3
5 -2 11 -12 13 -14 4 -163 229 -197 298 -5 11 -13 20 -16 20 -4 0 -29 30 -55
68 -131 185 -455 519 -608 627 -15 11 -33 25 -40 30 -6 6 -27 22 -46 35 -19
13 -37 27 -40 30 -3 3 -27 20 -55 38 -27 17 -54 35 -60 39 -18 14 -129 79
-170 100 -22 12 -68 35 -101 52 -34 17 -69 31 -77 31 -8 0 -28 7 -44 15 -57
29 -142 65 -150 63 -4 -1 -22 5 -38 14 -17 9 -48 20 -69 24 -21 3 -62 15 -90
25 -28 11 -118 32 -201 49 -193 37 -203 40 -125 34 36 -2 110 -14 165 -25z
m-612 -32 c8 -3 18 -3 21 0 14 14 66 12 80 -3 15 -14 16 -14 17 3 0 16 1 16 9
-2 5 -11 9 -15 9 -8 1 7 8 10 16 7 8 -4 22 -1 30 6 12 10 16 9 20 -2 4 -10 15
-13 31 -10 20 3 23 7 12 14 -8 6 -1 7 21 3 23 -5 31 -4 27 4 -5 8 0 8 20 1 19
-8 31 -7 42 2 13 11 14 11 8 0 -6 -10 1 -12 28 -9 25 3 41 -1 55 -14 14 -13
35 -19 71 -19 27 0 50 -4 50 -10 0 -5 -9 -10 -21 -10 -11 0 -18 -4 -15 -8 3
-5 33 -4 67 1 54 9 64 8 74 -6 9 -13 21 -15 44 -11 20 4 31 3 31 -5 0 -7 9 -9
24 -5 14 3 27 1 32 -7 5 -9 9 -8 15 7 7 17 8 17 8 2 1 -10 9 -18 19 -18 10 0
23 -5 30 -12 14 -14 41 -20 62 -12 13 4 13 6 0 14 -13 9 -13 10 0 10 20 0 35
-11 43 -33 6 -15 10 -16 28 -7 27 15 35 6 21 -25 -7 -15 -8 -25 -2 -25 6 0 10
8 10 17 0 15 3 14 22 -5 18 -17 20 -24 10 -34 -10 -10 -15 -10 -23 2 -9 13
-10 13 -6 0 3 -10 15 -14 33 -13 30 2 64 -21 64 -44 0 -7 5 -13 10 -13 6 0 10
5 10 10 0 21 37 9 65 -20 22 -23 36 -29 52 -25 24 6 27 0 23 -42 -1 -13 3 -23
9 -23 6 0 11 7 11 16 0 23 24 11 28 -14 3 -18 10 -22 38 -22 23 0 38 -6 46
-20 7 -11 18 -20 25 -20 6 0 13 -3 15 -7 2 -5 22 -20 46 -36 23 -15 42 -32 42
-37 0 -6 6 -10 13 -10 7 0 23 -18 36 -39 19 -31 30 -39 49 -37 19 2 40 -11 81
-51 31 -30 71 -61 89 -68 17 -8 32 -20 32 -27 0 -17 72 -98 88 -98 6 0 19 -13
29 -30 9 -16 20 -30 24 -30 4 0 21 -22 39 -50 18 -27 36 -50 41 -50 5 0 16
-15 25 -32 9 -18 31 -46 49 -63 17 -16 35 -42 38 -56 4 -14 24 -43 46 -65 26
-25 41 -50 43 -70 2 -18 23 -57 46 -88 46 -62 52 -86 22 -86 -14 0 -18 -5 -13
-17 4 -11 3 -14 -5 -9 -14 9 -16 -13 -2 -34 8 -12 13 -13 29 -3 15 10 22 8 40
-8 12 -11 19 -25 15 -31 -10 -16 -12 -90 -1 -76 5 8 6 -13 3 -52 -3 -42 -2
-56 4 -40 8 24 8 23 11 -10 1 -19 2 -41 2 -48 -1 -10 2 -10 13 -1 12 9 14 5
14 -28 0 -21 6 -62 14 -91 7 -29 11 -64 8 -77 -3 -16 0 -25 8 -25 7 0 10 -7 6
-16 -3 -8 1 -25 8 -37 11 -16 13 -39 7 -88 -3 -36 -4 -76 0 -90 4 -13 7 -50 8
-82 1 -32 6 -67 11 -78 14 -25 22 -273 10 -324 -5 -22 -10 -86 -12 -143 -1
-57 -6 -106 -10 -108 -13 -8 -55 95 -114 281 -222 707 -408 1106 -694 1487
-136 181 -357 405 -537 545 -180 140 -444 290 -637 363 -161 60 -351 112 -426
115 -8 0 -20 3 -25 6 -18 10 -65 9 -65 -1 0 -6 -9 -10 -20 -10 -11 0 -20 6
-20 14 0 11 -9 11 -52 1 -29 -7 -77 -22 -105 -34 -29 -11 -53 -16 -53 -11 0 6
5 10 10 10 6 0 10 7 10 15 0 8 -7 15 -15 15 -8 0 -15 -7 -15 -15 0 -8 -4 -15
-10 -15 -5 0 -19 -9 -30 -20 -24 -24 -49 -28 -30 -5 7 9 10 19 6 22 -4 4 -11
1 -16 -6 -5 -10 -20 -12 -49 -8 -23 3 -39 1 -35 -4 3 -5 -2 -9 -11 -9 -9 0
-26 -9 -38 -21 -17 -15 -30 -19 -54 -14 -23 4 -34 1 -41 -11 -10 -18 -44 -22
-82 -10 -16 5 -20 4 -12 -2 11 -7 11 -10 -2 -15 -9 -4 -16 -1 -17 6 0 8 -2 9
-5 1 -3 -7 -14 -9 -26 -6 -12 3 -19 1 -16 -4 4 -5 -8 -10 -25 -11 -17 -2 -34
3 -38 9 -5 8 -14 7 -31 -4 -26 -17 -112 -33 -104 -20 3 5 -9 9 -27 10 l-32 1
25 -15 c24 -15 24 -15 -17 -9 -29 3 -43 1 -43 -6 0 -7 -9 -9 -25 -5 -14 4 -25
2 -25 -4 0 -5 -19 -10 -42 -11 -35 -1 -38 -2 -18 -8 l25 -7 -25 -7 c-13 -3
-27 -2 -31 4 -6 11 -53 8 -65 -4 -4 -4 -22 -7 -40 -7 -18 0 -36 -4 -39 -10 -3
-5 -20 -10 -36 -10 -18 0 -28 -4 -24 -10 4 -6 -8 -10 -29 -10 -19 0 -38 5 -41
11 -5 7 -15 3 -29 -9 -28 -27 -130 -39 -151 -18 -8 8 -15 19 -15 24 0 15 136
99 255 157 123 59 416 165 458 165 9 0 17 4 17 9 0 5 15 13 33 16 17 4 37 11
42 15 10 7 59 21 180 54 83 22 219 37 352 39 90 2 113 5 113 16 0 11 4 11 18
-2 22 -20 43 -22 60 -5 7 7 12 8 12 2 0 -5 9 -10 20 -11 14 -1 20 5 21 20 l0
22 9 -21 c4 -12 15 -24 23 -27z m-4978 -158 c4 -6 36 -10 73 -9 89 2 225 -8
287 -20 28 -6 66 -9 85 -8 52 3 302 -14 485 -32 95 -9 213 -17 370 -25 39 -2
70 -4 70 -5 0 0 52 -3 115 -6 177 -8 206 -10 216 -16 5 -3 28 -5 52 -3 24 1
63 -1 87 -6 24 -4 103 -9 176 -11 103 -2 135 -5 147 -18 9 -8 19 -15 24 -15
15 0 28 -29 28 -65 0 -27 -7 -42 -30 -62 -43 -38 -73 -41 -185 -19 -55 10
-127 20 -159 20 -33 1 -66 7 -74 13 -10 9 -16 8 -23 -3 -6 -10 -11 -11 -16 -3
-5 7 -33 12 -63 12 -83 1 -155 8 -167 15 -7 4 -14 3 -17 -1 -5 -9 -21 -8 -83
3 -43 7 -287 23 -292 19 -2 -2 -13 3 -23 13 -16 14 -18 14 -18 0 0 -13 -5 -14
-32 -6 -18 5 -63 9 -99 8 -36 -1 -71 1 -77 5 -7 4 -15 5 -19 3 -7 -4 -59 -1
-255 18 -31 2 -59 1 -62 -4 -3 -4 -27 -3 -53 4 -77 20 -123 25 -123 14 0 -6
-4 -8 -9 -4 -18 11 -121 14 -127 3 -4 -7 -9 -6 -14 2 -4 6 -38 13 -76 15 -38
3 -89 7 -114 10 -25 3 -65 7 -90 10 -64 6 -182 36 -201 52 -11 10 -18 10 -27
1 -8 -8 -16 -5 -31 13 -11 13 -19 29 -16 36 2 6 -1 14 -8 16 -25 9 1 16 75 21
43 2 81 6 85 9 4 2 46 5 93 6 46 1 86 4 89 7 8 7 20 4 26 -7z m8552 -220 c-9
-123 -43 -281 -73 -340 -13 -27 -26 -49 -29 -49 -6 0 2 110 8 117 3 3 3 11 0
19 -3 8 0 14 6 14 6 0 8 6 5 13 -2 7 2 46 11 86 8 40 13 77 9 82 -3 5 2 12 10
15 11 4 13 11 7 23 -6 11 -4 28 7 51 41 85 46 80 39 -31z m-3889 -340 c189
-20 500 -112 657 -192 82 -42 89 -48 73 -59 -10 -6 -4 -16 22 -38 19 -16 43
-32 54 -36 10 -3 57 -31 105 -62 47 -30 119 -70 159 -89 64 -29 93 -53 233
-191 209 -204 338 -371 479 -617 130 -225 247 -518 220 -551 -8 -8 -2 -40 19
-105 41 -128 77 -300 97 -461 15 -118 15 -173 5 -478 -15 -460 -31 -577 -113
-862 -6 -21 -15 -38 -20 -38 -4 0 -8 -6 -8 -13 0 -8 -18 -54 -39 -104 -22 -50
-45 -111 -51 -134 -13 -49 -73 -181 -100 -219 -9 -14 -34 -56 -55 -95 -49 -89
-224 -354 -278 -420 -95 -115 -249 -259 -377 -351 -228 -165 -497 -287 -775
-349 -111 -25 -138 -27 -365 -28 -243 -2 -296 3 -465 39 -194 42 -465 150
-564 226 -34 26 -19 22 52 -11 116 -55 386 -139 552 -172 183 -36 482 -40 645
-8 124 24 303 70 365 94 263 99 568 307 801 546 174 180 266 310 386 552 128
258 208 458 233 585 8 43 23 120 34 172 80 390 79 871 -3 1260 -9 41 -27 120
-41 175 -14 55 -31 120 -37 145 -6 25 -33 99 -60 165 -27 66 -52 130 -55 143
-3 12 -10 22 -15 22 -5 0 -7 4 -3 9 3 5 -2 16 -10 24 -8 9 -15 20 -15 24 0 14
-40 94 -69 138 -15 22 -40 65 -55 95 -63 120 -226 347 -335 464 -97 104 -301
280 -403 348 -212 141 -330 200 -557 279 -286 101 -290 103 -109 69 127 -24
188 -43 327 -100 56 -23 105 -40 108 -37 6 7 -146 80 -223 106 -69 24 -143 41
-339 78 -123 23 -166 27 -350 27 -160 0 -233 -4 -305 -17 -99 -18 -340 -90
-375 -111 -11 -7 -36 -18 -55 -25 -112 -38 -369 -214 -538 -368 -46 -43 -88
-80 -91 -83 -8 -6 -165 -183 -196 -221 -85 -102 -250 -396 -291 -518 -28 -84
-60 -159 -77 -179 -8 -10 -12 -10 -18 -1 -9 16 -32 -26 -26 -49 3 -12 5 -10 6
6 0 13 5 21 10 17 6 -3 2 -33 -9 -70 -10 -36 -19 -68 -18 -70 0 -19 -17 -108
-42 -210 -16 -66 -35 -165 -41 -220 -6 -55 -12 -109 -14 -120 -2 -11 -4 -27
-4 -35 -1 -8 -13 -28 -27 -45 l-25 -30 6 100 c6 95 35 239 90 440 13 50 27
104 31 120 6 28 5 29 -10 14 -16 -14 -30 -57 -40 -114 -2 -11 -15 -60 -28
-110 -14 -49 -31 -111 -38 -137 -13 -48 -26 -63 -27 -30 -2 30 18 135 33 175
16 42 32 110 39 161 4 39 81 255 120 340 14 30 25 58 25 61 0 25 128 259 219
400 158 246 374 461 646 640 245 162 445 246 710 299 176 35 437 46 623 25z
m-83 -134 c70 -9 50 -10 -165 -10 -275 0 -356 -12 -547 -79 -168 -58 -420
-180 -431 -208 -2 -4 -8 -8 -14 -8 -14 0 -175 -128 -271 -214 -77 -70 -256
-265 -308 -336 -68 -92 -174 -181 -136 -113 92 163 347 447 519 576 151 113
397 250 526 292 28 9 52 21 52 26 0 6 4 7 10 4 5 -3 52 5 102 19 81 21 217 47
313 60 56 7 270 2 350 -9z m-9234 -451 c11 -14 13 -14 21 1 8 14 11 14 25 0 9
-9 23 -13 31 -10 8 3 19 0 23 -7 6 -10 15 -10 39 -1 16 6 28 7 24 2 -8 -13 24
-23 39 -11 13 10 139 4 133 -7 -2 -3 35 -6 82 -5 48 0 92 -2 97 -5 12 -6 27
-10 75 -16 42 -5 81 -12 135 -23 22 -4 64 -7 93 -7 28 1 52 -3 52 -8 0 -5 22
-6 50 -2 34 5 55 3 65 -5 8 -7 21 -10 30 -7 8 4 17 2 21 -4 3 -6 13 -8 21 -5
9 4 21 2 27 -2 6 -5 18 -10 26 -10 31 -1 176 -12 210 -16 19 -2 47 -9 62 -15
17 -6 29 -7 33 -1 4 7 13 6 25 0 13 -7 21 -7 26 1 5 8 8 8 13 0 4 -6 41 -14
82 -17 41 -3 119 -12 174 -21 55 -8 134 -17 175 -20 41 -3 80 -10 86 -15 7 -5
38 -10 70 -13 33 -2 75 -6 94 -10 69 -12 236 -34 290 -39 30 -3 93 -10 140
-16 47 -6 117 -15 155 -20 39 -4 117 -15 175 -24 58 -8 130 -17 160 -20 83 -9
132 -16 140 -21 4 -3 73 -12 154 -20 80 -8 157 -20 171 -25 15 -6 47 -10 73
-10 38 -1 165 -17 267 -34 11 -2 70 -9 130 -16 61 -6 151 -18 200 -26 212 -33
359 -55 411 -59 30 -3 59 -7 63 -9 10 -7 191 -33 321 -46 58 -6 114 -15 125
-20 24 -10 85 -18 220 -30 55 -5 143 -16 195 -24 52 -9 208 -29 345 -46 138
-17 311 -39 385 -50 74 -10 193 -24 265 -30 71 -6 132 -14 135 -17 3 -2 5 -48
4 -101 0 -97 -3 -110 -89 -462 -64 -259 -87 -298 -156 -267 -19 9 -74 20 -124
26 -49 5 -99 12 -110 14 -11 3 -55 8 -98 12 -42 4 -80 12 -83 16 -3 5 -29 9
-57 9 -29 0 -68 5 -87 10 -19 5 -94 17 -165 26 -141 17 -170 21 -170 24 0 1
-25 4 -55 6 -30 3 -62 8 -70 11 -21 9 -36 12 -113 23 -38 6 -77 15 -87 20 -10
5 -42 10 -71 11 -30 1 -65 8 -78 16 -14 9 -36 13 -55 10 -18 -3 -43 1 -56 9
-14 7 -46 13 -72 14 -27 0 -48 4 -48 10 0 5 -7 7 -15 4 -8 -3 -31 0 -52 7 -21
7 -65 14 -98 16 -33 2 -79 4 -102 5 -24 2 -43 5 -43 8 0 5 -10 6 -115 11 -33
2 -63 8 -67 13 -9 13 -33 16 -115 16 -34 -1 -90 4 -125 10 -35 7 -76 13 -93
15 -16 2 -70 10 -120 18 -49 8 -91 10 -93 6 -2 -5 -20 -2 -40 6 -37 14 -111
23 -227 28 -33 1 -63 5 -66 10 -3 4 -48 10 -100 12 -124 7 -167 10 -271 19
-48 5 -89 7 -90 5 -2 -1 -13 3 -25 10 -16 8 -29 9 -42 1 -13 -6 -21 -6 -23 0
-3 9 -162 23 -265 23 -19 0 -35 7 -38 15 -4 10 -9 11 -18 4 -15 -13 -189 5
-199 21 -5 8 -11 7 -21 -2 -8 -6 -17 -8 -19 -2 -1 5 -37 10 -78 12 -41 2 -78
8 -81 13 -4 4 -37 12 -75 16 -172 21 -303 40 -352 50 -29 7 -56 9 -59 6 -4 -3
-11 -2 -17 3 -14 12 -89 24 -138 23 -21 -1 -38 3 -38 8 0 5 -23 12 -51 16 -29
4 -53 13 -56 21 -4 9 -9 10 -17 4 -7 -6 -30 -3 -66 9 -65 23 -90 25 -90 8 -1
-7 -7 -2 -14 11 -9 16 -16 20 -20 12 -6 -9 -11 -9 -21 -1 -8 7 -19 9 -25 5 -5
-3 -10 -1 -10 5 0 7 -8 9 -20 5 -12 -4 -20 -2 -20 5 0 7 -7 9 -16 6 -9 -4 -22
-2 -28 3 -6 5 -23 12 -36 14 -14 2 -32 6 -40 9 -55 20 -99 30 -108 24 -6 -4
-16 3 -22 14 -8 15 -17 19 -31 15 -14 -5 -19 -2 -19 10 0 13 -6 16 -25 11 -19
-5 -25 -2 -25 9 0 9 -5 13 -10 10 -6 -4 -8 -11 -5 -16 4 -5 1 -9 -4 -9 -6 0
-11 5 -11 10 0 6 -7 10 -16 10 -9 0 -23 8 -30 18 -8 10 -13 12 -14 5 0 -21
-27 -15 -53 11 -16 16 -32 23 -44 20 -11 -3 -27 2 -37 11 -12 12 -16 13 -17 3
0 -7 -5 -2 -10 11 -7 18 -12 21 -23 12 -11 -9 -15 -8 -20 5 -5 13 -9 14 -21 4
-12 -10 -15 -9 -15 4 0 9 -8 16 -19 16 -11 0 -23 5 -26 10 -4 6 -11 8 -16 5
-5 -4 -9 -1 -9 4 0 6 -14 11 -31 11 -18 0 -28 4 -24 10 8 13 -20 24 -42 15
-20 -7 -29 -4 -26 7 2 4 -5 7 -15 6 -33 -3 -81 14 -87 31 -3 10 -17 18 -36 19
-17 1 -39 7 -49 12 -10 6 -39 10 -64 10 -25 0 -48 5 -51 10 -4 6 -10 8 -13 6
-4 -2 -30 0 -57 5 -28 6 -59 12 -70 13 -11 2 -28 7 -37 11 -10 4 -25 5 -33 2
-8 -4 -17 -2 -20 3 -4 6 -17 10 -30 10 -13 0 -27 5 -30 10 -3 6 -28 10 -56 10
-44 0 -51 4 -48 26 0 4 -5 10 -12 15 -17 10 7 40 29 37 8 -2 17 3 19 10 3 6 0
12 -6 12 -6 0 -11 5 -11 10 0 6 5 10 11 10 7 0 18 8 25 18 12 15 13 15 14 1 0
-17 28 -34 38 -24 3 3 0 5 -6 5 -7 0 -12 7 -12 15 0 8 7 15 16 15 11 0 14 6 9
20 -7 22 5 26 22 9 8 -8 16 -8 30 0 17 10 17 10 -2 11 -16 0 -14 3 10 16 17 8
37 22 45 30 13 13 12 17 -10 34 -20 15 -23 21 -12 31 10 11 12 10 12 -4 0 -9
5 -17 11 -17 7 0 9 9 6 21 -7 27 27 62 54 54 16 -5 19 -2 19 25 0 23 5 33 20
37 11 3 20 9 20 14 0 5 24 9 53 10 28 0 46 3 40 6 -7 2 -13 9 -13 14 0 15 26
10 41 -7z m2948 -111 c30 -11 46 -13 48 -6 2 6 21 9 46 6 24 -3 59 -1 80 5 20
6 37 7 37 2 0 -5 54 -8 120 -7 66 1 120 -2 120 -6 0 -5 4 -6 8 -3 8 5 136 7
182 3 14 -1 30 -6 37 -10 6 -4 13 -2 15 5 3 8 15 9 49 1 24 -6 59 -9 77 -6 22
4 32 1 32 -8 0 -9 3 -10 11 -2 6 6 34 9 62 7 29 -2 111 -6 182 -8 267 -11 361
-16 388 -21 16 -3 62 -7 103 -8 40 -1 74 -5 74 -9 0 -5 19 -8 43 -8 23 0 103
-7 177 -16 74 -9 160 -17 190 -19 30 -1 91 -7 135 -14 44 -6 127 -14 185 -17
58 -3 109 -8 114 -11 5 -3 54 -7 110 -9 55 -2 137 -8 181 -14 44 -6 98 -11
120 -11 22 0 83 -4 135 -9 52 -5 151 -12 220 -15 166 -8 258 -14 360 -25 47
-6 129 -10 182 -10 l97 0 -6 -37 c-12 -92 -72 -231 -118 -277 -24 -24 -26 -25
-67 -10 -56 20 -182 41 -351 59 -146 16 -154 17 -230 34 -27 6 -51 9 -55 7 -4
-2 -30 0 -57 5 -54 10 -163 25 -260 34 -33 4 -105 13 -160 20 -55 8 -154 21
-220 30 -66 8 -147 20 -180 25 -33 5 -114 14 -180 20 -66 6 -138 15 -160 20
-22 6 -76 12 -120 14 -167 8 -274 18 -380 32 -241 33 -332 45 -383 49 -30 3
-58 7 -62 10 -5 3 -37 8 -72 10 -35 3 -81 9 -103 15 -22 5 -87 14 -145 20 -58
6 -117 17 -132 25 -17 8 -28 9 -30 3 -2 -6 -24 -4 -58 6 -29 9 -72 16 -95 16
-22 0 -51 7 -63 16 -12 8 -22 11 -22 7 0 -5 -20 -8 -44 -8 -24 0 -42 3 -40 6
7 12 -63 37 -91 31 -23 -4 -27 -2 -22 11 3 9 -1 18 -9 21 -25 10 -32 7 -37
-11 -3 -16 -5 -16 -11 2 -4 11 -12 28 -17 38 -12 22 2 22 60 0z m4800 -1413
c146 -74 232 -259 202 -430 -22 -123 -82 -214 -167 -255 -22 -11 -69 -21 -106
-23 -62 -4 -74 -1 -141 33 -154 76 -222 239 -187 448 10 66 63 158 112 197 77
60 203 73 287 30z m706 -131 c78 -29 156 -106 195 -193 72 -158 39 -382 -70
-481 -21 -19 -67 -28 -75 -15 -3 5 -26 2 -51 -7 -24 -8 -58 -13 -74 -11 -17 3
-30 1 -30 -3 0 -5 -20 -8 -45 -7 -43 1 -59 11 -32 21 7 4 6 6 -5 6 -9 1 -18
-5 -21 -11 -5 -17 -37 8 -37 29 0 8 -15 20 -34 28 -22 9 -38 25 -46 47 -7 18
-21 42 -31 53 -36 41 -57 188 -40 279 40 218 213 334 396 265z m-1526 -510 c1
-28 11 -64 25 -90 14 -27 26 -72 30 -114 7 -72 34 -186 46 -195 6 -4 16 -83
39 -293 6 -53 9 -58 41 -75 31 -15 38 -26 63 -102 69 -207 187 -469 286 -633
65 -108 178 -264 251 -347 32 -36 70 -85 85 -109 15 -24 43 -60 63 -81 21 -20
52 -55 70 -77 31 -40 127 -103 155 -103 7 0 58 -30 113 -66 186 -124 462 -239
676 -284 257 -53 498 -47 775 21 230 56 470 171 643 308 94 75 236 199 283
246 38 39 224 271 245 305 28 48 77 101 68 76 -6 -17 -5 -17 11 -5 27 23 13
-6 -58 -112 -335 -504 -863 -836 -1431 -898 -281 -31 -613 8 -840 98 -153 61
-471 222 -513 261 -11 10 -36 25 -55 33 -45 18 -237 193 -355 323 -187 205
-299 363 -399 561 -32 65 -140 328 -186 458 -10 28 -28 74 -38 103 -58 152
-102 440 -107 697 -2 110 0 179 5 165 4 -14 8 -46 9 -71z m3736 24 c68 -34
141 -113 178 -191 28 -60 31 -74 31 -176 1 -171 -37 -258 -151 -345 -94 -70
-276 -63 -303 12 -5 16 -19 31 -30 34 -11 3 -20 11 -20 17 0 6 -10 20 -21 30
-16 14 -23 15 -29 6 -9 -14 -26 25 -21 49 1 7 -2 11 -6 8 -10 -6 -36 40 -52
93 -16 53 -7 226 14 278 20 49 32 49 17 0 -6 -18 -12 -53 -15 -78 -3 -25 -3
-37 0 -27 2 9 9 17 14 17 5 0 7 12 4 28 -4 22 -4 23 4 7 5 -11 7 -45 4 -75
-19 -208 112 -380 289 -380 162 0 270 136 264 335 -1 64 -8 93 -31 143 -31 69
-105 143 -162 164 -18 7 -33 15 -33 18 0 3 -28 7 -62 8 -117 6 -127 4 -158
-25 -14 -14 -37 -31 -51 -38 -15 -8 -29 -22 -33 -31 -4 -9 -9 -14 -12 -11 -17
16 58 101 114 128 91 44 171 45 257 2z m2960 -987 c381 -44 379 -44 695 -91
273 -40 514 -73 820 -110 217 -26 273 -35 410 -60 47 -9 132 -20 190 -26 58
-6 150 -19 205 -30 55 -10 118 -19 140 -19 72 1 346 -35 500 -65 39 -8 111
-19 160 -25 50 -7 142 -21 205 -32 63 -11 158 -24 210 -28 52 -5 133 -15 180
-24 47 -9 133 -20 191 -25 59 -6 126 -17 150 -26 24 -8 85 -18 134 -21 50 -4
115 -13 145 -21 83 -23 157 -41 243 -59 63 -13 77 -19 77 -35 0 -12 -9 -21
-27 -25 -16 -3 -38 -10 -51 -15 -13 -5 -54 -9 -92 -9 -66 0 -71 2 -115 40 -25
22 -56 42 -68 45 -101 21 -156 27 -261 30 -81 2 -148 10 -204 24 -46 12 -104
21 -130 21 -26 0 -80 9 -119 20 -62 17 -80 18 -124 9 -45 -10 -62 -9 -123 9
-134 39 -191 51 -291 62 -164 17 -267 31 -328 46 -32 8 -69 14 -82 14 -13 0
-70 9 -127 21 -57 11 -130 20 -163 20 -33 -1 -85 6 -115 14 -96 28 -179 44
-258 51 -68 6 -75 5 -62 -8 8 -8 34 -20 58 -27 35 -10 42 -16 37 -31 -3 -10
-1 -21 5 -25 12 -7 14 -52 2 -59 -5 -3 -20 6 -35 20 -14 13 -35 24 -46 24 -11
0 -22 4 -25 9 -8 12 -55 20 -62 10 -3 -5 -14 -9 -24 -9 -16 0 -19 7 -18 43 1
23 6 45 12 49 5 4 -1 9 -15 11 -13 3 -67 14 -119 26 -52 12 -129 23 -170 26
l-75 5 48 -15 c47 -16 67 -40 25 -30 -13 2 -88 14 -168 25 -80 11 -172 25
-205 31 -33 6 -87 12 -120 14 -52 2 -221 25 -295 40 -14 2 -92 14 -175 25
-128 17 -284 47 -605 115 -67 14 -148 29 -212 40 -21 3 -38 9 -38 14 0 17 106
26 180 15 41 -7 98 -14 125 -18z m2739 -610 c35 -15 106 -78 106 -94 0 -45
-85 -29 -128 24 -22 26 -38 35 -61 36 -17 1 -31 5 -31 10 0 4 -6 8 -14 8 -19
0 -29 17 -20 31 8 14 101 5 148 -15z m75 -351 c58 -2 126 -6 151 -9 25 -2 103
-7 174 -11 71 -3 132 -8 136 -10 3 -2 51 -7 105 -10 55 -4 165 -17 245 -30
383 -63 546 -85 627 -85 29 0 95 -6 146 -14 50 -8 137 -18 192 -21 113 -8 205
-28 220 -49 6 -7 19 -16 30 -18 25 -6 -45 -10 -155 -10 -154 0 -167 2 -180 17
-7 8 -16 12 -21 9 -22 -13 -163 -3 -404 31 -143 19 -275 38 -292 41 -18 4 -33
2 -33 -3 0 -10 105 -43 137 -43 12 0 25 -5 28 -10 4 -6 10 -8 15 -5 12 7 170
-17 170 -27 0 -12 -72 -10 -163 6 -104 19 -189 33 -297 51 -91 15 -91 15 -190
40 -36 9 -132 26 -215 39 -82 13 -177 31 -210 40 -33 10 -89 21 -125 26 -36 5
-96 18 -135 29 -38 11 -80 21 -92 21 -12 0 -25 5 -29 11 -4 8 3 9 26 4 18 -4
81 -9 139 -10z m3197 -255 c19 -6 34 -15 34 -20 0 -9 38 -6 130 12 79 15 128
12 230 -16 76 -21 165 -21 192 1 7 6 29 14 48 18 29 5 39 2 55 -15 11 -12 18
-25 15 -29 -3 -3 9 -10 27 -15 22 -7 33 -17 36 -35 8 -39 -1 -49 -53 -56 -44
-6 -140 15 -199 44 -8 4 -46 3 -85 -2 -99 -12 -231 -3 -264 19 -15 10 -40 17
-56 16 -16 -2 -32 1 -35 6 -3 5 -62 12 -130 15 -103 4 -127 8 -137 22 -8 10
-20 15 -29 12 -17 -7 -20 4 -5 19 14 14 186 17 226 4z m-17482 -1796 c1 -24
-3 -43 -11 -49 -15 -11 -20 -75 -8 -95 4 -7 2 -16 -6 -21 -12 -8 -12 -11 1
-19 13 -9 13 -12 -2 -21 -18 -10 -26 -69 -9 -69 5 0 11 -13 13 -29 3 -23 -1
-32 -19 -42 -20 -11 -26 -11 -34 1 -5 8 -7 25 -4 37 3 12 0 25 -5 28 -8 5 -8
11 0 20 8 10 7 14 -7 17 -10 2 -26 -6 -35 -17 -17 -20 -17 -20 -18 3 0 13 6
22 14 22 20 0 31 19 18 32 -13 13 -62 -36 -62 -62 0 -26 -39 -42 -77 -31 -17
5 -34 7 -36 4 -3 -2 -15 1 -27 7 -20 11 -21 13 -5 36 9 14 15 33 14 42 -1 9
-1 22 0 28 2 17 48 64 63 64 7 0 22 7 32 15 11 8 32 15 47 15 15 0 29 7 33 16
3 8 10 12 16 9 5 -3 10 -1 10 5 0 12 91 102 97 96 2 -2 5 -21 7 -42z m596
-145 c11 -8 12 -12 3 -16 -23 -9 -13 -23 16 -23 48 0 91 -12 91 -25 0 -15 31
-25 79 -25 26 0 32 -3 27 -15 -4 -13 2 -16 32 -15 75 2 157 -11 165 -26 5 -8
16 -12 26 -9 20 6 75 -18 110 -49 13 -12 21 -15 17 -8 -6 10 -4 11 10 4 48
-24 72 -33 85 -32 28 4 39 0 39 -16 0 -8 5 -12 10 -9 6 3 13 -1 16 -10 4 -10
13 -13 25 -10 14 5 17 2 13 -9 -8 -21 27 -33 94 -33 39 0 61 -6 82 -22 17 -12
36 -18 47 -15 14 4 15 3 4 -4 -15 -11 2 -27 19 -17 6 3 10 -1 10 -9 0 -21 -18
-30 -35 -16 -23 19 -19 -7 5 -33 11 -12 18 -27 15 -35 -3 -7 -5 -23 -5 -34 0
-19 -1 -19 -19 3 -21 26 -29 24 -34 -9 -5 -31 -49 -62 -91 -62 -20 0 -63 11
-96 25 -33 14 -66 25 -75 25 -8 0 -23 4 -33 10 -9 5 -34 17 -54 26 -21 9 -38
23 -38 31 0 7 -7 13 -15 11 -9 -2 -21 8 -28 22 -7 13 -29 34 -50 46 -20 11
-34 24 -30 27 3 4 -1 7 -10 7 -9 0 -19 -4 -22 -10 -11 -17 -38 -12 -31 6 4 12
2 15 -9 11 -8 -4 -17 -1 -21 5 -4 7 -9 6 -15 -3 -7 -11 -9 -10 -9 4 0 19 -20
23 -37 6 -6 -6 -17 -8 -23 -4 -9 6 -9 10 1 17 10 7 8 8 -8 5 -21 -5 -169 29
-226 52 -16 6 -43 11 -61 11 -18 0 -41 7 -52 15 -10 8 -27 15 -36 15 -10 0
-18 5 -18 11 0 6 7 8 16 5 23 -9 57 19 59 48 1 23 -1 24 -16 11 -14 -13 -20
-13 -47 1 -18 8 -32 23 -32 32 0 13 2 14 9 3 10 -16 16 -7 25 35 5 20 20 41
44 58 40 28 59 32 82 15z m-377 -21 c4 -10 8 -9 16 2 7 10 14 11 19 5 4 -6 20
-12 36 -13 38 -3 43 -9 28 -33 -12 -18 -10 -24 13 -45 14 -13 21 -24 14 -24
-7 0 -9 -10 -7 -25 3 -16 1 -25 -7 -25 -7 0 -16 -7 -19 -16 -4 -9 -13 -14 -22
-10 -8 3 -13 2 -10 -3 8 -13 -31 -21 -106 -21 -71 0 -101 7 -93 21 3 4 -3 14
-15 21 -25 16 -29 78 -5 78 8 0 15 6 15 14 0 12 21 27 42 30 16 2 19 16 3 16
-31 0 -9 12 32 17 21 3 40 9 41 14 5 13 20 11 25 -3z"/>
<path d="M11116 9350 c-106 -34 -176 -148 -176 -289 0 -76 13 -118 57 -187 60
-93 150 -138 255 -127 60 6 65 9 120 65 32 31 60 70 64 85 3 16 10 38 16 50
13 26 4 176 -13 237 -12 44 -85 127 -133 152 -36 19 -149 27 -190 14z"/>
<path d="M11920 9246 c-3 -3 -24 -6 -47 -7 -23 -2 -40 -6 -37 -11 3 -4 -2 -8
-10 -8 -9 0 -16 -6 -16 -13 0 -8 -18 -28 -39 -45 -118 -95 -136 -335 -36 -466
42 -55 126 -96 197 -96 123 0 195 59 238 195 12 35 21 50 33 49 9 -1 17 4 17
12 0 8 -6 11 -15 8 -12 -5 -15 3 -15 40 0 53 17 62 23 14 2 -20 4 -11 5 22 0
39 -2 49 -8 35 -7 -15 -9 -10 -9 23 -1 23 -4 42 -9 42 -8 0 -27 42 -36 83 -4
18 -13 27 -26 27 -13 0 -18 5 -14 15 5 11 2 13 -10 9 -11 -4 -16 -1 -16 10 0
9 -3 15 -7 14 -13 -2 -67 22 -74 33 -7 12 -81 24 -89 15z"/>
<path d="M18047 16987 c-14 -31 -37 -73 -51 -94 l-27 -38 7 45 c6 40 5 43 -8
30 -35 -36 -100 -281 -78 -295 17 -10 12 -48 -29 -223 -49 -205 -59 -285 -39
-305 12 -12 18 3 42 107 16 67 38 146 48 176 11 30 22 64 25 75 4 11 15 26 25
33 10 7 18 19 18 25 0 7 -4 6 -11 -3 -8 -12 -9 -9 -5 12 3 14 10 66 15 115 9
81 26 151 80 323 11 35 19 66 17 68 -2 2 -15 -21 -29 -51z"/>
<path d="M16953 16672 c-13 -2 -23 -8 -23 -13 0 -5 -11 -9 -25 -9 -14 0 -25 3
-25 8 0 9 -102 14 -109 5 -3 -5 -15 -13 -26 -19 -11 -6 -23 -22 -26 -35 -4
-14 -7 -17 -8 -8 -1 11 -14 19 -36 23 -19 4 -35 11 -35 15 0 5 -17 5 -37 1
-21 -4 -64 -11 -96 -15 -31 -3 -63 -13 -71 -21 -17 -17 -36 -18 -36 -3 0 6 -9
8 -22 4 -62 -18 -61 -18 -55 -1 5 14 3 15 -13 6 -10 -5 -30 -10 -44 -10 -19 0
-26 -5 -26 -20 0 -21 -14 -27 -24 -11 -4 5 0 12 6 14 9 4 8 6 -3 6 -9 1 -21
-10 -27 -24 -6 -14 -16 -25 -22 -25 -5 0 -10 -6 -10 -14 0 -8 -4 -16 -10 -18
-6 -2 -4 -18 4 -42 8 -22 16 -34 20 -27 4 6 23 11 43 11 27 0 34 -3 29 -15 -5
-13 2 -15 42 -11 26 2 60 10 75 17 24 11 30 11 38 -2 6 -10 9 -10 9 -1 0 6 5
12 11 12 6 0 8 -9 4 -22 -18 -64 -19 -61 9 -54 19 5 26 3 26 -9 0 -10 -11 -15
-32 -16 -19 -1 -25 -3 -15 -6 18 -5 18 -5 0 -19 -16 -12 -14 -13 26 -14 36 0
42 3 37 16 -5 14 -4 15 8 5 17 -15 32 3 27 33 -2 15 2 18 23 14 20 -4 26 -1
26 11 0 25 20 41 55 42 27 0 28 1 8 9 -28 11 -20 45 16 65 14 8 20 14 14 15
-21 0 -15 30 6 30 11 0 23 5 26 10 3 6 25 10 48 10 37 0 39 -1 22 -14 -16 -12
-17 -16 -6 -30 15 -17 71 -22 71 -6 0 6 7 10 15 10 8 0 15 5 15 10 0 6 -7 10
-16 10 -13 0 -14 3 -4 15 9 10 17 12 30 5 13 -7 20 -6 22 2 3 7 23 12 45 12
25 1 39 5 36 12 -4 11 26 20 97 31 19 3 39 9 44 13 5 5 14 7 20 6 6 -2 8 -1 4
1 -5 3 -8 10 -8 16 0 12 -111 17 -167 9z"/>
<path d="M16370 16240 c-18 -5 -39 -15 -45 -23 -19 -26 -52 -29 -97 -8 -27 12
-47 16 -52 10 -6 -5 -16 -9 -22 -9 -7 0 -25 -5 -40 -10 -26 -10 -26 -12 -10
-28 14 -14 39 -17 144 -19 70 -1 127 -2 127 -3 0 -1 60 -3 133 -6 86 -3 132
-1 132 6 0 5 9 10 20 10 11 0 20 5 20 10 0 6 10 10 23 11 19 1 18 2 -7 9 -16
5 -76 8 -133 6 l-105 -3 -21 28 c-11 16 -23 29 -26 28 -3 -1 -22 -5 -41 -9z"/>
<path d="M13396 15479 c-7 -36 -36 -71 -36 -43 0 13 -3 14 -15 4 -8 -7 -15
-16 -15 -21 0 -5 7 -9 15 -9 8 0 15 -7 15 -15 0 -11 -5 -12 -26 -5 -33 13 -54
13 -54 0 0 -5 10 -10 23 -11 21 -1 21 -1 -3 -10 -19 -7 -28 -20 -37 -57 -6
-26 -9 -61 -6 -76 4 -21 1 -33 -12 -42 -15 -11 -17 -18 -7 -36 6 -13 13 -36
14 -53 3 -28 4 -27 18 18 8 26 18 47 22 47 4 0 8 6 8 14 0 7 7 19 15 26 8 7
15 19 15 27 0 8 6 29 14 46 8 18 17 49 21 70 3 20 9 37 14 37 4 0 15 24 24 53
20 62 20 67 8 67 -5 0 -11 -14 -15 -31z"/>
<path d="M12093 14883 c-23 -9 -85 -131 -81 -160 2 -23 9 -29 42 -35 22 -5 44
-12 50 -17 26 -20 57 -19 71 2 19 31 57 153 53 173 -5 25 -100 52 -135 37z"/>
<path d="M11841 14351 c-15 -16 -36 -47 -46 -67 -9 -19 -27 -46 -38 -57 -17
-17 -22 -34 -22 -74 0 -44 5 -56 29 -82 27 -28 36 -31 90 -31 47 0 71 -6 105
-25 40 -23 46 -24 61 -10 9 8 26 15 38 15 45 0 153 284 125 328 -8 14 -27 17
-114 17 -57 0 -125 4 -151 9 -45 8 -49 7 -77 -23z"/>
</g>
</svg>
