<?xml version="1.0" encoding="utf-8"?>
<!-- Generator: Adobe Illustrator 24.1.0, SVG Export Plug-In . SVG Version: 6.00 Build 0)  -->
<svg version="1.1" xmlns="http://www.w3.org/2000/svg" xmlns:xlink="http://www.w3.org/1999/xlink" x="0px" y="0px"
	 viewBox="0 0 200 200" style="enable-background:new 0 0 200 200;" xml:space="preserve">
<style type="text/css">
	.st0{opacity:0.7;fill:#808080;}
	.st1{display:none;}
</style>
<g id="Layer_1">
	<circle class="st0" cx="100" cy="100" r="93.5"/>
	<g>
		<path d="M90.5,127.8c0.1-4.1,0.2-7.5,0.5-10.2c0.3-2.7,0.9-5,1.8-7.1c0.9-2.1,2.2-4.1,4-6c1.7-1.9,4-4.2,6.9-6.8
			c1.9-2,3.9-4.1,6-6.2c2-2.1,3.9-4.3,5.6-6.7c1.7-2.3,3.1-4.8,4.2-7.4c1.1-2.6,1.6-5.3,1.6-8.2c0-6.3-1.8-11-5.4-14.3
			c-3.6-3.3-8.8-4.9-15.5-4.9c-2.7,0-5.3,0.3-7.9,1c-2.6,0.7-4.8,1.7-6.8,3.1c-2,1.4-3.6,3.2-4.8,5.3c-1.2,2.2-1.8,4.7-1.8,7.7H63
			c0.1-4.8,1.1-9.1,3-13c1.9-3.8,4.6-7.1,7.9-9.8c3.3-2.7,7.2-4.7,11.7-6.1c4.5-1.4,9.4-2.1,14.6-2.1c5.8,0,11,0.7,15.5,2.2
			c4.6,1.5,8.4,3.6,11.6,6.4c3.2,2.8,5.6,6.2,7.2,10.2c1.7,4,2.5,8.6,2.5,13.8c0,4.1-0.7,8-2.2,11.7c-1.4,3.6-3.3,7.1-5.5,10.3
			c-2.2,3.2-4.7,6.3-7.5,9.1c-2.8,2.8-5.5,5.4-8.2,7.8c-1.7,1.7-3.1,3.2-4,4.7c-0.9,1.5-1.6,3-2.1,4.6c-0.5,1.5-0.7,3.2-0.9,4.9
			c-0.1,1.8-0.2,3.7-0.2,6H90.5z M88.7,154.7c0-2.8,0.8-5,2.5-6.9c1.6-1.8,4.1-2.8,7.4-2.8c3.3,0,5.8,0.9,7.4,2.8
			c1.7,1.8,2.5,4.1,2.5,6.9c0,2.6-0.8,4.8-2.5,6.6c-1.7,1.8-4.2,2.7-7.4,2.7c-3.3,0-5.7-0.9-7.4-2.7
			C89.5,159.5,88.7,157.3,88.7,154.7z"/>
	</g>
</g>
<g id="Layer_2" class="st1">
</g>
</svg>
