<?xml version="1.0" standalone="no"?>
<!DOCTYPE svg PUBLIC "-//W3C//DTD SVG 20010904//EN"
 "http://www.w3.org/TR/2001/REC-SVG-20010904/DTD/svg10.dtd">
<svg version="1.0" xmlns="http://www.w3.org/2000/svg"
 width="1188.000000pt" height="669.000000pt" viewBox="0 0 1188.000000 669.000000"
 preserveAspectRatio="xMidYMid meet">
<metadata>
Created by potrace 1.15, written by Peter Selinger 2001-2017
</metadata>
<g transform="translate(0.000000,669.000000) scale(0.100000,-0.100000)"
fill="#000000" stroke="none">
<path d="M0 6235 l0 -455 5940 0 5940 0 0 455 0 455 -830 0 -829 0 -3 -122 -3
-123 -240 0 -240 0 -3 123 -3 122 -4864 0 -4865 0 0 -455z m10408 368 c-10 -2
-18 -11 -18 -19 0 -16 26 -19 35 -4 3 6 15 10 25 10 10 0 21 6 23 13 4 9 7 9
15 -1 5 -7 21 -14 36 -15 15 -1 31 -9 36 -17 9 -13 10 -13 10 0 0 13 15 16 72
17 47 2 75 -2 80 -10 6 -9 10 -8 17 3 15 22 24 5 16 -29 -8 -38 -31 -40 -47
-6 -10 22 -13 23 -20 10 -5 -8 -6 -20 -3 -25 4 -6 -12 -10 -39 -10 -25 0 -48
5 -52 11 -5 8 -9 7 -14 -1 -12 -19 -38 -5 -43 22 -4 20 -4 20 -6 -4 -1 -35
-21 -37 -21 -3 0 14 -4 25 -10 25 -5 0 -10 -11 -10 -25 0 -24 -19 -37 -21 -15
-1 6 -2 14 -3 19 -3 23 -16 21 -16 -2 0 -25 -3 -27 -40 -27 -41 0 -42 2 -42
45 0 43 1 45 30 44 16 -1 20 -3 10 -6z m635 0 c-28 -5 -30 -33 -3 -33 11 0 20
5 20 10 0 6 11 10 25 10 14 0 25 -6 25 -12 0 -10 2 -10 8 -1 5 8 35 12 85 12
l77 0 0 -35 c0 -19 -4 -34 -10 -34 -5 0 -10 12 -10 26 0 14 -4 23 -10 19 -5
-3 -10 -15 -10 -26 0 -27 -65 -27 -79 0 -6 10 -7 21 -4 25 3 3 1 6 -5 6 -7 0
-12 -11 -12 -23 0 -21 -5 -24 -39 -25 -32 -1 -41 2 -46 18 -8 26 -35 26 -35 0
0 -11 -7 -20 -15 -20 -11 0 -15 11 -15 38 0 47 5 52 44 51 24 -1 26 -3 9 -6z
m-9487 -19 c26 -4 44 -2 48 5 4 6 16 11 27 11 11 0 17 -4 14 -10 -4 -6 7 -10
24 -10 29 0 31 -3 31 -35 0 -32 -2 -35 -30 -35 -36 0 -42 29 -8 38 21 5 21 6
2 12 -25 10 -34 4 -34 -24 0 -22 -3 -23 -97 -23 -54 0 -90 2 -80 4 22 6 22 12
-4 39 -29 30 -16 47 30 40 20 -3 55 -9 77 -12z m376 5 c5 -16 96 -17 103 -2 6
17 25 17 25 0 0 -10 13 -13 48 -10 40 3 45 2 30 -10 -15 -12 -15 -14 0 -23 8
-6 12 -15 8 -22 -11 -17 -233 -13 -240 4 -7 19 -43 17 -54 -3 -13 -22 -38 -10
-46 22 -9 35 2 46 20 21 12 -17 14 -18 14 -3 0 9 5 17 10 17 6 0 10 -7 10 -15
0 -9 9 -15 25 -15 20 0 25 5 25 25 0 25 15 35 22 14z m938 -3 c0 -9 7 -12 20
-9 11 3 20 9 20 14 0 5 7 9 15 9 8 0 15 -6 15 -13 0 -7 11 -13 27 -12 35 0 45
-32 11 -37 l-23 -5 25 -10 c19 -8 -5 -11 -110 -12 -95 0 -137 3 -142 12 -6 9
-8 9 -8 0 0 -7 -4 -13 -10 -13 -5 0 -10 11 -10 25 0 14 -4 25 -10 25 -5 0 -10
-9 -10 -21 0 -41 -69 -76 -87 -45 -7 13 -42 20 -85 17 -10 -1 -18 -8 -18 -17
0 -8 -4 -12 -10 -9 -5 3 -10 26 -10 51 0 40 2 44 25 44 14 0 28 -7 31 -15 4
-8 16 -14 28 -14 16 1 17 2 4 6 -42 11 -11 20 72 22 80 1 90 -1 90 -16 1 -16
1 -17 10 -1 7 11 24 16 60 16 46 1 67 -11 38 -20 -7 -3 -6 -7 5 -11 14 -5 17
-1 17 23 0 17 5 30 10 30 6 0 10 -6 10 -14z m362 2 c2 -6 18 -11 36 -11 29 0
32 -3 34 -31 l1 -31 4 31 c4 27 8 31 35 31 18 0 34 5 36 11 9 28 22 9 22 -31
l0 -44 -139 -1 c-77 -1 -142 2 -144 6 -3 4 -7 21 -8 37 -3 25 0 30 16 30 17 0
19 -6 17 -34 -3 -22 0 -31 7 -27 6 4 11 23 11 42 0 32 2 34 34 34 19 0 36 -5
38 -12z m531 -5 c-1 -5 11 -7 28 -5 26 4 29 1 29 -21 0 -14 5 -29 10 -32 6 -4
10 7 10 26 l0 32 55 -6 c43 -4 59 -2 71 10 13 14 17 14 24 2 6 -9 26 -13 67
-11 45 2 55 0 45 -10 -7 -7 -12 -22 -12 -35 0 -22 -3 -22 -90 -21 -87 1 -90 2
-90 25 0 13 -5 23 -10 23 -6 0 -10 -6 -9 -12 4 -31 -3 -36 -43 -34 -39 1 -43
4 -48 31 -4 19 -8 26 -13 18 -4 -7 -3 -21 3 -32 9 -18 7 -20 -20 -19 -29 1
-30 3 -30 45 0 32 4 43 13 40 6 -2 11 -9 10 -14z m-2683 -367 c0 -8 -12 -21
-27 -28 -16 -7 -29 -23 -31 -35 -3 -17 3 -22 24 -25 38 -4 41 -24 5 -36 -29
-10 -30 -13 -33 -84 l-3 -73 -30 0 -30 0 0 121 c0 133 5 148 59 163 46 14 66
13 66 -3z m-550 -15 c14 -4 25 -13 25 -21 0 -11 -17 -16 -64 -20 -37 -3 -66
-10 -68 -17 -3 -6 24 -26 59 -43 84 -42 88 -46 88 -96 0 -34 -5 -47 -22 -58
-32 -21 -94 -28 -148 -19 -35 7 -45 13 -45 28 0 17 7 20 57 21 31 1 64 4 73 7
31 12 15 38 -37 61 -65 29 -91 57 -91 98 0 46 32 68 97 67 28 -1 62 -4 76 -8z
m138 -34 c3 -32 7 -37 28 -37 32 0 29 -33 -3 -38 -20 -3 -22 -10 -25 -80 l-3
-77 -32 -3 -33 -3 0 135 c0 120 2 135 18 139 36 10 47 2 50 -36z m10390 11 c7
-7 12 -22 12 -34 0 -13 7 -29 15 -38 11 -10 15 -36 15 -91 l0 -76 -82 3 -83 3
-3 73 c-2 58 0 73 13 78 8 3 15 18 15 32 0 50 65 83 98 50z m436 -14 c21 -21
30 -57 22 -97 -5 -27 -2 -38 19 -57 14 -13 25 -28 25 -34 0 -5 -15 4 -33 22
-24 23 -36 29 -47 22 -48 -30 -130 16 -130 73 0 48 41 87 90 87 22 0 45 -7 54
-16z m-909 -84 l0 -75 -121 -3 c-137 -3 -134 -5 -134 85 0 75 -2 74 134 71
l121 -3 0 -75z m-9689 29 c28 -30 27 -131 -1 -158 -36 -35 -127 -32 -151 4
-23 35 -22 130 2 156 26 28 124 27 150 -2z m348 -1 c22 -31 22 -141 0 -162
-11 -11 -35 -16 -79 -16 -55 0 -66 3 -79 22 -35 50 -8 96 64 105 52 7 47 27
-8 31 -26 2 -42 8 -42 16 0 22 12 26 71 26 48 0 60 -4 73 -22z m1426 -43 c0
-14 4 -25 9 -25 10 0 20 -67 13 -92 -3 -13 -15 -18 -43 -18 -32 0 -41 5 -49
23 -6 15 -9 17 -9 6 -1 -20 -21 -29 -62 -29 l-29 0 0 75 c0 60 3 75 15 75 8 0
15 -6 15 -14 0 -8 11 -17 25 -20 15 -4 30 -18 35 -32 7 -18 15 -24 26 -20 9 3
22 6 30 6 8 0 14 5 14 10 0 6 -9 10 -19 10 -23 0 -36 16 -21 25 6 4 8 11 5 16
-9 14 4 29 26 29 14 0 19 -7 19 -25z m-473 -25 c3 -68 2 -66 12 -51 5 7 6 21
4 31 -3 13 3 19 28 24 38 7 51 -1 27 -18 -9 -7 -18 -29 -20 -52 -2 -27 -8 -39
-18 -39 -8 0 -14 6 -12 13 3 16 -6 15 -25 -4 -10 -10 -29 -14 -57 -12 l-41 3
-3 59 c-4 83 -1 88 55 84 47 -3 48 -4 50 -38z m283 -35 l0 -75 -40 0 c-34 0
-42 4 -50 25 -8 20 -16 25 -46 25 -45 0 -42 -24 4 -28 41 -4 31 -22 -12 -22
-42 0 -56 15 -56 62 0 53 49 78 85 42 15 -15 17 -15 34 0 10 9 25 16 34 16 9
0 17 7 17 15 0 8 7 15 15 15 12 0 15 -15 15 -75z m1630 60 c0 -8 8 -15 19 -15
29 0 43 -25 39 -72 -3 -43 -3 -43 -45 -46 -42 -3 -43 -3 -43 30 l-1 33 -14
-32 c-12 -28 -19 -33 -48 -33 -39 0 -58 28 -50 73 10 52 78 61 101 15 10 -21
11 -19 11 20 1 30 5 42 16 42 8 0 15 -7 15 -15z m7040 -176 c37 3 86 -1 92 -7
3 -4 4 -19 1 -35 -4 -22 -8 -25 -19 -16 -9 7 -14 8 -14 1 0 -6 -36 -10 -95
-10 -53 0 -95 4 -95 10 0 5 5 6 10 3 6 -3 10 -1 10 5 0 6 -7 13 -15 16 -8 4
-15 12 -15 20 0 13 79 25 110 16 8 -2 22 -4 30 -3z"/>
<path d="M10350 6080 l0 -60 110 0 110 0 0 60 0 60 -110 0 -110 0 0 -60z"/>
<path d="M11308 5640 c-59 -46 -38 -122 56 -203 l56 -48 65 56 c89 79 105 135
52 193 -22 24 -75 30 -95 10 -9 -9 -18 -9 -37 0 -38 17 -69 15 -97 -8z"/>
<path d="M2665 5277 c-2 -6 -6 -304 -9 -662 -4 -357 -13 -1057 -22 -1555 -23
-1434 -23 -1438 9 -1427 7 2 15 20 18 40 10 61 14 60 77 -18 25 -32 51 -85 57
-118 10 -54 39 -65 176 -72 129 -6 161 -11 204 -33 44 -22 69 -51 88 -103 23
-60 51 -89 87 -89 36 0 41 7 31 52 -10 41 -6 50 28 67 32 17 96 -7 141 -54 28
-29 34 -43 34 -76 -1 -22 -9 -48 -18 -58 -9 -9 -16 -25 -16 -33 0 -22 66 -78
93 -79 12 0 39 -3 61 -5 39 -5 119 19 143 42 7 7 17 14 23 16 15 5 1 38 -15
38 -8 0 -13 9 -12 20 1 11 4 20 8 20 3 0 11 11 17 25 11 25 13 25 135 25 126
0 215 -16 248 -46 18 -16 44 -18 85 -5 111 34 144 47 144 56 0 16 109 38 214
42 l89 4 61 -60 c57 -56 66 -61 127 -71 92 -16 460 -10 482 8 12 11 126 13
567 11 531 -1 553 -2 557 -20 5 -17 17 -19 127 -20 66 -1 154 -2 195 -3 204
-5 211 -3 881 194 245 72 531 156 635 187 l190 55 65 -16 c36 -10 101 -28 145
-41 44 -14 204 -61 355 -105 151 -44 304 -89 340 -100 36 -11 195 -58 355
-105 l290 -85 862 0 863 0 0 1115 0 1115 -167 2 -168 3 0 965 0 965 -4438 2
c-3522 2 -4439 0 -4442 -10z m8833 -169 l-3 -163 -47 3 c-52 4 -64 -12 -32
-39 9 -7 20 -24 25 -36 5 -13 20 -28 34 -33 25 -10 26 -12 23 -87 l-3 -78 -58
-3 c-42 -2 -68 2 -95 16 -20 11 -49 24 -64 30 -18 8 -28 20 -30 38 -2 22 -10
30 -36 36 -18 5 -30 13 -26 19 33 55 34 299 0 389 -9 24 -14 50 -12 57 4 10
44 13 166 13 l160 0 -2 -162z m-858 137 c0 -20 56 -75 75 -75 10 0 15 -10 15
-30 0 -16 -4 -30 -8 -30 -4 0 -9 -17 -9 -37 -4 -106 -5 -113 -19 -114 -28 -3
-32 -4 -40 -12 -15 -14 -13 -41 3 -52 11 -8 14 -20 10 -36 -12 -49 7 -54 51
-14 61 54 79 29 47 -64 -11 -31 -13 -47 -5 -56 15 -19 2 -62 -26 -84 -31 -25
-30 -31 5 -31 25 0 29 -4 27 -23 -1 -13 -6 -28 -10 -35 -4 -6 -2 -29 4 -51 5
-21 8 -45 5 -53 -8 -19 69 -98 95 -98 5 0 10 -10 10 -21 0 -23 -117 -144 -150
-154 -12 -4 -18 -15 -18 -33 0 -15 -5 -40 -11 -55 -6 -16 -9 -33 -6 -37 9 -14
-33 -50 -50 -44 -8 4 -15 3 -15 -1 0 -12 28 -35 44 -35 38 0 11 -18 -44 -30
-74 -16 -159 -7 -180 17 -8 10 -23 17 -33 15 -14 -3 -10 9 20 65 40 73 145
227 175 256 10 10 18 25 18 34 0 12 -10 8 -36 -18 -34 -33 -142 -177 -156
-209 -5 -10 -7 -11 -7 -2 -1 8 -14 1 -31 -16 -19 -20 -29 -39 -28 -54 3 -20
-2 -23 -31 -26 -41 -4 -135 23 -152 44 -9 11 -8 21 5 48 9 19 16 45 16 58 0
39 25 98 49 114 14 10 36 14 59 12 28 -4 46 1 77 22 22 15 49 29 60 33 45 12
191 81 207 96 14 14 24 74 19 119 -2 21 -20 13 -27 -12 -3 -14 -15 -33 -25
-42 -17 -15 -24 -16 -39 -6 -24 15 -52 16 -66 2 -5 -5 -46 -13 -89 -16 -44 -3
-90 -11 -103 -17 -17 -8 -28 -8 -40 0 -30 18 -23 33 27 60 2 1 -11 32 -29 68
-37 75 -35 107 8 128 49 25 98 29 164 11 35 -8 84 -18 110 -20 43 -4 48 -2 48
16 0 33 -30 203 -40 227 -6 15 -5 25 6 34 16 13 11 24 -14 24 -11 0 -16 7 -14
20 1 11 3 47 3 79 0 58 26 131 53 148 18 13 36 9 36 -7z m-1826 -31 c4 -11 10
-13 19 -6 6 5 62 12 122 15 l110 6 -27 -20 c-33 -24 -38 -45 -6 -28 11 6 59
11 106 11 87 -1 138 11 127 28 -4 6 9 10 31 10 l37 0 -6 -67 c-5 -55 -11 -72
-30 -88 -14 -11 -27 -32 -31 -47 l-6 -28 -126 2 c-82 1 -129 -3 -137 -11 -17
-17 -45 -13 -64 9 -10 11 -28 20 -40 20 -13 0 -31 -9 -40 -20 -10 -11 -27 -20
-40 -20 -31 0 -39 -18 -11 -25 27 -7 55 -55 32 -55 -8 0 -14 5 -14 12 0 6 -3
8 -7 5 -3 -4 -12 -2 -20 4 -10 9 -13 6 -13 -17 -1 -28 -1 -28 -15 -10 -13 17
-15 18 -15 3 0 -9 -4 -17 -10 -17 -5 0 -10 2 -10 4 0 2 -3 11 -6 19 -3 9 3 17
18 21 l23 7 -21 9 c-48 19 -36 60 18 60 40 0 44 22 10 60 -20 21 -28 39 -24
52 3 15 1 19 -9 16 -8 -2 -15 -14 -17 -26 -2 -11 -10 -26 -18 -32 -8 -7 -14
-18 -14 -25 0 -7 -7 -15 -15 -19 -13 -5 -13 -9 -3 -27 10 -17 10 -23 1 -26 -7
-3 -13 -9 -13 -15 0 -6 7 -7 16 -4 24 9 12 -15 -17 -33 -22 -15 -23 -14 -11 1
11 14 7 21 -29 51 -39 32 -41 35 -22 41 24 8 34 37 26 77 -4 22 -11 29 -28 29
-19 0 -24 -7 -29 -45 -5 -28 -12 -45 -21 -45 -7 0 -17 -9 -20 -21 -4 -11 -10
-18 -13 -14 -7 7 -9 13 -11 45 -1 13 -8 20 -20 20 -14 0 -21 8 -23 28 -2 21
-9 28 -29 30 -24 3 -27 -1 -33 -38 -7 -46 -2 -62 18 -54 21 8 32 -17 12 -28
-9 -5 -16 -16 -16 -23 0 -10 -11 -15 -35 -15 l-36 0 18 -24 c24 -33 65 -43 78
-21 28 47 33 51 54 38 15 -9 28 -10 47 -2 35 13 52 6 64 -27 7 -19 7 -31 -1
-40 -16 -20 -26 -17 -32 7 -3 12 -10 18 -17 14 -6 -4 -9 -13 -6 -21 7 -19 -19
-18 -38 2 -9 9 -21 12 -28 7 -7 -4 -23 -6 -35 -5 -12 2 -40 -2 -64 -8 -49 -13
-61 -4 -57 45 3 28 0 30 -32 33 -19 2 -38 9 -42 15 -5 8 -17 6 -44 -6 -20 -10
-39 -15 -43 -12 -3 4 -7 32 -8 63 -1 31 -4 68 -5 81 -4 35 20 38 284 40 123 1
249 6 280 12 77 15 65 34 -16 25 -33 -4 -128 -9 -211 -12 -82 -2 -189 -6 -237
-8 -88 -4 -99 -1 -76 22 10 10 8 14 -10 18 -38 11 -25 27 16 20 20 -4 71 -6
112 -5 138 4 183 1 190 -12 5 -7 18 -9 36 -5 16 4 38 8 49 9 11 1 26 6 33 11
7 4 23 6 35 3 17 -4 135 4 168 12 4 0 10 -6 13 -15z m-1218 -17 c7 -6 -47 -11
-151 -12 -26 0 -40 -4 -39 -12 3 -34 4 -36 18 -24 8 7 44 10 92 9 l79 -3 3
-87 c2 -66 0 -88 -10 -90 -50 -6 -69 -7 -115 -8 -29 -1 -53 -5 -53 -11 0 -5 9
-9 20 -9 17 0 19 -3 10 -19 -14 -27 -13 -47 6 -65 8 -9 11 -16 5 -16 -17 0
-42 46 -35 64 6 14 2 16 -22 11 -16 -4 -35 -8 -42 -11 -7 -2 -11 0 -8 4 3 5 1
22 -4 38 l-8 29 -1 -27 c-1 -34 -26 -38 -35 -5 -9 36 -7 232 4 243 10 10 276
12 286 1z m-484 -27 c9 0 19 8 22 17 13 33 29 -3 20 -44 -4 -21 -8 -44 -7 -50
0 -7 -3 -11 -7 -8 -4 3 -11 -7 -15 -23 -3 -15 -14 -35 -22 -45 -9 -9 -13 -20
-9 -24 8 -8 45 31 48 49 0 7 4 -18 8 -57 3 -38 4 -73 1 -77 -3 -3 -26 -8 -51
-9 -40 -3 -45 -1 -45 18 0 12 -3 25 -7 29 -5 4 -8 3 -8 -2 0 -6 -21 -10 -47
-10 -51 -1 -159 -10 -232 -21 -36 -5 -47 -2 -60 14 -9 11 -35 44 -58 72 -48
59 -51 67 -25 73 15 4 17 13 14 42 -5 43 -19 47 -28 9 -4 -16 -11 -31 -17 -34
-11 -8 -60 15 -78 37 -7 8 -26 22 -42 31 -17 9 -26 18 -20 24 15 15 615 16
634 2 8 -7 23 -13 31 -13z m-1302 -12 c0 -7 4 -7 13 0 15 12 99 25 118 17 11
-4 14 -24 13 -83 0 -42 3 -86 7 -97 6 -14 8 -8 8 23 l1 43 29 -21 c21 -15 29
-28 28 -47 -2 -21 4 -28 27 -34 23 -6 32 -4 43 9 10 14 14 14 22 4 6 -10 10
-4 15 22 6 32 26 52 26 26 0 -6 9 -6 25 0 20 8 25 6 25 -6 0 -8 5 -12 10 -9 6
4 8 11 5 16 -4 5 -1 9 4 9 6 0 11 5 11 11 0 7 -16 9 -50 4 -53 -7 -51 -9 -54
44 0 13 -7 26 -13 28 -12 4 -19 -35 -15 -94 1 -26 -9 -29 -37 -11 -14 9 -17
17 -11 33 5 12 8 46 7 76 l-1 54 99 0 100 0 2 -30 c1 -16 -4 -35 -11 -40 -12
-9 -12 -14 0 -30 12 -16 14 -17 14 -2 0 9 6 17 13 17 10 0 13 13 11 45 -2 34
1 45 12 45 7 0 14 -4 14 -9 0 -6 10 -7 23 -4 63 16 77 10 138 -58 58 -64 58
-66 51 -109 -9 -53 -30 -64 -38 -21 -9 43 -22 39 -26 -9 -4 -48 -17 -53 -39
-14 -9 17 -23 28 -33 26 -17 -3 -21 8 -7 23 4 6 11 23 15 38 7 28 6 29 -26 22
-45 -10 -55 -21 -24 -29 26 -6 34 -20 16 -31 -5 -3 -7 -32 -3 -66 5 -57 3 -63
-21 -84 -25 -22 -26 -22 -6 -40 15 -13 17 -22 10 -36 -14 -25 -13 -26 19 -21
24 3 29 0 33 -22 3 -14 1 -23 -3 -20 -5 3 -9 0 -9 -7 0 -7 -3 -9 -7 -6 -3 4
-17 0 -31 -9 -13 -8 -29 -13 -37 -11 -20 8 -28 58 -12 74 22 22 1 70 -32 76
-33 7 -37 2 -17 -19 10 -9 15 -23 12 -31 -3 -8 -6 -19 -6 -24 0 -5 -8 -9 -17
-9 -13 0 -15 2 -5 8 12 8 3 14 -78 52 -8 4 -16 17 -18 29 -3 18 2 21 28 21 25
0 31 4 28 18 -2 9 -9 16 -16 15 -6 -2 -47 -5 -89 -7 -55 -4 -78 -9 -78 -18 0
-8 13 -13 35 -14 71 -2 70 -1 70 -44 0 -28 -4 -40 -14 -40 -19 0 -31 -39 -17
-53 15 -15 14 -36 -3 -53 -23 -22 -35 -17 -82 31 -46 48 -54 61 -30 52 17 -7
36 11 36 35 0 22 -10 26 -71 31 -48 4 -69 12 -69 27 0 5 8 11 18 13 9 3 0 5
-20 6 -36 1 -56 21 -21 21 14 0 14 3 -5 20 -12 11 -26 20 -32 20 -21 0 -37 25
-42 67 -3 23 -4 44 -1 47 9 9 10 100 2 118 -6 10 -4 18 4 21 16 6 37 -3 37
-15z m2180 -113 l0 -85 -44 0 c-49 0 -68 16 -43 35 19 14 25 121 7 110 -5 -3
-10 -23 -10 -45 0 -58 -27 -62 -36 -4 -3 24 -10 47 -15 50 -15 9 -10 23 9 23
9 0 35 4 57 9 67 14 75 4 75 -93z m1260 -70 c0 -2 -8 -20 -17 -40 -17 -36 -12
-58 9 -37 19 19 48 14 48 -7 0 -11 5 -23 11 -27 6 -3 9 -19 7 -35 -3 -16 -1
-29 3 -29 4 0 5 -9 2 -20 -6 -22 -43 -28 -43 -7 0 30 -26 67 -47 67 -12 0 -27
9 -33 20 -6 11 -16 20 -23 20 -25 0 -35 20 -23 46 13 29 23 30 31 4 10 -32 28
-24 22 9 -4 19 -2 31 6 35 16 6 47 7 47 1z m-1607 -65 c4 -16 4 -36 1 -44 -3
-8 -1 -17 4 -20 6 -3 8 -14 5 -24 -2 -10 3 -24 11 -31 14 -12 16 -10 16 12 0
14 7 28 17 31 12 5 14 9 5 18 -17 17 -15 55 3 61 8 4 18 1 22 -5 7 -13 5 -163
-3 -190 -8 -27 -22 -21 -29 13 -6 26 -8 28 -19 14 -10 -15 -17 -10 -50 40 -27
41 -35 60 -26 65 9 5 9 13 3 25 -14 25 -4 65 17 65 11 0 20 -10 23 -30z m347
5 c0 -29 0 -29 -47 -10 l-36 15 6 -30 c4 -16 3 -31 -2 -34 -9 -6 -12 -96 -3
-96 3 0 16 9 28 21 18 16 21 28 16 65 -2 24 -1 44 3 44 18 0 45 -34 45 -56 0
-13 4 -25 10 -29 5 -3 7 -12 3 -20 -3 -10 1 -15 11 -15 20 0 35 32 18 38 -7 2
-12 20 -12 39 0 35 1 35 32 29 39 -8 44 -12 30 -29 -7 -8 -9 -17 -5 -20 3 -4
1 -12 -4 -19 -6 -7 -14 -31 -17 -53 -4 -22 -11 -47 -16 -55 -8 -13 -11 -12
-24 5 -9 11 -16 15 -16 8 0 -6 -8 -13 -17 -16 -13 -3 -9 -8 18 -20 l35 -16 12
-103 c7 -57 13 -125 15 -153 2 -45 0 -50 -20 -53 -13 -2 -23 0 -24 5 -1 4 -3
28 -5 52 -6 63 -14 64 -14 1 l0 -52 -32 6 c-32 6 -50 23 -45 41 2 5 -7 18 -20
28 -28 22 -31 79 -8 174 18 77 11 123 -18 120 -14 -1 -23 6 -28 23 -13 44 -10
82 8 95 10 8 13 17 8 26 -10 16 -15 50 -8 62 2 4 31 7 64 7 56 0 59 -1 59 -25z
m-2047 -202 c4 -3 3 -11 -2 -17 -5 -6 -12 -26 -16 -45 -7 -32 -6 -33 18 -27
38 9 67 -26 67 -79 0 -28 8 -54 24 -78 24 -35 24 -39 15 -119 -5 -46 -13 -107
-16 -136 -4 -37 -11 -56 -24 -63 -11 -5 -19 -18 -19 -28 0 -10 -9 -26 -21 -37
-21 -19 -21 -18 -42 11 -35 49 -77 84 -111 93 -36 10 -43 8 -27 -11 9 -12 4
-20 -25 -42 -19 -15 -38 -24 -41 -21 -3 3 -12 1 -18 -4 -7 -6 -33 -11 -59 -12
-40 -2 -50 2 -69 24 -17 21 -34 28 -77 33 -200 22 -310 44 -310 62 0 11 4 11
21 2 12 -6 58 -11 102 -10 58 0 92 -5 115 -17 27 -14 35 -15 53 -3 18 11 23
11 30 -1 6 -9 9 -9 9 -1 0 7 12 11 28 10 18 -1 27 3 27 13 0 11 -13 15 -53 16
-39 0 -51 -3 -48 -13 3 -7 1 -15 -5 -19 -6 -3 -13 3 -16 14 -6 23 -38 31 -148
38 -38 2 -80 7 -92 9 -24 6 -32 34 -10 36 10 0 10 2 0 6 -9 3 -13 31 -13 89
l0 84 58 -1 c105 -1 347 -17 371 -25 20 -6 22 -4 17 12 -7 23 8 49 23 40 14
-9 14 -39 1 -52 -16 -16 14 -37 40 -29 11 3 20 13 20 22 0 10 6 14 20 10 14
-4 25 2 36 19 9 13 25 24 35 24 11 0 19 5 19 10 0 6 -14 10 -31 10 -27 0 -30
3 -27 28 2 19 9 28 26 30 12 2 22 10 22 17 0 19 51 57 67 51 9 -4 13 4 13 25
0 19 -4 28 -11 23 -8 -4 -8 0 0 15 11 20 41 28 54 14z m5217 -163 c6 -11 9
-24 6 -28 -3 -5 -1 -26 5 -48 5 -21 6 -85 3 -142 l-7 -103 -26 6 c-14 3 -49
21 -76 39 -28 18 -61 36 -73 40 -27 9 -23 18 47 100 28 33 61 81 73 108 26 53
32 57 48 28z m-4013 -216 c-3 -75 -7 -137 -9 -138 -2 -1 -25 -9 -52 -17 -49
-14 -50 -15 -52 -57 -1 -26 2 -40 8 -36 15 10 29 -18 16 -33 -6 -8 -20 -10
-35 -7 -23 6 -24 5 -14 -15 7 -11 21 -21 33 -21 20 0 21 -2 7 -15 -12 -12 -21
-14 -42 -6 -31 12 -57 5 -57 -15 0 -12 -4 -12 -20 -4 -16 9 -20 8 -20 -5 0 -8
7 -15 15 -15 8 0 15 -7 15 -15 0 -8 7 -15 16 -15 8 0 13 -4 10 -9 -3 -5 -95
-9 -203 -9 -114 0 -189 4 -176 9 12 4 24 17 28 29 6 17 14 20 49 19 29 -2 51
4 69 17 32 23 33 31 7 39 -31 10 -24 28 19 49 22 10 37 24 35 30 -7 17 -106
37 -121 24 -19 -15 -16 -26 13 -41 22 -11 23 -15 11 -25 -10 -9 -22 -10 -40
-3 -26 10 -46 9 -79 -4 -10 -4 -18 -3 -18 3 0 6 -8 8 -19 5 -11 -3 -21 2 -25
12 -4 13 -2 16 9 11 9 -3 15 0 15 10 0 22 42 35 61 18 25 -22 35 -17 63 30 17
28 37 48 57 55 43 15 36 43 -16 55 -22 5 -41 10 -43 11 -1 1 -5 40 -8 87 -8
101 -9 100 118 87 119 -12 289 -12 319 -1 15 6 29 18 32 26 4 9 12 16 18 16 8
0 10 -37 6 -136z m1421 -86 c7 -7 12 -22 12 -34 0 -31 36 -54 85 -54 23 0 46
-5 53 -12 7 -7 12 -9 12 -5 0 10 54 -18 69 -37 10 -12 9 -20 -4 -40 -21 -32
-29 -32 -63 -1 -28 26 -42 31 -42 16 0 -5 -16 -12 -35 -15 -19 -4 -43 -15 -53
-25 -18 -19 -120 -56 -130 -47 -3 3 11 12 31 21 46 19 53 31 27 45 -17 9 -30
7 -64 -9 -61 -30 -76 -26 -33 10 25 21 41 45 50 77 13 43 13 47 -7 63 -17 14
-18 19 -7 32 20 25 80 34 99 15z m2876 -164 c31 -55 35 -84 10 -63 -15 12 -16
11 -10 -7 4 -14 0 -29 -13 -45 l-19 -24 -12 30 c-11 29 -10 39 5 80 6 16 5 18
-5 8 -7 -6 -19 -9 -27 -6 -7 3 -13 2 -11 -3 1 -5 -1 -18 -4 -29 -3 -11 -9 -32
-12 -47 -6 -25 -11 -28 -47 -28 -38 0 -41 2 -36 23 17 77 63 142 91 131 9 -3
16 -10 16 -15 0 -5 4 -9 10 -9 5 0 7 7 4 15 -7 18 7 20 23 4 9 -9 10 -7 6 10
-9 34 3 24 31 -25z m-3260 -940 c24 -9 19 -32 -6 -36 -15 -2 -24 -11 -26 -25
-3 -19 1 -23 23 -23 20 0 26 -4 23 -17 -2 -10 -13 -19 -26 -21 -21 -3 -22 -8
-22 -93 0 -88 0 -89 -25 -89 -24 0 -24 2 -27 93 -2 73 -6 92 -18 92 -25 0 -24
33 1 37 16 2 23 10 24 27 1 13 12 33 25 43 24 20 30 21 54 12z m-496 -26 c3
-15 -4 -18 -46 -18 -65 0 -82 -7 -82 -34 0 -16 15 -31 56 -55 86 -53 104 -93
64 -144 -24 -30 -73 -42 -125 -33 -55 11 -46 36 13 36 54 0 86 17 81 45 -2 10
-31 37 -64 60 -63 44 -82 76 -72 117 9 34 42 47 112 45 48 -2 60 -5 63 -19z
m1042 2 c0 -14 -7 -20 -25 -21 -14 -1 -31 -2 -37 -3 -10 -1 -14 -35 -16 -128
l-3 -128 -24 0 -24 0 -3 128 -3 127 -37 3 c-30 3 -38 7 -38 23 0 18 8 19 105
19 98 0 105 -1 105 -20z m410 -19 c0 -39 0 -40 38 -39 54 1 79 -16 92 -60 13
-50 13 -76 -4 -117 -17 -41 -42 -55 -95 -55 -73 0 -71 -5 -71 161 0 142 1 149
20 149 17 0 20 -7 20 -39z m440 -39 l5 -73 34 35 c35 36 71 48 71 23 0 -7 -16
-28 -35 -47 -19 -19 -35 -39 -35 -46 0 -6 18 -33 40 -60 21 -26 37 -50 35 -54
-10 -17 -48 0 -79 36 l-35 39 -1 -37 c0 -34 -3 -38 -25 -38 l-25 0 0 151 c0
150 0 150 23 147 20 -3 22 -10 27 -76z m-1782 21 c2 -14 10 -23 22 -23 30 0
32 -28 2 -35 -27 -5 -27 -6 -24 -80 3 -66 6 -75 23 -75 12 0 19 -7 19 -20 0
-23 -37 -28 -71 -10 -16 9 -19 22 -19 95 0 75 -2 84 -20 90 -11 3 -20 13 -20
21 0 8 9 14 20 14 15 0 20 7 20 26 0 21 4 25 23 22 14 -2 23 -11 25 -25z m224
-50 c19 -20 23 -35 23 -89 0 -81 -23 -109 -90 -109 -62 0 -87 27 -93 98 -6 70
15 113 61 125 44 11 71 5 99 -25z m348 7 c17 -17 20 -33 20 -109 l0 -88 -62
-7 c-78 -8 -108 8 -108 57 0 48 20 69 71 76 35 5 44 10 44 26 0 16 -8 21 -47
25 -26 3 -50 9 -54 12 -15 16 11 28 62 28 41 0 59 -5 74 -20z m442 -77 l25
-98 16 60 c10 33 22 77 27 98 8 27 16 37 30 37 26 0 25 -8 -6 -115 -29 -102
-42 -120 -77 -112 -24 7 -29 21 -83 210 -4 13 1 17 19 17 23 0 27 -7 49 -97z
m655 71 c23 -23 25 -31 21 -96 -3 -55 -8 -73 -23 -85 -44 -31 -99 -29 -135 7
-29 29 -28 137 1 174 29 37 99 37 136 0z m403 6 c0 -17 -7 -20 -50 -20 -64 0
-65 -16 -5 -52 108 -65 71 -154 -55 -133 -25 4 -40 12 -40 21 0 10 14 14 55
14 46 0 55 3 55 18 0 9 -20 29 -45 46 -52 32 -69 58 -59 89 10 31 22 37 87 37
50 0 57 -2 57 -20z m-2326 -751 c11 11 26 21 34 21 11 0 7 -9 -13 -30 l-29
-30 24 -25 c32 -34 40 -32 33 9 -8 50 9 73 57 78 l40 4 0 -52 c0 -60 -9 -69
-69 -77 -37 -5 -47 -2 -68 19 -29 29 -31 30 -36 2 -2 -13 -4 18 -4 67 0 68 2
78 6 41 l6 -48 19 21z"/>
<path d="M411 5271 c-7 -5 -9 -11 -5 -13 5 -3 3 -3 -5 -1 -8 2 -25 -4 -38 -12
-14 -9 -32 -18 -41 -20 -9 -2 -30 -8 -47 -14 -16 -6 -64 -20 -105 -32 -41 -11
-96 -28 -122 -37 l-48 -16 0 -482 c0 -266 4 -485 8 -488 10 -6 7 -90 -3 -106
-4 -6 -1 -17 5 -25 8 -10 13 -95 16 -277 4 -276 10 -424 19 -438 3 -5 -6 -44
-20 -87 l-25 -78 0 -1017 c0 -738 3 -1018 11 -1018 6 0 9 7 6 14 -10 24 22 76
46 77 17 1 18 2 4 6 -21 5 -22 32 -2 59 8 10 15 26 15 35 0 9 7 30 15 45 8 16
15 39 15 52 0 31 26 92 39 92 6 0 11 6 11 13 0 23 51 117 70 127 9 5 23 23 30
40 7 16 16 30 21 30 4 0 20 11 34 24 14 14 45 28 68 31 50 9 147 81 147 110 0
19 -46 54 -88 67 -23 7 -42 19 -42 25 0 7 -5 13 -12 13 -7 0 -32 7 -55 16 -34
13 -43 22 -43 40 0 28 -25 32 -35 7 -6 -17 -8 -16 -23 2 -9 12 -25 24 -35 28
-26 10 -24 67 3 67 13 0 20 7 20 19 0 25 27 34 40 13 9 -16 11 -16 25 2 15 19
33 22 163 25 20 1 32 6 32 14 0 11 11 12 57 5 35 -5 67 -5 84 1 23 8 27 7 22
-5 -4 -10 3 -14 24 -14 16 0 34 -5 41 -12 9 -9 16 -8 29 4 19 17 43 14 43 -5
0 -18 81 -51 120 -48 26 1 31 -1 20 -8 -12 -9 -12 -11 2 -16 9 -4 19 -16 23
-28 6 -19 8 -20 12 -4 5 20 4 20 38 7 14 -5 24 -14 21 -19 -9 -14 45 -62 76
-68 15 -3 28 -12 28 -19 0 -8 10 -14 23 -14 14 0 34 -15 57 -45 19 -25 50 -54
69 -65 18 -12 31 -23 28 -26 -10 -11 28 -44 49 -44 13 0 31 -11 41 -24 15 -18
23 -22 36 -14 11 6 17 5 17 -2 0 -5 5 -10 10 -10 6 0 10 18 10 39 0 26 5 41
16 45 10 4 14 16 12 38 -3 29 -7 34 -38 39 -19 4 -27 7 -17 8 9 0 17 8 17 16
0 9 -6 12 -15 9 -8 -4 -15 -1 -15 5 0 6 5 11 10 11 23 0 7 20 -30 36 -22 10
-40 22 -40 27 0 5 -8 19 -18 32 -13 16 -23 21 -33 14 -24 -15 -41 -11 -34 10
4 14 0 21 -14 26 -12 3 -18 12 -15 20 7 17 -47 46 -88 49 -16 1 -33 8 -38 16
-7 11 -20 12 -64 4 -60 -11 -72 -9 -54 13 6 7 8 16 4 20 -3 4 -12 0 -19 -9 -9
-11 -25 -14 -59 -10 -27 2 -48 8 -48 13 0 5 -7 9 -15 9 -8 0 -15 5 -15 11 0 6
-10 9 -23 7 -14 -2 -26 4 -32 17 -6 11 -19 21 -29 23 -10 2 -27 13 -38 24 -13
13 -27 18 -42 14 -16 -4 -32 2 -51 18 -15 13 -33 22 -39 20 -7 -3 -33 7 -60
21 -26 14 -52 23 -57 20 -5 -4 -21 6 -35 20 -14 15 -33 24 -40 21 -8 -3 -17 1
-20 9 -4 8 -14 15 -23 15 -9 0 -22 9 -29 20 -7 11 -21 20 -31 20 -11 0 -21 6
-23 12 -3 7 -18 11 -35 10 -37 -3 -54 16 -56 60 -2 32 -1 33 32 30 18 -2 31 0
28 5 -3 5 8 9 26 10 18 0 46 5 62 10 72 26 108 34 187 39 45 3 87 10 93 15 5
5 44 9 87 9 49 0 78 4 78 11 0 6 9 8 21 4 13 -4 25 -2 29 5 6 9 12 9 28 -1 17
-11 23 -9 46 16 14 15 26 32 26 38 0 5 7 6 16 3 13 -5 15 -1 10 20 -4 15 -3
23 3 20 16 -10 41 5 41 25 0 19 34 28 42 12 2 -5 17 -15 33 -24 31 -17 115
-15 115 2 0 5 -4 9 -10 9 -5 0 -10 5 -10 10 0 6 7 10 15 10 8 0 15 -7 15 -15
0 -8 7 -15 15 -15 17 0 34 29 33 56 -1 28 20 74 37 80 9 4 15 19 15 40 0 22 5
34 13 34 20 0 44 30 53 65 4 17 18 54 32 83 18 38 21 56 14 65 -20 23 -20 247
-1 328 9 41 15 77 13 81 -3 5 0 8 5 8 6 0 11 13 11 29 0 16 11 42 24 58 13 15
26 38 30 51 4 12 11 22 16 22 5 0 16 13 25 30 8 16 27 33 40 36 14 3 25 11 25
16 0 5 7 2 16 -6 21 -22 29 -20 65 12 53 46 59 53 59 71 0 9 5 22 11 28 8 8 3
37 -21 108 -23 68 -30 105 -26 128 18 87 47 305 47 357 1 47 -23 148 -45 192
-21 42 -26 66 -26 129 0 43 -5 81 -10 84 -6 4 -8 10 -5 14 2 5 -7 48 -21 97
-14 49 -30 106 -36 127 l-10 37 -587 0 c-322 0 -592 -4 -600 -9z"/>
</g>
</svg>
