<?xml version="1.0" standalone="no"?>
<!DOCTYPE svg PUBLIC "-//W3C//DTD SVG 20010904//EN"
 "http://www.w3.org/TR/2001/REC-SVG-20010904/DTD/svg10.dtd">
<svg version="1.0" xmlns="http://www.w3.org/2000/svg"
 width="1760.000000pt" height="986.000000pt" viewBox="0 0 1760.000000 986.000000"
 preserveAspectRatio="xMidYMid meet">
<metadata>
Created by potrace 1.15, written by Peter Selinger 2001-2017
</metadata>
<g transform="translate(0.000000,986.000000) scale(0.100000,-0.100000)"
fill="#000000" stroke="none">
<path d="M4735 8914 c-27 -2 -594 -26 -1260 -54 -665 -27 -1258 -54 -1316 -60
-298 -29 -441 -153 -441 -380 0 -118 17 -176 187 -611 81 -206 200 -511 265
-679 65 -168 175 -447 243 -620 68 -173 496 -1267 951 -2430 456 -1163 844
-2145 863 -2181 121 -234 363 -389 656 -421 139 -15 163 -12 927 126 355 63
897 161 1205 216 308 55 572 102 586 105 25 6 28 1 88 -152 73 -182 111 -250
189 -334 107 -116 252 -199 419 -241 149 -37 306 -32 588 21 127 23 247 43
268 44 20 0 37 5 37 9 0 5 16 7 35 5 19 -3 35 0 35 4 0 5 5 9 10 9 6 0 5 -8
-2 -20 -8 -12 -15 -15 -19 -8 -4 6 -9 3 -13 -8 -4 -12 -16 -21 -33 -22 -14 -1
-29 -5 -32 -8 -3 -4 6 -4 22 -2 15 3 27 1 27 -3 0 -5 -5 -9 -10 -9 -6 0 -9 -4
-8 -9 3 -9 -2 -11 -24 -11 -9 0 -8 4 2 10 8 5 11 10 5 10 -5 0 -17 -5 -25 -10
-8 -5 -10 -10 -4 -10 6 0 11 -7 11 -15 0 -18 -14 -20 -20 -2 -6 20 -36 -10
-30 -32 3 -10 0 -22 -7 -26 -7 -4 -10 -1 -8 10 2 10 -3 19 -10 21 -7 1 -8 0
-2 -3 6 -3 4 -16 -6 -35 -11 -21 -13 -33 -5 -41 7 -7 12 -5 17 6 3 9 10 14 16
11 5 -3 0 -13 -11 -21 -12 -8 -27 -11 -34 -7 -8 5 -8 2 2 -9 11 -13 11 -17 1
-17 -8 0 -10 -3 -6 -7 4 -5 13 0 21 10 11 15 14 16 25 2 11 -13 10 -14 -4 -9
-9 3 -16 1 -16 -5 0 -6 5 -11 11 -11 8 0 8 -4 1 -12 -6 -7 -11 -17 -12 -23 -1
-5 -6 -20 -11 -33 -13 -33 -11 -39 11 -45 16 -4 19 -11 15 -30 -5 -18 -1 -29
14 -39 18 -13 20 -19 10 -46 -6 -18 -16 -32 -22 -32 -6 0 -7 -3 -4 -7 4 -3 17
4 28 16 16 17 24 20 29 11 9 -15 60 -5 60 11 0 6 -5 7 -11 3 -14 -8 -2 36 14
51 7 7 8 6 3 -3 -4 -7 -4 -12 1 -11 22 4 32 -2 27 -16 -4 -8 -10 -15 -16 -15
-5 0 -6 5 -3 10 3 6 1 10 -4 10 -14 0 -14 -17 -1 -25 5 -3 7 -12 4 -20 -4 -8
-10 -13 -14 -10 -5 3 -12 0 -16 -7 -4 -7 -4 -10 1 -6 4 4 14 0 21 -10 9 -13 9
-19 1 -25 -8 -6 -6 -7 6 -3 13 4 17 -1 18 -22 2 -34 2 -33 -7 -57 -4 -11 -3
-17 1 -12 5 4 22 -5 39 -20 17 -16 28 -24 24 -19 -4 4 -3 19 2 32 7 17 6 23
-2 21 -19 -3 -21 30 -2 37 12 4 15 2 10 -9 -3 -8 -3 -15 -1 -15 3 0 12 18 21
40 17 43 25 48 43 26 9 -11 9 -15 -1 -19 -11 -4 -10 -6 0 -6 7 -1 11 -5 8 -10
-7 -11 21 -8 31 4 4 4 2 5 -4 1 -9 -5 -13 -1 -13 11 -1 22 -34 63 -52 63 -10
0 -9 3 2 10 12 8 11 10 -7 10 -27 0 -21 -30 6 -31 12 0 12 -2 -4 -9 -11 -5
-16 -9 -11 -9 5 -1 3 -7 -3 -14 -6 -8 -8 -16 -5 -20 8 -7 -34 -20 -45 -13 -5
3 -8 -5 -7 -19 0 -14 7 -27 14 -30 6 -2 12 -12 12 -20 0 -32 -31 12 -36 50 -4
33 -3 35 21 31 14 -3 25 0 25 6 0 5 -6 8 -14 5 -8 -3 -13 1 -12 10 0 9 -6 18
-14 21 -13 5 -13 3 0 -13 13 -16 13 -18 0 -13 -8 2 -15 14 -16 25 -1 16 4 19
23 15 18 -3 22 -1 17 12 -4 11 -1 16 10 16 9 0 16 4 16 10 0 6 9 6 26 0 32
-12 34 -12 34 1 0 5 -4 7 -10 4 -5 -3 -10 -2 -10 4 0 5 4 12 10 16 5 3 6 13 3
22 -5 12 -2 15 10 10 9 -3 17 -2 17 3 0 6 -7 10 -15 10 -8 0 -15 4 -15 9 0 5
7 8 16 7 9 0 19 5 21 12 3 6 0 12 -7 12 -6 0 -8 -4 -5 -10 3 -5 1 -10 -4 -10
-15 0 -14 20 2 25 13 6 20 55 8 55 -24 0 3 96 30 110 10 6 19 16 18 23 0 9 -2
9 -6 0 -2 -7 -9 -13 -14 -13 -5 0 -2 14 7 31 8 17 11 28 5 25 -6 -4 -19 -2
-30 3 -18 10 -18 12 5 76 29 81 29 81 2 89 -17 4 -28 -1 -43 -19 -12 -14 -24
-25 -28 -25 -4 0 1 10 12 22 11 11 18 24 16 28 -2 4 1 7 8 7 7 1 59 11 117 22
120 24 143 26 120 11 -8 -5 -11 -10 -6 -10 5 0 3 -7 -4 -15 -7 -8 -9 -15 -5
-15 4 0 3 -6 -3 -12 -6 -7 -11 -17 -11 -23 -3 -23 -13 -45 -20 -41 -4 3 -8 -1
-8 -8 0 -8 6 -12 14 -9 7 3 13 0 13 -6 0 -6 5 -11 11 -11 5 0 7 6 3 12 -5 10
-4 10 6 1 18 -16 3 -35 -19 -24 -13 7 -18 6 -18 -3 0 -7 7 -13 16 -12 11 1 15
-6 13 -19 -5 -26 -21 -43 -19 -20 1 10 -5 20 -13 22 -9 3 -11 1 -5 -4 6 -4 10
-14 11 -20 2 -31 5 -34 19 -19 8 8 15 19 15 25 0 14 27 14 35 1 4 -6 -1 -7
-11 -3 -14 5 -16 3 -11 -11 4 -11 3 -15 -4 -10 -8 4 -9 -1 -4 -17 5 -18 4 -20
-4 -9 -9 13 -12 12 -25 -5 -13 -18 -13 -22 2 -38 15 -16 15 -17 -1 -11 -9 3
-17 10 -17 15 0 5 -5 9 -11 9 -5 0 -7 -6 -4 -12 4 -7 -3 -2 -14 11 -14 15 -28
22 -41 18 -11 -3 -20 -1 -20 4 0 5 9 10 20 10 11 1 26 2 33 3 6 1 11 -7 9 -16
-2 -12 2 -16 12 -12 15 6 11 34 -5 34 -5 0 -9 5 -9 11 0 8 5 8 15 -1 10 -9 15
-9 15 -1 0 6 -5 11 -11 11 -5 0 -7 5 -4 10 3 6 2 10 -2 10 -5 0 -13 -8 -20
-19 -6 -10 -26 -21 -43 -24 -17 -4 -29 -11 -26 -16 7 -11 -18 -33 -27 -24 -4
3 -7 1 -7 -6 0 -6 6 -11 13 -10 27 3 48 -2 42 -10 -3 -5 0 -13 6 -17 8 -4 9
-3 5 4 -4 7 -2 12 3 12 6 0 11 7 11 15 0 12 -7 14 -27 9 -16 -4 -24 -3 -20 2
18 19 52 13 72 -14 12 -17 13 -22 4 -15 -16 13 -29 8 -29 -9 0 -5 5 -6 12 -2
7 4 8 3 4 -5 -4 -6 -11 -9 -16 -6 -4 3 -11 -1 -13 -7 -4 -10 -6 -10 -6 0 -1 8
-9 10 -27 6 -19 -5 -25 -4 -20 5 4 6 12 9 17 6 5 -4 9 -1 9 5 0 7 -6 10 -12 7
-7 -2 -20 -1 -29 4 -10 5 -16 3 -16 -6 0 -7 6 -11 13 -8 8 3 11 -5 10 -27 -2
-21 2 -29 11 -26 7 3 15 0 19 -6 5 -7 2 -8 -6 -3 -9 6 -10 1 -5 -16 5 -18 4
-20 -4 -9 -9 13 -12 12 -25 -5 -13 -18 -12 -23 12 -49 15 -16 22 -26 15 -22
-7 4 -19 -6 -29 -24 -10 -16 -23 -30 -28 -30 -14 0 2 -14 20 -16 10 -2 14 3
10 11 -3 8 0 17 6 21 7 5 8 2 3 -6 -6 -10 -4 -12 8 -7 11 4 14 2 11 -7 -3 -8
-1 -17 5 -21 6 -3 9 -18 6 -33 -6 -26 -6 -26 8 3 7 17 16 25 20 19 11 -19 -16
-63 -37 -60 -22 3 -31 46 -9 46 16 0 17 16 2 25 -15 10 -40 -27 -28 -41 7 -8
5 -14 -3 -17 -17 -6 -7 -16 21 -20 12 -2 27 -10 32 -18 7 -11 9 -11 9 4 0 10
5 15 11 12 6 -4 8 -13 5 -20 -2 -7 1 -18 7 -24 8 -8 8 -11 0 -11 -7 0 -15 4
-18 10 -3 5 -12 10 -18 10 -7 0 -6 -4 3 -10 14 -9 7 -14 -13 -11 -5 1 -6 -3
-2 -9 3 -6 12 -7 18 -3 7 4 20 6 29 5 18 -3 37 42 24 55 -3 4 -6 -4 -6 -16 0
-12 -4 -19 -10 -16 -7 4 -7 13 0 26 8 15 15 17 29 9 10 -5 22 -6 26 -2 5 4 5
1 1 -6 -4 -7 -11 -10 -15 -8 -4 3 -8 -5 -8 -16 -2 -20 -2 -20 21 2 18 16 26
18 31 9 5 -7 4 -10 -2 -6 -11 7 -45 -28 -36 -37 4 -3 2 -6 -4 -6 -15 0 -10
-43 6 -48 8 -3 11 0 7 6 -3 6 -1 14 5 17 5 4 8 14 4 23 -3 9 -3 13 1 9 4 -4
15 0 25 9 13 12 19 12 25 3 4 -7 3 -10 -4 -5 -6 3 -14 1 -18 -5 -4 -6 1 -16
10 -21 9 -5 13 -14 10 -20 -4 -7 -2 -8 5 -4 6 4 9 12 6 17 -4 5 2 9 12 9 15 0
16 2 3 10 -12 8 -12 10 -1 10 11 0 11 3 0 17 -12 15 -12 16 6 9 15 -5 17 -4 9
4 -7 7 -9 20 -7 31 5 19 6 19 20 2 8 -10 12 -12 8 -6 -4 9 -1 11 9 7 9 -3 13
-10 10 -15 -3 -5 -2 -9 3 -8 29 5 32 -2 16 -36 -9 -19 -19 -32 -23 -30 -3 2
-12 -1 -20 -7 -12 -8 -12 -9 3 -4 9 3 17 1 17 -4 0 -6 -4 -10 -8 -10 -5 0 -9
-6 -9 -12 0 -7 -2 -19 -4 -27 -3 -8 5 -14 19 -16 12 -1 22 2 22 7 0 4 -7 8
-15 8 -8 0 -15 4 -15 8 0 4 9 8 20 8 12 0 20 -7 20 -16 0 -22 -19 -40 -36 -33
-8 3 -14 0 -14 -7 0 -6 5 -8 11 -4 7 4 10 1 7 -7 -3 -8 -11 -13 -17 -11 -7 1
-10 -2 -7 -7 4 -5 -2 -12 -11 -14 -16 -4 -16 -5 -1 -6 19 -1 78 57 78 76 0 14
34 12 47 -2 5 -4 -2 -5 -15 -2 -19 4 -22 2 -17 -13 3 -10 1 -21 -4 -25 -7 -4
-8 1 -4 12 5 16 4 16 -14 -2 -23 -23 -28 -52 -6 -34 7 6 13 8 13 4 0 -5 9 0
19 9 14 13 21 14 27 5 4 -7 3 -10 -4 -5 -6 3 -20 -6 -31 -20 -20 -26 -20 -28
-4 -46 16 -18 16 -18 0 -12 -15 5 -21 17 -19 35 2 12 -35 17 -49 7 -11 -8 -11
-9 2 -5 9 3 21 -4 28 -16 11 -18 11 -20 0 -9 -18 17 -34 15 -19 -3 7 -8 20
-15 29 -16 11 0 12 -2 3 -6 -7 -3 -19 0 -26 6 -10 9 -15 8 -20 -4 -3 -9 -11
-13 -17 -9 -8 4 -7 9 2 15 11 7 11 9 -1 9 -13 0 -13 1 0 10 8 5 11 10 5 10 -5
0 -17 -5 -25 -10 -8 -5 -10 -10 -4 -10 6 0 11 -7 11 -15 0 -17 -13 -20 -22 -5
-5 8 -11 7 -21 -1 -15 -12 -10 -29 9 -29 8 0 8 3 -2 9 -9 6 -10 11 -3 15 6 4
16 -3 22 -14 8 -15 8 -20 -2 -20 -10 0 -10 -2 1 -9 8 -5 9 -11 3 -15 -6 -4
-15 1 -20 10 -6 11 -11 13 -16 5 -4 -6 -2 -11 3 -11 6 0 11 -4 11 -9 0 -6 -9
-9 -20 -8 -23 2 -23 2 -9 29 6 11 7 18 1 14 -5 -3 -15 -19 -22 -36 -7 -16 -15
-28 -19 -26 -4 3 -13 0 -21 -6 -12 -8 -12 -9 3 -4 9 3 17 1 17 -4 0 -6 -5 -10
-12 -10 -6 0 -3 -9 7 -20 l19 -21 13 26 c8 14 22 25 33 25 13 0 18 5 14 15 -4
9 0 15 10 15 9 0 16 4 16 9 0 5 9 7 20 4 21 -6 27 6 10 23 -6 6 -6 15 0 24 8
12 10 10 10 -8 0 -13 4 -20 10 -17 7 4 6 13 -1 26 -9 18 -8 19 9 10 11 -6 23
-7 27 -3 5 4 -5 -10 -21 -30 -16 -21 -37 -38 -47 -38 -14 0 -16 -4 -8 -19 6
-10 8 -20 6 -22 -2 -3 12 -9 31 -15 28 -9 32 -9 23 3 -10 11 -8 12 6 7 15 -6
17 -3 13 14 -6 21 -5 21 27 8 32 -14 34 -13 39 10 5 20 11 23 36 17 23 -4 30
-2 30 11 0 9 5 16 11 16 5 0 7 5 4 10 -3 6 -1 10 5 10 6 0 8 5 5 10 -12 19 5
29 35 20 16 -5 29 -5 29 -2 -3 19 2 33 10 28 5 -4 7 3 4 14 -3 12 1 22 10 26
21 8 37 -3 31 -21 -4 -8 -10 -12 -15 -9 -5 3 -6 -2 -3 -10 6 -15 26 -26 59
-33 32 -6 41 -21 27 -43 -14 -23 -16 -33 -4 -26 5 3 9 -1 9 -9 0 -8 -7 -17
-15 -20 -12 -5 -12 -9 4 -26 15 -16 15 -19 2 -14 -12 5 -18 0 -21 -17 l-4 -23
-2 23 c0 12 -6 22 -12 22 -5 0 -8 -4 -5 -9 6 -9 -22 -26 -36 -23 -13 3 -9 -16
5 -21 9 -4 9 -6 -1 -6 -7 -1 -10 -5 -7 -11 3 -5 0 -7 -8 -4 -14 5 -16 -14 -6
-55 2 -7 -3 -16 -11 -18 -10 -3 -11 -2 -3 4 7 5 9 14 3 22 -4 8 -6 19 -4 26 3
6 -2 12 -11 12 -10 0 -14 -6 -10 -16 12 -29 10 -35 -10 -38 -19 -3 -19 -2 -1
5 18 8 18 9 0 27 -13 13 -15 20 -6 23 6 2 12 11 12 19 0 11 7 14 28 9 17 -4
22 -3 13 2 -9 7 -10 12 -2 16 6 4 9 12 6 17 -4 5 -2 9 4 9 5 0 11 -6 14 -12 2
-8 10 -1 17 14 10 22 16 25 27 17 9 -9 13 -8 13 0 0 6 -4 11 -10 11 -5 0 -10
5 -10 11 0 5 4 7 10 4 6 -4 7 1 4 12 -5 14 -4 15 4 4 8 -11 10 -9 9 10 0 13 2
30 4 38 2 7 -3 16 -11 18 -10 3 -11 2 -3 -4 18 -13 -17 -67 -47 -71 -14 -2
-27 -6 -30 -9 -3 -3 7 -3 23 -1 15 3 27 1 27 -3 0 -5 -5 -9 -10 -9 -6 0 -9 -4
-8 -9 3 -9 -2 -11 -24 -11 -9 0 -8 4 2 10 8 5 11 10 5 10 -5 0 -17 -5 -25 -10
-8 -5 -10 -10 -4 -10 6 0 11 -7 11 -15 0 -17 -13 -20 -22 -5 -11 17 -34 -8
-28 -29 3 -10 0 -22 -7 -26 -7 -4 -10 -1 -8 10 2 10 -3 19 -10 21 -7 1 -8 0
-3 -2 12 -6 3 -34 -11 -34 -5 0 -6 5 -3 10 13 21 -11 8 -28 -15 -14 -20 -15
-24 -2 -19 8 3 15 10 15 16 0 5 4 7 10 3 17 -10 0 -31 -27 -33 -14 -1 -29 -5
-32 -8 -3 -4 6 -4 22 -2 15 3 27 1 27 -3 0 -5 -5 -9 -10 -9 -6 0 -9 -4 -8 -9
3 -9 -2 -11 -24 -11 -9 0 -8 4 2 10 8 5 11 10 5 10 -5 0 -17 -5 -25 -10 -10
-6 -11 -10 -2 -10 14 0 12 -21 -3 -32 -15 -11 -37 -9 -30 2 4 6 11 8 16 5 5
-4 9 -1 9 4 0 15 -15 14 -28 -1 -5 -8 -6 -22 -1 -33 4 -11 8 -14 8 -7 1 6 9
12 19 12 13 0 14 -2 4 -9 -9 -5 0 -8 25 -7 22 1 38 6 38 13 0 6 3 15 7 19 4 3
6 -3 3 -15 -5 -25 2 -27 26 -5 13 12 19 12 25 3 4 -7 3 -10 -4 -5 -6 3 -13 2
-17 -4 -9 -15 127 -9 142 6 7 6 9 14 6 18 -10 9 6 7 27 -4 24 -13 40 4 40 43
0 7 6 22 14 32 13 18 14 18 41 1 24 -16 27 -16 22 -2 -4 9 -2 16 3 16 5 0 6 7
3 17 -5 12 -3 14 7 8 8 -5 11 -4 7 3 -11 16 3 41 19 35 18 -6 14 -33 -6 -51
-8 -8 -10 -11 -3 -8 6 4 14 2 18 -4 5 -9 -6 -14 -26 -12 -3 1 -6 -5 -6 -13 0
-11 5 -10 24 2 14 9 30 12 40 8 10 -5 21 -8 25 -7 4 1 5 -7 3 -18 -4 -22 10
-28 18 -7 3 8 10 6 23 -7 11 -11 12 -15 3 -8 -16 12 -29 7 -29 -10 0 -5 5 -6
12 -2 7 4 8 3 4 -5 -4 -6 -11 -9 -16 -6 -4 3 -11 -1 -13 -7 -4 -10 -6 -10 -6
0 -1 8 -9 10 -27 6 -19 -5 -25 -4 -20 5 4 6 11 9 15 7 4 -3 12 4 19 15 10 16
9 19 -4 19 -9 0 -12 5 -8 13 6 9 5 9 -8 0 -8 -7 -18 -10 -21 -6 -4 3 -7 1 -7
-6 0 -7 7 -11 15 -8 8 4 17 2 20 -3 8 -13 -18 -18 -39 -8 -10 6 -16 6 -13 1 3
-5 2 -15 -4 -23 -6 -10 -9 -11 -9 -2 0 6 -4 12 -8 12 -5 0 -9 -7 -9 -14 0 -8
3 -15 6 -14 20 2 31 -3 26 -12 -3 -5 -1 -10 5 -10 6 0 8 10 4 25 -4 15 -2 25
5 25 6 0 10 -3 10 -7 -3 -19 3 -47 8 -35 2 6 12 12 21 12 13 0 14 -2 4 -9 -9
-5 0 -8 25 -7 22 1 38 6 38 13 0 6 3 15 7 19 4 3 6 -3 3 -14 l-4 -22 1695 0
1696 0 11 30 c10 26 15 30 38 25 28 -6 35 6 108 207 9 25 13 27 36 18 23 -9
27 -7 36 18 5 15 26 69 46 121 29 76 33 95 22 102 -8 5 -19 9 -26 9 -9 0 -8 9
2 34 8 18 26 64 39 100 l25 67 -24 9 -25 9 20 51 20 50 -25 6 c-14 3 -25 8
-25 10 0 2 9 25 19 53 l20 49 -24 6 c-21 5 -24 11 -19 34 5 22 1 30 -16 38
-17 7 139 38 659 132 414 74 709 132 752 147 308 107 416 360 300 704 -16 47
-254 547 -529 1111 -2598 5331 -2338 4803 -2396 4863 -117 120 -309 201 -511
213 -81 5 -2643 -97 -2790 -111 -79 -8 -181 -33 -227 -56 -21 -11 -39 -19 -42
-19 -2 0 -38 69 -79 153 -82 167 -136 238 -231 301 -97 64 -243 113 -396 130
-30 4 -647 -18 -1370 -48 -1300 -54 -1412 -60 -1500 -72 l-45 -6 -39 77 c-86
169 -228 272 -451 326 -80 19 -260 31 -360 23z m400 -143 c86 -30 160 -78 219
-142 47 -51 116 -156 116 -177 0 -5 -16 -16 -35 -25 -53 -25 -114 -86 -143
-141 -20 -41 -27 -69 -30 -142 -6 -126 13 -192 159 -567 67 -172 184 -472 260
-667 75 -195 198 -508 272 -695 251 -636 621 -1581 1381 -3525 84 -217 153
-396 152 -397 0 0 -242 -44 -536 -97 -294 -53 -555 -101 -580 -106 -25 -5
-184 -34 -355 -65 -170 -30 -460 -82 -644 -115 -337 -61 -410 -68 -491 -49
-120 27 -260 130 -309 228 -29 55 -30 58 -683 1691 -1171 2927 -1817 4551
-1837 4615 -32 102 -36 163 -14 205 34 64 50 68 340 81 l260 12 36 -22 c24
-14 48 -44 69 -82 37 -71 84 -113 150 -135 45 -15 104 -13 846 16 693 28 801
34 827 49 44 25 57 56 50 123 -7 70 12 113 57 133 19 7 77 13 142 14 61 1 112
4 115 6 11 11 153 -6 206 -24z m3513 -427 c59 -24 92 -62 92 -104 0 -46 -26
-71 -76 -74 -119 -8 -231 110 -163 173 28 26 92 28 147 5z m3765 -259 c102
-27 167 -65 249 -145 86 -86 52 -20 473 -895 35 -71 111 -229 170 -350 59
-121 133 -274 165 -340 32 -66 96 -199 142 -295 47 -96 292 -602 545 -1125
253 -522 639 -1319 858 -1770 568 -1173 576 -1190 582 -1232 11 -86 -41 -175
-124 -210 -18 -7 -135 -31 -260 -54 -126 -22 -262 -46 -303 -53 -94 -17 -578
-105 -605 -110 -11 -2 -36 -6 -55 -10 -19 -3 -46 -8 -60 -11 -14 -3 -140 -25
-280 -50 -140 -25 -286 -52 -325 -60 -38 -7 -88 -16 -110 -20 -23 -3 -52 -8
-65 -10 -14 -3 -137 -26 -275 -51 -137 -24 -261 -47 -275 -50 -14 -2 -144 -26
-288 -51 -252 -45 -267 -46 -335 -35 -150 26 -291 122 -350 239 -34 67 -2471
6164 -2507 6273 -39 117 -46 185 -23 230 32 61 63 71 251 81 293 14 354 12
392 -13 19 -13 43 -41 55 -63 49 -93 93 -132 170 -154 46 -13 1575 43 1638 60
57 15 77 55 74 146 -2 67 0 74 26 100 26 26 34 28 135 33 225 11 258 10 315
-5z m-6033 -187 c0 -4 -9 -8 -20 -8 -29 0 -24 -17 9 -28 24 -8 28 -15 24 -36
-6 -32 -39 -53 -78 -50 l-30 2 33 -14 c24 -11 38 -12 52 -4 16 8 20 8 20 -3 0
-17 34 -30 68 -27 29 2 112 -28 133 -49 9 -9 29 -38 43 -64 20 -37 24 -52 16
-67 -16 -29 -69 -63 -90 -57 -11 3 -20 1 -20 -4 0 -15 -46 -28 -123 -34 -71
-6 -72 -6 -106 27 -35 32 -61 44 -61 27 0 -5 15 -19 33 -30 l32 -20 -35 6
c-32 6 -74 22 -125 46 -25 12 -56 79 -62 135 -6 47 6 59 80 85 33 12 39 11 47
-1 8 -12 10 -11 10 5 0 15 3 16 12 7 19 -19 30 -14 18 8 -15 28 -31 127 -23
146 3 9 19 22 36 29 25 10 36 10 68 -3 22 -8 39 -19 39 -24z m783 -322 c31
-16 57 -34 57 -39 0 -17 -50 -77 -65 -77 -20 0 -116 52 -122 66 -6 16 52 88
66 82 3 -2 32 -16 64 -32z m2070 -478 c81 -205 187 -481 237 -613 50 -132 108
-280 130 -330 49 -115 91 -227 87 -232 -4 -3 -201 -25 -352 -38 -33 -3 -76 -8
-95 -10 -35 -4 -50 -6 -255 -25 -60 -6 -130 -12 -155 -15 -25 -2 -74 -7 -110
-10 -36 -4 -76 -8 -90 -10 -14 -2 -65 -7 -115 -10 -49 -4 -92 -9 -95 -10 -3
-2 -48 -6 -100 -10 -52 -4 -102 -8 -110 -10 -8 -2 -46 -6 -85 -9 -89 -8 -182
-17 -220 -21 -16 -2 -66 -6 -110 -10 -44 -3 -93 -8 -110 -9 -16 -2 -66 -7
-110 -11 -44 -3 -91 -8 -105 -10 -14 -2 -59 -7 -100 -10 -41 -4 -88 -14 -103
-22 -40 -20 -69 -71 -61 -107 6 -26 84 -226 119 -301 7 -16 26 -61 41 -100 33
-86 41 -96 68 -91 11 3 33 5 48 5 15 1 33 8 42 16 17 18 56 20 56 3 0 -7 7 -5
18 5 10 9 31 16 48 16 16 0 53 3 82 6 33 4 52 2 52 -4 0 -6 10 -9 23 -7 12 2
21 9 19 15 -3 15 15 14 20 -1 3 -9 9 -8 22 5 21 20 21 20 48 6 15 -8 22 -8 28
1 9 15 58 22 66 9 3 -5 14 -9 24 -9 17 0 18 4 10 25 -6 15 -6 25 0 25 5 0 12
-9 15 -20 7 -23 21 -26 28 -7 4 9 8 9 15 -2 9 -12 13 -12 27 3 10 9 24 15 31
12 8 -3 21 -9 31 -13 10 -4 14 -2 10 4 -9 14 36 23 57 11 12 -7 16 -5 16 7 0
20 17 19 28 -2 9 -16 11 -16 27 0 18 19 55 23 55 7 0 -5 4 -10 9 -10 5 0 7 9
4 20 -3 11 0 20 6 20 6 0 11 -7 11 -15 0 -17 16 -20 25 -4 5 6 12 4 21 -8 14
-17 15 -16 9 5 -6 20 -4 23 12 20 10 -2 17 -10 15 -16 -3 -17 8 -15 30 5 14
13 23 14 42 5 20 -9 25 -8 30 4 3 9 10 12 16 9 6 -4 8 -11 5 -16 -10 -16 23
-10 40 7 12 13 19 14 28 5 21 -21 40 -13 33 14 -8 30 10 34 19 4 6 -17 9 -18
22 -7 19 16 53 21 53 8 0 -6 5 -10 11 -10 6 0 8 9 4 20 -4 11 -2 20 4 20 6 0
11 -4 11 -9 0 -14 63 -20 82 -8 12 8 24 8 41 0 22 -10 24 -9 20 8 -6 22 15 26
23 4 8 -20 44 -19 58 1 9 12 17 13 38 5 22 -8 25 -7 21 9 -3 10 0 21 7 25 15
9 21 3 23 -24 2 -26 32 -28 47 -3 8 12 13 13 16 5 8 -18 41 -16 48 2 3 8 12
15 21 15 8 0 15 5 15 10 0 19 18 10 24 -12 5 -22 6 -22 20 -3 12 17 17 18 40
7 21 -10 28 -9 32 1 5 14 27 15 57 2 19 -8 73 -4 295 22 84 9 146 12 151 7 8
-9 43 -95 250 -627 l120 -308 -20 -20 c-11 -11 -18 -27 -15 -36 3 -8 6 -18 6
-21 0 -14 46 -59 66 -66 17 -5 40 -52 107 -224 372 -945 360 -912 349 -912
-35 0 -177 -32 -183 -42 -7 -11 -1 -27 75 -193 75 -163 73 -160 135 -156 25 2
65 4 89 5 l43 1 139 -355 c77 -195 138 -355 137 -355 -1 -1 -173 -32 -382 -69
-209 -38 -562 -101 -785 -141 -223 -41 -596 -108 -830 -150 -234 -42 -471 -85
-528 -96 -190 -35 -307 -19 -428 59 -79 51 -128 110 -174 207 -48 100 -2174
5424 -2169 5429 2 2 67 7 144 11 77 4 156 8 175 10 19 2 86 6 149 10 62 4 132
8 155 10 22 2 93 6 156 10 63 3 122 8 130 10 8 2 87 7 175 10 88 4 167 8 175
10 8 2 74 6 145 10 72 3 146 8 165 10 19 2 80 7 135 10 117 7 188 12 305 19
82 5 135 9 355 21 55 3 114 8 130 10 17 2 91 7 165 10 74 4 143 9 152 10 9 2
79 7 155 10 76 4 139 8 140 9 1 1 15 3 31 4 l29 2 146 -372z"/>
<path d="M4071 6943 c0 -10 12 -43 27 -73 29 -57 48 -68 98 -56 36 9 47 39 30
80 -17 42 -60 66 -116 66 -32 0 -40 -4 -39 -17z"/>
<path d="M7129 2366 c-2 -2 -22 -6 -44 -9 -22 -2 -78 -12 -125 -20 -47 -9 -98
-18 -115 -21 -16 -2 -147 -25 -290 -51 -143 -26 -273 -49 -290 -51 -16 -3 -64
-11 -105 -19 -104 -20 -120 -22 -184 -30 -30 -4 -63 -13 -72 -20 -22 -16 -11
-45 17 -45 20 0 700 117 729 125 8 3 33 7 55 10 36 6 179 31 230 41 11 2 49 9
85 15 36 6 72 12 80 14 8 2 36 7 62 10 73 11 75 54 2 55 -17 0 -33 -2 -35 -4z"/>
<path d="M10744 7300 c6 -30 5 -31 -27 -25 -70 13 -87 -42 -31 -98 28 -28 86
-38 99 -17 5 8 11 7 21 -1 23 -19 41 4 26 33 -6 13 -22 49 -36 81 -16 37 -31
57 -42 57 -13 0 -15 -6 -10 -30z"/>
<path d="M9753 7272 c-24 -2 -43 -5 -43 -6 0 -2 15 -41 34 -87 l34 -84 68 3
c37 1 74 7 81 14 21 17 11 51 -19 66 -27 13 -38 32 -19 32 12 0 2 38 -12 47
-17 11 -79 18 -124 15z"/>
<path d="M12818 7075 c-1 -1 -59 -6 -128 -9 -69 -4 -145 -9 -170 -11 -25 -2
-92 -7 -150 -10 -58 -3 -130 -7 -160 -10 -30 -2 -107 -7 -170 -10 -63 -4 -126
-8 -140 -10 -14 -2 -86 -7 -160 -10 -74 -4 -142 -8 -150 -10 -8 -2 -76 -6
-150 -10 -74 -3 -146 -8 -160 -10 -14 -2 -74 -6 -135 -9 -60 -4 -139 -8 -175
-11 -36 -2 -110 -7 -165 -10 -55 -3 -120 -8 -145 -10 -25 -2 -94 -7 -155 -10
-60 -3 -130 -7 -155 -10 -25 -2 -90 -7 -145 -10 -153 -8 -248 -16 -270 -22
-33 -9 -55 -34 -55 -64 0 -15 36 -117 80 -226 44 -109 86 -211 92 -228 6 -16
21 -52 33 -80 12 -27 26 -61 30 -75 4 -14 15 -43 25 -65 10 -22 50 -121 89
-220 40 -99 80 -198 90 -220 10 -22 22 -51 26 -65 4 -14 15 -43 25 -65 10 -22
34 -80 54 -128 55 -138 95 -163 245 -152 53 4 102 8 111 10 8 2 49 6 90 9 41
4 116 11 165 16 50 5 144 14 210 20 66 6 136 13 155 15 19 2 76 7 125 11 50 3
97 8 105 9 8 2 49 6 90 9 41 4 91 9 110 11 19 3 114 11 210 20 172 15 441 41
530 50 25 3 95 9 155 15 61 6 130 12 155 15 25 2 72 7 105 10 33 3 76 8 95 10
19 2 67 7 105 10 39 3 81 8 95 10 14 2 61 6 105 10 198 17 236 23 255 40 40
36 38 42 -200 530 -56 116 -115 237 -130 270 -31 66 -236 489 -278 574 -35 70
-84 103 -156 107 -30 1 -56 1 -58 -1z m-2152 -452 c26 -17 26 -17 4 -25 -24
-9 -18 -28 10 -28 34 0 35 -51 1 -77 -9 -7 -29 -13 -46 -13 l-30 -1 29 -16
c24 -12 34 -13 49 -4 16 10 19 9 24 -9 4 -16 8 -18 14 -9 6 11 9 10 14 -3 5
-12 14 -16 33 -12 16 3 51 -4 83 -16 43 -16 63 -30 83 -60 14 -22 26 -46 26
-54 0 -8 5 -18 10 -21 16 -10 -20 -62 -56 -81 -18 -10 -36 -15 -40 -11 -4 4
-12 0 -18 -9 -6 -8 -29 -19 -51 -24 -48 -11 -166 -13 -162 -2 3 11 -41 52 -58
52 -24 0 -17 -18 11 -33 53 -28 7 -24 -68 5 -74 30 -77 32 -99 82 -12 28 -24
69 -26 91 -5 40 -5 40 51 68 31 16 63 26 71 23 8 -3 15 -1 15 5 0 6 7 6 20 -1
20 -11 21 -9 4 38 -19 51 -21 126 -4 147 17 20 74 19 106 -2z m930 -828 c16
-40 27 -46 22 -12 -4 32 39 37 62 7 l17 -22 -1 23 c-1 20 5 25 32 27 29 3 34
0 48 -34 15 -35 15 -39 -1 -50 -20 -15 -55 -7 -55 13 0 11 -5 13 -17 7 -10 -4
-39 -8 -64 -9 -25 -1 -51 -5 -57 -9 -17 -10 -49 10 -55 34 -4 16 1 23 19 31
14 5 22 13 19 19 -3 5 -1 10 5 10 6 0 18 -16 26 -35z m99 -125 c4 -6 14 -8 23
-6 10 3 23 2 31 -3 9 -6 21 -5 32 2 14 9 26 9 48 0 24 -9 31 -8 35 3 3 8 18
14 34 14 23 0 30 -6 41 -35 23 -65 -19 -81 -66 -26 -21 25 -22 25 -16 4 5 -20
1 -23 -25 -23 -17 0 -34 5 -37 10 -5 8 -12 7 -21 -1 -9 -7 -26 -14 -39 -15
-20 -2 -28 5 -42 34 -9 20 -18 40 -20 45 -6 11 15 8 22 -3z"/>
<path d="M13609 5326 c-5 -5 -86 -15 -124 -16 -18 0 -25 -3 -18 -8 9 -6 7 -12
-7 -25 -11 -9 -20 -24 -20 -32 0 -8 -3 -14 -7 -14 -20 3 -34 -2 -28 -11 3 -5
-1 -10 -10 -10 -9 0 -14 -4 -11 -9 3 -5 -1 -12 -10 -15 -8 -3 -12 -10 -9 -16
3 -5 1 -10 -5 -10 -6 0 -9 -4 -6 -9 3 -5 -1 -12 -10 -15 -8 -3 -12 -11 -9 -16
4 -6 3 -10 -2 -9 -20 3 -27 -2 -13 -11 13 -8 12 -10 -2 -10 -10 0 -18 -7 -18
-16 0 -8 -4 -12 -10 -9 -5 3 -15 3 -21 -1 -8 -4 -7 -9 2 -15 11 -7 10 -9 -4
-9 -10 0 -15 -4 -12 -10 3 -5 -1 -10 -10 -10 -11 0 -15 -5 -11 -15 3 -9 0 -15
-8 -15 -7 0 -13 -7 -13 -15 0 -11 8 -14 31 -10 17 2 65 7 106 10 41 3 83 8 92
11 10 3 19 -2 23 -15 3 -10 13 -25 22 -33 18 -14 18 -15 -4 39 -5 13 -2 15 15
11 12 -4 25 -2 28 3 11 19 43 8 64 -21 12 -16 19 -34 16 -39 -5 -8 -80 -22
-120 -22 -11 0 -23 6 -27 13 -7 10 -9 9 -9 -4 0 -10 -6 -18 -14 -18 -8 0 -17
-7 -20 -16 -6 -15 -8 -15 -24 -2 -9 9 -22 14 -28 11 -6 -2 -19 11 -28 29 l-17
33 6 -32 c5 -26 3 -33 -9 -33 -9 0 -16 4 -16 8 0 5 -7 17 -15 28 -14 18 -14
17 -5 -10 6 -16 9 -30 7 -32 -7 -7 -94 -7 -105 0 -5 3 -12 2 -14 -4 -4 -13
-55 -16 -83 -6 -13 5 -11 2 5 -8 14 -8 19 -15 11 -16 -7 0 -11 -6 -7 -15 3 -9
0 -15 -10 -15 -8 0 -12 -4 -9 -10 3 -5 -1 -10 -9 -10 -10 0 -13 -6 -9 -15 3
-10 0 -15 -8 -13 -8 2 -13 -3 -11 -9 1 -7 -2 -13 -8 -13 -5 0 -7 -6 -4 -13 5
-13 -49 -51 -59 -41 -3 3 -4 -1 -3 -10 1 -8 5 -19 9 -22 4 -4 7 -17 7 -28 0
-19 1 -19 13 4 11 21 20 25 55 24 23 0 42 3 42 7 0 5 17 8 38 7 20 -1 51 2 69
6 37 9 77 -8 69 -30 -3 -8 -1 -14 4 -14 6 0 10 11 10 25 0 33 42 45 81 23 24
-14 26 -14 25 0 -1 17 41 26 79 17 28 -6 71 -85 53 -97 -20 -12 -22 -11 -41
32 -9 22 -24 40 -32 40 -16 0 -21 -25 -6 -34 5 -3 11 -15 14 -27 5 -18 2 -20
-20 -16 -14 2 -37 -1 -50 -8 -18 -10 -33 -11 -51 -4 -18 7 -34 6 -58 -6 -26
-12 -38 -13 -58 -4 -27 12 -35 29 -15 29 7 0 0 9 -14 20 -14 11 -28 20 -31 20
-10 0 -7 -38 4 -45 6 -3 10 -15 10 -26 0 -23 -28 -26 -36 -4 -6 14 -8 13 -19
-2 -15 -20 -62 -28 -80 -13 -9 7 -16 6 -25 -5 -14 -17 -72 -20 -100 -5 -15 8
-17 6 -13 -10 7 -26 -11 -26 -37 0 -22 22 -39 28 -22 7 14 -16 -1 -42 -19 -32
-9 6 -11 3 -6 -10 5 -11 0 -24 -14 -36 -12 -10 -18 -23 -13 -30 5 -9 -1 -10
-20 -7 -23 5 -27 3 -23 -13 3 -10 -1 -23 -9 -30 -8 -6 -11 -15 -8 -20 3 -5 -3
-9 -13 -9 -15 0 -16 -2 -3 -10 13 -8 11 -11 -7 -16 -13 -4 -20 -10 -17 -15 3
-5 0 -9 -6 -9 -6 0 -8 -5 -5 -10 4 -6 3 -10 -2 -9 -23 4 -32 -2 -26 -18 4 -10
2 -14 -5 -9 -13 8 -31 -23 -25 -42 3 -7 -1 -13 -8 -11 -30 4 -38 -1 -32 -18 3
-10 3 -15 -2 -11 -10 10 -38 -19 -30 -32 3 -5 1 -10 -5 -10 -17 0 -42 -29 -35
-40 4 -6 1 -9 -7 -8 -7 2 -12 -3 -10 -9 1 -7 -2 -13 -6 -13 -18 0 -7 -27 15
-37 17 -9 23 -8 23 1 0 7 10 12 23 10 12 -1 25 -3 30 -3 4 -1 2 -10 -5 -20 -9
-15 -9 -23 1 -35 11 -13 10 -17 -5 -23 -11 -4 -38 -8 -61 -8 -22 0 -39 -3 -37
-7 11 -17 -31 -40 -63 -35 -18 3 -33 2 -33 -4 0 -5 -11 -9 -25 -9 -14 0 -25
-5 -25 -11 0 -5 6 -7 13 -4 6 4 0 -3 -15 -15 -15 -11 -25 -26 -22 -33 5 -13
47 -15 80 -4 12 4 32 4 45 -1 19 -7 28 -4 51 21 31 35 28 36 57 -20 32 -63 29
-72 -21 -69 -24 1 -49 -2 -55 -7 -7 -5 -26 -7 -43 -5 -16 2 -31 0 -33 -6 -5
-14 -37 12 -37 30 0 7 -5 16 -11 19 -7 5 -9 -3 -7 -21 2 -16 -1 -30 -7 -31 -5
-1 -12 -11 -17 -22 -8 -22 -50 -29 -77 -12 -16 10 -63 -7 -55 -20 3 -5 0 -9
-6 -9 -6 0 -8 -4 -5 -10 3 -5 -1 -10 -10 -10 -11 0 -15 -5 -11 -15 3 -9 0 -15
-10 -15 -8 0 -12 -4 -9 -10 3 -5 -4 -10 -16 -10 -19 0 -20 -2 -8 -17 10 -11
10 -14 2 -9 -8 4 -13 1 -13 -8 0 -9 -4 -16 -10 -16 -5 0 -7 -7 -4 -15 4 -10 0
-13 -16 -10 -16 3 -20 0 -16 -10 3 -8 1 -15 -5 -15 -14 0 -43 -30 -36 -37 9
-9 -20 -33 -39 -33 -10 0 -14 -3 -11 -7 4 -3 2 -12 -4 -20 -6 -7 -8 -13 -3
-13 4 0 -1 -7 -12 -15 -19 -14 -19 -14 1 -15 20 0 162 16 215 25 14 2 81 11
150 20 69 8 139 17 155 20 17 2 71 9 120 15 50 6 104 13 120 16 17 3 41 7 55
9 14 2 84 11 155 20 72 9 141 18 155 20 14 2 45 6 70 9 25 3 95 13 155 21 61
9 126 17 145 20 54 7 201 26 238 31 31 4 69 9 135 19 17 2 70 9 117 15 47 6
96 13 110 15 14 2 66 9 115 15 50 6 101 13 115 15 72 12 92 15 170 25 167 22
169 37 33 318 -52 108 -135 278 -183 377 -48 99 -122 254 -166 344 -189 392
-269 545 -297 565 -23 17 -46 21 -112 23 -45 1 -84 0 -86 -1z m-371 -1188 c26
-26 30 -79 6 -99 -24 -20 -85 -17 -116 6 -60 44 -58 106 5 123 37 10 72 0 105
-30z m-364 -60 c13 -30 14 -30 21 -9 6 19 13 22 36 19 20 -3 29 0 29 9 0 7 4
13 9 13 25 0 41 -14 41 -36 0 -14 7 -27 15 -30 8 -4 15 -10 15 -15 0 -13 -34
-11 -48 3 -9 9 -12 8 -12 -5 0 -24 -56 -27 -73 -4 -6 8 -7 6 -4 -4 7 -21 -37
-31 -69 -17 -35 16 -42 78 -8 78 8 0 14 7 14 15 0 26 20 16 34 -17z m-127 -11
c18 -19 34 -45 35 -58 3 -22 -1 -24 -37 -25 -43 -2 -92 -17 -87 -28 1 -3 -1
-7 -5 -8 -9 -3 -53 71 -53 89 0 16 58 27 74 14 18 -15 27 -3 20 25 -9 35 15
30 53 -9z m672 -120 c6 -8 12 -24 13 -38 2 -18 -2 -25 -20 -27 -13 -2 -30 2
-38 8 -11 10 -14 9 -14 -4 0 -26 -17 -18 -30 14 -7 17 -16 30 -21 30 -11 0
-11 -3 1 -34 6 -17 6 -27 -1 -32 -5 -3 -15 8 -22 25 -15 40 -31 40 -22 -1 6
-25 4 -30 -8 -25 -8 3 -20 0 -26 -6 -8 -8 -14 -3 -23 21 -16 40 -32 42 -23 2
8 -36 -7 -40 -23 -5 -15 33 -35 34 -22 0 6 -15 6 -26 0 -30 -6 -4 -13 1 -16
10 -6 14 -8 14 -19 -2 -10 -14 -25 -18 -64 -17 -28 0 -51 -3 -51 -8 0 -4 -4
-8 -10 -8 -14 0 -60 99 -49 106 13 7 29 -4 29 -22 0 -8 5 -14 10 -14 6 0 10 5
10 10 0 6 6 10 14 10 9 0 12 -7 9 -18 -2 -11 5 -26 19 -37 16 -14 19 -15 10
-3 -8 9 -12 27 -10 40 3 24 9 26 143 31 28 1 52 5 55 9 10 12 108 19 115 8 4
-6 12 -5 21 5 19 19 48 19 63 2z"/>
<path d="M11214 4889 c-63 -15 -78 -38 -85 -131 -4 -63 -10 -84 -24 -94 -10
-8 -14 -14 -7 -14 6 0 14 -12 17 -27 19 -91 30 -115 62 -143 35 -31 42 -33
104 -30 40 1 62 -18 57 -50 -2 -16 -18 -26 -63 -42 -65 -22 -88 -36 -79 -49
12 -21 112 -56 237 -83 40 -9 33 6 -20 44 l-48 33 50 14 c28 7 60 13 71 13 12
0 32 9 46 19 14 11 49 28 79 39 32 11 58 27 64 39 6 12 17 28 24 37 14 17 7
91 -10 102 -5 3 -9 13 -9 22 -1 9 -14 33 -30 52 -17 19 -30 40 -30 47 0 16 55
17 99 2 18 -6 35 -8 38 -5 4 4 -21 33 -54 65 l-60 59 -57 -16 c-38 -10 -60
-12 -64 -5 -4 5 -31 26 -60 46 -79 54 -169 74 -248 56z m143 -109 c38 -23 71
-69 56 -78 -25 -17 -18 -38 24 -71 51 -40 76 -86 71 -132 -5 -52 -41 -60 -112
-24 -53 27 -136 109 -136 136 0 7 3 10 6 6 3 -3 17 -1 31 4 31 12 51 -2 55
-39 2 -22 8 -26 26 -24 13 1 31 9 40 19 13 13 13 15 2 11 -24 -9 -48 10 -55
42 -8 36 -39 60 -77 60 -29 0 -68 30 -68 53 0 7 7 23 16 35 20 28 76 30 121 2z"/>
<path d="M12061 2885 c-60 -17 -104 -39 -140 -72 -22 -20 -24 -26 -18 -92 6
-77 38 -179 68 -223 11 -14 29 -48 42 -75 28 -61 65 -122 90 -150 l20 -22 -27
-11 c-35 -13 -26 -26 33 -52 136 -58 305 -57 412 4 48 26 119 105 134 148 15
43 15 44 -14 74 -36 38 -90 123 -124 196 -49 103 -73 137 -153 227 -48 52
-217 78 -323 48z m91 -74 c24 -9 49 -31 83 -72 51 -63 50 -58 16 -70 -17 -6
-31 -15 -31 -19 0 -5 14 -4 30 2 17 5 38 7 48 3 13 -6 10 -9 -16 -17 -28 -7
-32 -11 -22 -23 7 -9 29 -15 51 -15 45 0 72 -31 83 -95 12 -66 7 -95 -25 -140
-51 -71 -96 -73 -192 -7 -92 62 -147 137 -147 198 0 14 36 30 58 25 8 -1 20 3
28 10 22 18 0 28 -49 21 -31 -4 -39 -2 -35 9 3 10 18 13 47 11 27 -1 40 1 36
8 -3 5 -24 10 -46 10 -37 0 -39 2 -39 29 0 44 16 79 52 112 36 32 37 33 70 20z"/>
<path d="M8320 6839 c-41 -4 -142 -12 -225 -18 -82 -6 -175 -13 -205 -16 -30
-2 -93 -7 -140 -10 -47 -3 -130 -10 -185 -15 -55 -5 -152 -12 -215 -15 -63 -3
-126 -8 -140 -10 -14 -2 -61 -6 -105 -9 -44 -4 -111 -9 -150 -12 -97 -7 -126
-14 -157 -35 -53 -38 -45 -123 18 -179 63 -55 95 -63 229 -56 66 3 129 8 140
10 11 2 71 7 134 11 63 4 121 8 130 10 9 1 61 6 116 9 55 4 118 9 140 11 100
10 156 15 230 20 44 3 103 8 130 10 28 3 86 7 130 10 44 3 100 7 125 10 25 2
84 7 132 11 134 10 186 53 159 132 -35 99 -136 144 -291 131z"/>
<path d="M6435 6687 c-26 -9 -73 -51 -76 -67 0 -3 -2 -14 -4 -24 -6 -30 19
-79 54 -109 38 -32 56 -35 41 -8 -5 11 -10 24 -10 30 0 14 58 43 70 36 6 -3
10 5 10 20 0 14 -6 28 -14 31 -12 5 -11 9 5 25 28 28 53 24 66 -11 6 -17 7
-28 2 -24 -5 3 -9 0 -9 -5 0 -6 0 -14 0 -18 0 -5 6 -8 13 -8 6 0 11 -8 9 -18
-3 -19 14 -24 20 -6 5 16 78 -7 78 -24 0 -7 5 -5 10 4 17 29 -4 87 -44 123
-52 47 -163 74 -221 53z"/>
<path d="M7031 5173 c-37 -18 -61 -63 -61 -113 l0 -32 68 7 c100 10 101 11 95
49 -4 27 -1 36 14 44 21 12 49 0 39 -16 -3 -6 -2 -13 3 -16 5 -3 7 -15 4 -26
-5 -20 -3 -21 58 -14 35 3 66 8 68 10 11 10 -60 80 -100 101 -54 27 -139 30
-188 6z"/>
<path d="M7367 4002 c-21 -23 -21 -46 -1 -78 23 -34 48 -46 111 -50 46 -2 53
-1 43 11 -7 8 -10 22 -6 30 8 21 -8 59 -35 84 -29 27 -89 28 -112 3z"/>
<path d="M8500 3660 c-10 -6 -9 -20 10 -67 13 -32 27 -63 32 -69 10 -14 70 -3
93 16 43 35 -13 121 -81 125 -23 2 -47 0 -54 -5z"/>
<path d="M9815 3342 c-4 -5 6 -33 35 -97 22 -49 44 -56 95 -33 31 14 32 27 3
58 -13 14 -22 29 -20 34 7 21 -32 47 -70 44 -21 -1 -40 -4 -43 -6z"/>
<path d="M7839 3028 c-7 -13 -15 -25 -19 -28 -4 -3 -10 -15 -14 -27 -6 -20 -4
-23 21 -23 20 0 31 -7 38 -22 10 -22 15 -23 77 -19 14 1 16 7 12 31 -6 28 0
36 29 31 4 0 7 3 7 8 0 10 -113 71 -130 71 -5 0 -15 -10 -21 -22z"/>
<path d="M10495 2035 c-99 -18 -193 -36 -210 -39 -16 -3 -48 -8 -70 -11 -22
-3 -62 -10 -90 -16 -83 -16 -91 -17 -131 -23 -22 -3 -50 -8 -64 -11 -47 -10
-75 -15 -280 -51 -113 -20 -209 -39 -213 -43 -4 -4 -5 -15 -1 -24 7 -19 38
-21 102 -7 23 6 59 13 80 16 20 3 73 12 117 20 44 8 118 22 165 29 47 8 96 17
110 20 14 3 66 12 115 20 50 8 101 17 113 19 13 3 130 24 260 47 131 23 243
47 250 52 20 15 -5 37 -42 36 -17 -1 -112 -16 -211 -34z"/>
<path d="M8921 942 c-8 -19 -20 -28 -38 -30 -15 -1 -29 -5 -32 -8 -3 -4 6 -4
22 -2 15 3 27 1 27 -3 0 -5 -5 -9 -11 -9 -5 0 -8 -4 -4 -9 3 -5 1 -12 -5 -16
-5 -3 -10 -12 -10 -18 0 -7 7 -4 14 6 8 10 17 14 20 9 6 -10 -21 -27 -36 -24
-13 3 -9 -16 5 -21 9 -4 9 -6 -1 -6 -7 -1 -10 -5 -7 -11 3 -6 -1 -7 -10 -4
-11 4 -14 2 -9 -9 3 -8 1 -18 -5 -22 -6 -3 -9 0 -5 8 3 8 -2 14 -11 14 -10 0
-14 -6 -10 -16 12 -29 10 -35 -10 -38 -17 -2 -17 -2 -3 5 12 5 15 11 8 22 -5
8 -10 12 -12 10 -2 -3 -12 -16 -23 -29 -11 -14 -15 -21 -9 -18 7 4 17 0 24 -8
11 -13 10 -14 -5 -9 -13 5 -16 4 -11 -4 4 -7 16 -12 26 -12 10 0 21 -4 24 -9
3 -5 15 -11 25 -14 16 -4 25 5 46 44 29 57 30 63 9 55 -8 -3 -12 -2 -9 4 3 6
13 10 21 10 8 0 14 5 14 11 0 5 -6 7 -12 3 -7 -4 -4 3 6 15 36 40 30 67 -11
62 -17 -2 -16 3 8 50 11 23 18 43 16 45 -2 3 -10 -8 -16 -24z"/>
</g>
</svg>
